Gelasio.ufo
<glyph name="exclam" format="1">
  <advance width="678"/>
  <unicode hex="0021"/>
  <outline>
    <contour>
      <point x="378" y="432" type="line"/>
      <point x="406" y="1013"/>
      <point x="469" y="1322"/>
      <point x="469" y="1389" type="curve" smooth="yes"/>
      <point x="469" y="1467"/>
      <point x="411" y="1528"/>
      <point x="338" y="1528" type="curve" smooth="yes"/>
      <point x="264" y="1528"/>
      <point x="207" y="1467"/>
      <point x="207" y="1389" type="curve" smooth="yes"/>
      <point x="207" y="1322"/>
      <point x="254" y="1013"/>
      <point x="298" y="432" type="curve"/>
    </contour>
    <contour>
      <point x="198" y="122" type="curve" smooth="yes"/>
      <point x="198" y="47"/>
      <point x="259" y="-20"/>
      <point x="338" y="-20" type="curve" smooth="yes"/>
      <point x="417" y="-20"/>
      <point x="479" y="47"/>
      <point x="479" y="122" type="curve" smooth="yes"/>
      <point x="479" y="197"/>
      <point x="417" y="257"/>
      <point x="338" y="257" type="curve" smooth="yes"/>
      <point x="259" y="257"/>
      <point x="198" y="197"/>
    </contour>
  </outline>
</glyph>
<glyph name="numbersign" format="1">
  <advance width="1317"/>
  <unicode hex="0023"/>
  <outline>
    <contour>
      <point x="479" y="1419" type="line"/>
      <point x="232" y="0" type="line"/>
      <point x="357" y="0" type="line"/>
      <point x="606" y="1419" type="line"/>
    </contour>
    <contour>
      <point x="896" y="1419" type="line"/>
      <point x="649" y="0" type="line"/>
      <point x="774" y="0" type="line"/>
      <point x="1023" y="1419" type="line"/>
    </contour>
    <contour>
      <point x="158" y="870" type="line"/>
      <point x="1208" y="870" type="line"/>
      <point x="1208" y="976" type="line"/>
      <point x="158" y="976" type="line"/>
    </contour>
    <contour>
      <point x="108" y="450" type="line"/>
      <point x="1138" y="450" type="line"/>
      <point x="1138" y="556" type="line"/>
      <point x="108" y="556" type="line"/>
    </contour>
  </outline>
</glyph>
<glyph name="dollar" format="1">
  <advance width="1249"/>
  <unicode hex="0024"/>
  <outline>
    <contour>
      <point x="707" y="1300" type="line"/>
      <point x="707" y="1548" type="line"/>
      <point x="601" y="1548" type="line"/>
      <point x="601" y="1300" type="line"/>
    </contour>
    <contour>
      <point x="707" y="-245" type="line"/>
      <point x="707" y="3" type="line"/>
      <point x="601" y="3" type="line"/>
      <point x="601" y="-245" type="line"/>
    </contour>
    <contour>
      <point x="409" y="1049" type="curve" smooth="yes"/>
      <point x="409" y="1214"/>
      <point x="507" y="1272"/>
      <point x="645" y="1272" type="curve" smooth="yes"/>
      <point x="790" y="1272"/>
      <point x="913" y="1179"/>
      <point x="953" y="965" type="curve" smooth="yes"/>
      <point x="958" y="937"/>
      <point x="1047" y="917"/>
      <point x="1034" y="1014" type="curve" smooth="yes"/>
      <point x="1020" y="1124"/>
      <point x="1009" y="1271"/>
      <point x="1009" y="1296" type="curve" smooth="yes"/>
      <point x="1009" y="1323"/>
      <point x="972" y="1346"/>
      <point x="942" y="1327" type="curve" smooth="yes"/>
      <point x="919" y="1313"/>
      <point x="915" y="1293"/>
      <point x="860" y="1303" type="curve" smooth="yes"/>
      <point x="825" y="1309"/>
      <point x="746" y="1351"/>
      <point x="628" y="1351" type="curve" smooth="yes"/>
      <point x="445" y="1351"/>
      <point x="211" y="1246"/>
      <point x="211" y="1005" type="curve" smooth="yes"/>
      <point x="211" y="782"/>
      <point x="410" y="664"/>
      <point x="594" y="576" type="curve" smooth="yes"/>
      <point x="751" y="506"/>
      <point x="888" y="426"/>
      <point x="888" y="311" type="curve" smooth="yes"/>
      <point x="888" y="132"/>
      <point x="778" y="59"/>
      <point x="658" y="59" type="curve" smooth="yes"/>
      <point x="554" y="59"/>
      <point x="388" y="121"/>
      <point x="316" y="274" type="curve" smooth="yes"/>
      <point x="262" y="389"/>
      <point x="253" y="434"/>
      <point x="246" y="468" type="curve" smooth="yes"/>
      <point x="234" y="528"/>
      <point x="147" y="526"/>
      <point x="157" y="448" type="curve"/>
      <point x="166" y="368"/>
      <point x="184" y="214"/>
      <point x="175" y="72" type="curve" smooth="yes"/>
      <point x="172" y="22"/>
      <point x="218" y="-1"/>
      <point x="276" y="65" type="curve" smooth="yes"/>
      <point x="313" y="107"/>
      <point x="334" y="61"/>
      <point x="390" y="41" type="curve"/>
      <point x="434" y="24"/>
      <point x="513" y="-30"/>
      <point x="675" y="-30" type="curve" smooth="yes"/>
      <point x="916" y="-30"/>
      <point x="1092" y="97"/>
      <point x="1092" y="352" type="curve" smooth="yes"/>
      <point x="1092" y="551"/>
      <point x="900" y="671"/>
      <point x="715" y="765" type="curve" smooth="yes"/>
      <point x="557" y="840"/>
      <point x="409" y="932"/>
    </contour>
  </outline>
</glyph>
<glyph name="percent" format="1">
  <advance width="1674"/>
  <unicode hex="0025"/>
  <outline>
    <contour>
      <point x="106" y="1076" type="curve" smooth="yes"/>
      <point x="106" y="852"/>
      <point x="234" y="711"/>
      <point x="435" y="711" type="curve" smooth="yes"/>
      <point x="642" y="711"/>
      <point x="776" y="852"/>
      <point x="776" y="1076" type="curve" smooth="yes"/>
      <point x="776" y="1305"/>
      <point x="646" y="1449"/>
      <point x="439" y="1449" type="curve" smooth="yes"/>
      <point x="238" y="1449"/>
      <point x="106" y="1305"/>
    </contour>
    <contour>
      <point x="265" y="1076" type="curve" smooth="yes"/>
      <point x="265" y="1274"/>
      <point x="309" y="1372"/>
      <point x="434" y="1372" type="curve" smooth="yes"/>
      <point x="559" y="1372"/>
      <point x="606" y="1274"/>
      <point x="606" y="1076" type="curve" smooth="yes"/>
      <point x="606" y="882"/>
      <point x="562" y="788"/>
      <point x="437" y="788" type="curve" smooth="yes"/>
      <point x="311" y="788"/>
      <point x="265" y="882"/>
    </contour>
    <contour>
      <point x="892" y="336" type="curve" smooth="yes"/>
      <point x="892" y="112"/>
      <point x="1020" y="-29"/>
      <point x="1221" y="-29" type="curve" smooth="yes"/>
      <point x="1428" y="-29"/>
      <point x="1562" y="112"/>
      <point x="1562" y="336" type="curve" smooth="yes"/>
      <point x="1562" y="565"/>
      <point x="1432" y="709"/>
      <point x="1225" y="709" type="curve" smooth="yes"/>
      <point x="1024" y="709"/>
      <point x="892" y="565"/>
    </contour>
    <contour>
      <point x="1051" y="336" type="curve" smooth="yes"/>
      <point x="1051" y="534"/>
      <point x="1095" y="632"/>
      <point x="1220" y="632" type="curve" smooth="yes"/>
      <point x="1345" y="632"/>
      <point x="1392" y="534"/>
      <point x="1392" y="336" type="curve" smooth="yes"/>
      <point x="1392" y="142"/>
      <point x="1348" y="48"/>
      <point x="1223" y="48" type="curve" smooth="yes"/>
      <point x="1097" y="48"/>
      <point x="1051" y="142"/>
    </contour>
    <component base="fraction" xOffset="747"/>
  </outline>
</glyph>
<glyph name="ampersand" format="1">
  <advance width="1455"/>
  <unicode hex="0026"/>
  <outline>
    <contour>
      <point x="1272" y="741" type="curve" smooth="yes"/>
      <point x="1304" y="791"/>
      <point x="1356" y="818"/>
      <point x="1424" y="818" type="curve" smooth="yes"/>
      <point x="1446" y="818"/>
      <point x="1457" y="831"/>
      <point x="1457" y="855" type="curve" smooth="yes"/>
      <point x="1457" y="875"/>
      <point x="1446" y="896"/>
      <point x="1423" y="896" type="curve" smooth="yes"/>
      <point x="1030" y="896" type="line" smooth="yes"/>
      <point x="1007" y="896"/>
      <point x="996" y="875"/>
      <point x="996" y="855" type="curve" smooth="yes"/>
      <point x="996" y="834"/>
      <point x="1001" y="821"/>
      <point x="1027" y="818" type="curve" smooth="yes"/>
      <point x="1069" y="814"/>
      <point x="1162" y="802"/>
      <point x="1145" y="748" type="curve" smooth="yes"/>
      <point x="1141" y="733"/>
      <point x="1057" y="446"/>
      <point x="969" y="297" type="curve" smooth="yes"/>
      <point x="849" y="108"/>
      <point x="710" y="91"/>
      <point x="585" y="91" type="curve" smooth="yes"/>
      <point x="404" y="91"/>
      <point x="336" y="222"/>
      <point x="336" y="370" type="curve" smooth="yes"/>
      <point x="336" y="528"/>
      <point x="382" y="639"/>
      <point x="686" y="814" type="curve" smooth="yes"/>
      <point x="821" y="892"/>
      <point x="971" y="968"/>
      <point x="971" y="1198" type="curve" smooth="yes"/>
      <point x="971" y="1346"/>
      <point x="852" y="1448"/>
      <point x="640" y="1448" type="curve" smooth="yes"/>
      <point x="348" y="1448"/>
      <point x="274" y="1287"/>
      <point x="274" y="1109" type="curve" smooth="yes"/>
      <point x="274" y="931"/>
      <point x="445" y="748"/>
      <point x="560" y="615" type="curve"/>
      <point x="1103" y="0" type="line"/>
      <point x="1397" y="0" type="line"/>
      <point x="1419" y="0"/>
      <point x="1431" y="21"/>
      <point x="1431" y="41" type="curve" smooth="yes"/>
      <point x="1431" y="71"/>
      <point x="1423" y="75"/>
      <point x="1395" y="78" type="curve" smooth="yes"/>
      <point x="1332" y="86"/>
      <point x="1250" y="122"/>
      <point x="1210" y="162" type="curve" smooth="yes"/>
      <point x="1124" y="257"/>
      <point x="662" y="777"/>
      <point x="576" y="878" type="curve" smooth="yes"/>
      <point x="481" y="989"/>
      <point x="461" y="1083"/>
      <point x="461" y="1188" type="curve" smooth="yes"/>
      <point x="461" y="1293"/>
      <point x="544" y="1379"/>
      <point x="633" y="1379" type="curve" smooth="yes"/>
      <point x="754" y="1379"/>
      <point x="802" y="1259"/>
      <point x="802" y="1192" type="curve" smooth="yes"/>
      <point x="802" y="1119"/>
      <point x="818" y="975"/>
      <point x="619" y="861" type="curve" smooth="yes"/>
      <point x="371" y="719"/>
      <point x="122" y="602"/>
      <point x="122" y="353" type="curve" smooth="yes"/>
      <point x="122" y="103"/>
      <point x="294" y="-29"/>
      <point x="577" y="-29" type="curve" smooth="yes"/>
      <point x="798" y="-29"/>
      <point x="953" y="85"/>
      <point x="1042" y="250" type="curve" smooth="yes"/>
      <point x="1140" y="446"/>
      <point x="1212" y="632"/>
    </contour>
  </outline>
</glyph>
<glyph name="quotesingle" format="1">
  <advance width="441"/>
  <unicode hex="0027"/>
  <outline>
    <contour>
      <point x="250" y="967" type="line"/>
      <point x="276" y="1154"/>
      <point x="331" y="1475"/>
      <point x="331" y="1542" type="curve" smooth="yes"/>
      <point x="331" y="1620"/>
      <point x="293" y="1681"/>
      <point x="220" y="1681" type="curve" smooth="yes"/>
      <point x="146" y="1681"/>
      <point x="109" y="1620"/>
      <point x="109" y="1542" type="curve" smooth="yes"/>
      <point x="109" y="1475"/>
      <point x="164" y="1154"/>
      <point x="190" y="967" type="curve"/>
    </contour>
  </outline>
</glyph>
<glyph name="parenleft" format="1">
  <advance width="768"/>
  <unicode hex="0028"/>
  <outline>
    <contour>
      <point x="323" y="596" type="curve" smooth="yes"/>
      <point x="323" y="-164"/>
      <point x="596" y="-257"/>
      <point x="701" y="-257" type="curve"/>
      <point x="701" y="-257"/>
      <point x="701" y="-340"/>
      <point x="701" y="-340" type="curve" smooth="yes"/>
      <point x="483" y="-340"/>
      <point x="118" y="-115"/>
      <point x="118" y="596" type="curve" smooth="yes"/>
      <point x="118" y="1307"/>
      <point x="483" y="1532"/>
      <point x="701" y="1532" type="curve"/>
      <point x="701" y="1532"/>
      <point x="701" y="1449"/>
      <point x="701" y="1449" type="curve"/>
      <point x="596" y="1449"/>
      <point x="323" y="1356"/>
    </contour>
  </outline>
</glyph>
<glyph name="asterisk" format="1">
  <advance width="967"/>
  <unicode hex="002A"/>
  <outline>
    <contour>
      <point x="419" y="980" type="curve"/>
      <point x="351" y="912"/>
      <point x="234" y="811"/>
      <point x="216" y="786" type="curve" smooth="yes"/>
      <point x="201" y="765"/>
      <point x="192" y="738"/>
      <point x="192" y="714" type="curve" smooth="yes"/>
      <point x="192" y="662"/>
      <point x="236" y="620"/>
      <point x="285" y="620" type="curve" smooth="yes"/>
      <point x="317" y="620"/>
      <point x="351" y="640"/>
      <point x="374" y="673" type="curve" smooth="yes"/>
      <point x="394" y="702"/>
      <point x="451" y="870"/>
      <point x="484" y="934" type="curve"/>
      <point x="518" y="867"/>
      <point x="574" y="698"/>
      <point x="592" y="673" type="curve" smooth="yes"/>
      <point x="614" y="642"/>
      <point x="649" y="621"/>
      <point x="682" y="621" type="curve" smooth="yes"/>
      <point x="734" y="621"/>
      <point x="775" y="666"/>
      <point x="775" y="714" type="curve" smooth="yes"/>
      <point x="775" y="738"/>
      <point x="766" y="765"/>
      <point x="748" y="788" type="curve" smooth="yes"/>
      <point x="693" y="860"/>
      <point x="610" y="916"/>
      <point x="548" y="980" type="curve"/>
      <point x="602" y="993"/>
      <point x="767" y="990"/>
      <point x="811" y="1003" type="curve" smooth="yes"/>
      <point x="860" y="1017"/>
      <point x="893" y="1051"/>
      <point x="893" y="1096" type="curve" smooth="yes"/>
      <point x="893" y="1161"/>
      <point x="845" y="1194"/>
      <point x="796" y="1194" type="curve" smooth="yes"/>
      <point x="784" y="1194"/>
      <point x="766" y="1191"/>
      <point x="753" y="1187" type="curve" smooth="yes"/>
      <point x="729" y="1179"/>
      <point x="601" y="1097"/>
      <point x="523" y="1055" type="curve"/>
      <point x="526" y="1080"/>
      <point x="524" y="1064"/>
      <point x="528" y="1086" type="curve" smooth="yes"/>
      <point x="536" y="1138"/>
      <point x="581" y="1308"/>
      <point x="581" y="1336" type="curve" smooth="yes"/>
      <point x="581" y="1400"/>
      <point x="547" y="1449"/>
      <point x="484" y="1449" type="curve" smooth="yes"/>
      <point x="419" y="1449"/>
      <point x="386" y="1400"/>
      <point x="386" y="1336" type="curve" smooth="yes"/>
      <point x="386" y="1308"/>
      <point x="432" y="1138"/>
      <point x="443" y="1056" type="curve"/>
      <point x="360" y="1097"/>
      <point x="242" y="1178"/>
      <point x="213" y="1187" type="curve" smooth="yes"/>
      <point x="197" y="1192"/>
      <point x="184" y="1194"/>
      <point x="170" y="1194" type="curve" smooth="yes"/>
      <point x="121" y="1194"/>
      <point x="72" y="1161"/>
      <point x="72" y="1098" type="curve" smooth="yes"/>
      <point x="72" y="1052"/>
      <point x="107" y="1018"/>
      <point x="154" y="1003" type="curve" smooth="yes"/>
      <point x="195" y="990"/>
      <point x="369" y="994"/>
    </contour>
  </outline>
</glyph>
<glyph name="plus" format="1">
  <advance width="1317"/>
  <unicode hex="002B"/>
  <outline>
    <contour>
      <point x="195" y="496" type="line"/>
      <point x="1122" y="496" type="line"/>
      <point x="1122" y="622" type="line"/>
      <point x="195" y="622" type="line"/>
    </contour>
    <contour>
      <point x="733" y="45" type="line"/>
      <point x="733" y="1032" type="line"/>
      <point x="587" y="1032" type="line"/>
      <point x="587" y="45" type="line"/>
    </contour>
  </outline>
</glyph>
<glyph name="comma" format="1">
  <advance width="552"/>
  <unicode hex="002C"/>
  <outline>
    <contour>
      <point x="249" y="-7" type="curve" smooth="yes"/>
      <point x="246" y="5"/>
      <point x="135" y="-10"/>
      <point x="135" y="111" type="curve" smooth="yes"/>
      <point x="135" y="209"/>
      <point x="205" y="257"/>
      <point x="288" y="257" type="curve" smooth="yes"/>
      <point x="351" y="257"/>
      <point x="430" y="214"/>
      <point x="430" y="52" type="curve" smooth="yes"/>
      <point x="430" y="-110"/>
      <point x="288" y="-310"/>
      <point x="228" y="-352" type="curve" smooth="yes"/>
      <point x="195" y="-375"/>
      <point x="119" y="-345"/>
      <point x="180" y="-281" type="curve" smooth="yes"/>
      <point x="264" y="-193"/>
      <point x="258" y="-45"/>
    </contour>
  </outline>
</glyph>
<glyph name="hyphen" format="1">
  <advance width="766"/>
  <unicode hex="002D"/>
  <outline>
    <contour>
      <point x="104" y="496" type="line"/>
      <point x="661" y="496" type="line"/>
      <point x="661" y="622" type="line"/>
      <point x="104" y="622" type="line"/>
    </contour>
  </outline>
</glyph>
<glyph name="period" format="1">
  <advance width="552"/>
  <unicode hex="002E"/>
  <outline>
    <contour>
      <point x="138" y="122" type="curve" smooth="yes"/>
      <point x="138" y="47"/>
      <point x="199" y="-20"/>
      <point x="278" y="-20" type="curve" smooth="yes"/>
      <point x="357" y="-20"/>
      <point x="419" y="47"/>
      <point x="419" y="122" type="curve" smooth="yes"/>
      <point x="419" y="197"/>
      <point x="357" y="257"/>
      <point x="278" y="257" type="curve" smooth="yes"/>
      <point x="199" y="257"/>
      <point x="138" y="197"/>
    </contour>
  </outline>
</glyph>
<glyph name="slash" format="1">
  <advance width="960"/>
  <unicode hex="002F"/>
  <outline>
    <contour>
      <point x="649" y="1700" type="line"/>
      <point x="174" y="-340" type="line"/>
      <point x="309" y="-340" type="line"/>
      <point x="786" y="1700" type="line"/>
    </contour>
  </outline>
</glyph>
<glyph name="zero" format="1">
  <advance width="1257"/>
  <unicode hex="0030"/>
  <outline>
    <contour>
      <point x="143" y="582" type="curve" smooth="yes"/>
      <point x="143" y="206"/>
      <point x="320" y="-29"/>
      <point x="626" y="-29" type="curve" smooth="yes"/>
      <point x="932" y="-29"/>
      <point x="1113" y="206"/>
      <point x="1113" y="582" type="curve" smooth="yes"/>
      <point x="1113" y="965"/>
      <point x="939" y="1205"/>
      <point x="633" y="1205" type="curve" smooth="yes"/>
      <point x="327" y="1205"/>
      <point x="143" y="965"/>
    </contour>
    <contour>
      <point x="358" y="582" type="curve" smooth="yes"/>
      <point x="358" y="936"/>
      <point x="415" y="1110"/>
      <point x="625" y="1110" type="curve" smooth="yes"/>
      <point x="834" y="1110"/>
      <point x="896" y="936"/>
      <point x="896" y="582" type="curve" smooth="yes"/>
      <point x="896" y="234"/>
      <point x="838" y="66"/>
      <point x="629" y="66" type="curve" smooth="yes"/>
      <point x="419" y="66"/>
      <point x="358" y="234"/>
    </contour>
  </outline>
</glyph>
<glyph name="one" format="1">
  <advance width="880"/>
  <unicode hex="0031"/>
  <outline>
    <contour>
      <point x="193" y="984" type="curve" smooth="yes"/>
      <point x="238" y="984"/>
      <point x="323" y="985"/>
      <point x="380" y="994" type="curve"/>
      <point x="379" y="142" type="line" smooth="yes"/>
      <point x="379" y="98"/>
      <point x="308" y="83"/>
      <point x="244" y="78" type="curve"/>
      <point x="218" y="75"/>
      <point x="211" y="62"/>
      <point x="211" y="41" type="curve" smooth="yes"/>
      <point x="211" y="26"/>
      <point x="222" y="0"/>
      <point x="245" y="0" type="curve" smooth="yes"/>
      <point x="720" y="0" type="line" smooth="yes"/>
      <point x="743" y="0"/>
      <point x="754" y="26"/>
      <point x="754" y="41" type="curve" smooth="yes"/>
      <point x="754" y="71"/>
      <point x="746" y="75"/>
      <point x="718" y="78" type="curve" smooth="yes"/>
      <point x="657" y="83"/>
      <point x="576" y="89"/>
      <point x="576" y="175" type="curve" smooth="yes"/>
      <point x="577" y="1189" type="line"/>
      <point x="508" y="1189" type="line"/>
      <point x="416" y="1116"/>
      <point x="256" y="1077"/>
      <point x="195" y="1072" type="curve" smooth="yes"/>
      <point x="167" y="1069"/>
      <point x="159" y="1045"/>
      <point x="159" y="1015" type="curve" smooth="yes"/>
      <point x="159" y="1000"/>
      <point x="170" y="984"/>
    </contour>
  </outline>
</glyph>
<glyph name="two" format="1">
  <advance width="1144"/>
  <unicode hex="0032"/>
  <outline>
    <contour>
      <point x="574" y="1109" type="curve" smooth="yes"/>
      <point x="764" y="1109"/>
      <point x="812" y="951"/>
      <point x="812" y="850" type="curve" smooth="yes"/>
      <point x="812" y="587"/>
      <point x="493" y="285"/>
      <point x="181" y="75" type="curve"/>
      <point x="180" y="0" type="line"/>
      <point x="1047" y="0" type="line"/>
      <point x="1057" y="165" type="line"/>
      <point x="434" y="165" type="line"/>
      <point x="393" y="117" type="line"/>
      <point x="627" y="266"/>
      <point x="1021" y="571"/>
      <point x="1021" y="851" type="curve" smooth="yes"/>
      <point x="1021" y="1079"/>
      <point x="855" y="1205"/>
      <point x="589" y="1205" type="curve" smooth="yes"/>
      <point x="383" y="1205"/>
      <point x="220" y="1080"/>
      <point x="180" y="960" type="curve" smooth="yes"/>
      <point x="129" y="806"/>
      <point x="247" y="774"/>
      <point x="292" y="774" type="curve" smooth="yes"/>
      <point x="332" y="774"/>
      <point x="352" y="808"/>
      <point x="359" y="849" type="curve" smooth="yes"/>
      <point x="366" y="889"/>
      <point x="375" y="950"/>
      <point x="386" y="1002" type="curve"/>
      <point x="413" y="1045"/>
      <point x="425" y="1109"/>
    </contour>
  </outline>
</glyph>
<glyph name="three" format="1">
  <advance width="1130"/>
  <unicode hex="0033"/>
  <outline>
    <contour>
      <point x="488" y="505" type="curve"/>
      <point x="425" y="505" type="line"/>
      <point x="425" y="391" type="line"/>
      <point x="488" y="391" type="line"/>
      <point x="591" y="391"/>
      <point x="849" y="325"/>
      <point x="849" y="46" type="curve" smooth="yes"/>
      <point x="849" y="-179"/>
      <point x="721" y="-299"/>
      <point x="531" y="-299" type="curve" smooth="yes"/>
      <point x="273" y="-299"/>
      <point x="271" y="-91"/>
      <point x="271" y="-91" type="curve" smooth="yes"/>
      <point x="245" y="-91"/>
      <point x="213" y="-114"/>
      <point x="213" y="-117" type="curve" smooth="yes"/>
      <point x="213" y="-123"/>
      <point x="268" y="-239"/>
      <point x="275" y="-214" type="curve" smooth="yes"/>
      <point x="284" y="-181"/>
      <point x="327" y="-42"/>
      <point x="334" y="-13" type="curve" smooth="yes"/>
      <point x="349" y="51"/>
      <point x="285" y="90"/>
      <point x="242" y="90" type="curve" smooth="yes"/>
      <point x="180" y="90"/>
      <point x="113" y="22"/>
      <point x="113" y="-68" type="curve" smooth="yes"/>
      <point x="113" y="-303"/>
      <point x="370" y="-394"/>
      <point x="546" y="-394" type="curve" smooth="yes"/>
      <point x="840" y="-394"/>
      <point x="1046" y="-211"/>
      <point x="1046" y="63" type="curve" smooth="yes"/>
      <point x="1046" y="363"/>
      <point x="834" y="454"/>
      <point x="654" y="456" type="curve"/>
      <point x="785" y="486"/>
      <point x="983" y="634"/>
      <point x="983" y="840" type="curve" smooth="yes"/>
      <point x="983" y="1068"/>
      <point x="821" y="1205"/>
      <point x="569" y="1205" type="curve" smooth="yes"/>
      <point x="363" y="1205"/>
      <point x="197" y="1080"/>
      <point x="157" y="960" type="curve" smooth="yes"/>
      <point x="106" y="806"/>
      <point x="227" y="774"/>
      <point x="272" y="774" type="curve" smooth="yes"/>
      <point x="312" y="774"/>
      <point x="332" y="808"/>
      <point x="339" y="849" type="curve" smooth="yes"/>
      <point x="346" y="889"/>
      <point x="355" y="950"/>
      <point x="366" y="1002" type="curve"/>
      <point x="393" y="1045"/>
      <point x="405" y="1109"/>
      <point x="554" y="1109" type="curve" smooth="yes"/>
      <point x="744" y="1109"/>
      <point x="774" y="922"/>
      <point x="774" y="821" type="curve" smooth="yes"/>
      <point x="774" y="606"/>
      <point x="589" y="506"/>
    </contour>
  </outline>
</glyph>
<glyph name="four" format="1">
  <advance width="1157"/>
  <unicode hex="0034"/>
  <outline>
    <contour>
      <point x="839" y="1186" type="line"/>
      <point x="854" y="1209"/>
      <point x="821" y="1298"/>
      <point x="767" y="1319" type="curve" smooth="yes"/>
      <point x="709" y="1341"/>
      <point x="674" y="1310"/>
      <point x="667" y="1294" type="curve"/>
      <point x="44" y="87" type="line"/>
      <point x="74" y="0" type="line"/>
      <point x="1097" y="0" type="line"/>
      <point x="1107" y="164" type="line"/>
      <point x="225" y="164" type="line"/>
    </contour>
    <contour>
      <point x="712" y="-384" type="line"/>
      <point x="875" y="-384" type="line"/>
      <point x="875" y="556" type="line"/>
      <point x="712" y="546" type="line"/>
    </contour>
  </outline>
</glyph>
<glyph name="five" format="1">
  <advance width="1082"/>
  <unicode hex="0035"/>
  <outline>
    <contour>
      <point x="451" y="-297" type="curve" smooth="yes"/>
      <point x="307" y="-285"/>
      <point x="283" y="-230"/>
      <point x="283" y="-230" type="curve"/>
      <point x="269" y="-197"/>
      <point x="245" y="-100"/>
      <point x="234" y="-52" type="curve" smooth="yes"/>
      <point x="225" y="-4"/>
      <point x="208" y="23"/>
      <point x="156" y="23" type="curve" smooth="yes"/>
      <point x="100" y="23"/>
      <point x="27" y="-34"/>
      <point x="83" y="-188" type="curve" smooth="yes"/>
      <point x="126" y="-308"/>
      <point x="304" y="-392"/>
      <point x="450" y="-392" type="curve" smooth="yes"/>
      <point x="749" y="-392"/>
      <point x="1006" y="-169"/>
      <point x="1009" y="180" type="curve" smooth="yes"/>
      <point x="1012" y="444"/>
      <point x="850" y="627"/>
      <point x="564" y="627" type="curve" smooth="yes"/>
      <point x="485" y="627"/>
      <point x="375" y="602"/>
      <point x="304" y="564" type="curve"/>
      <point x="360" y="1020" type="line"/>
      <point x="952" y="1020" type="line"/>
      <point x="962" y="1189" type="line"/>
      <point x="244" y="1189" type="line"/>
      <point x="163" y="413" type="line"/>
      <point x="231" y="380" type="line"/>
      <point x="293" y="477"/>
      <point x="428" y="516"/>
      <point x="532" y="516" type="curve" smooth="yes"/>
      <point x="678" y="516"/>
      <point x="793" y="402"/>
      <point x="789" y="158" type="curve" smooth="yes"/>
      <point x="786" y="-69"/>
      <point x="678" y="-316"/>
    </contour>
  </outline>
</glyph>
<glyph name="six" format="1">
  <advance width="1159"/>
  <unicode hex="0036"/>
  <outline>
    <contour>
      <point x="315" y="649" type="line"/>
      <point x="370" y="729"/>
      <point x="484" y="815"/>
      <point x="624" y="815" type="curve" smooth="yes"/>
      <point x="788" y="815"/>
      <point x="860" y="676"/>
      <point x="860" y="472" type="curve" smooth="yes"/>
      <point x="860" y="222"/>
      <point x="802" y="66"/>
      <point x="593" y="66" type="curve" smooth="yes"/>
      <point x="383" y="66"/>
      <point x="322" y="222"/>
      <point x="322" y="472" type="curve" smooth="yes"/>
      <point x="322" y="733"/>
      <point x="351" y="1294"/>
      <point x="950" y="1437" type="curve"/>
      <point x="949" y="1529" type="line"/>
      <point x="340" y="1437"/>
      <point x="110" y="915"/>
      <point x="110" y="522" type="curve" smooth="yes"/>
      <point x="110" y="245"/>
      <point x="291" y="-29"/>
      <point x="597" y="-29" type="curve" smooth="yes"/>
      <point x="903" y="-29"/>
      <point x="1077" y="195"/>
      <point x="1077" y="472" type="curve" smooth="yes"/>
      <point x="1077" y="729"/>
      <point x="953" y="933"/>
      <point x="650" y="933" type="curve" smooth="yes"/>
      <point x="423" y="933"/>
      <point x="347" y="786"/>
      <point x="287" y="726" type="curve"/>
    </contour>
  </outline>
</glyph>
<glyph name="seven" format="1">
  <advance width="1029"/>
  <unicode hex="0037"/>
  <outline>
    <contour>
      <point x="252" y="-382" type="line"/>
      <point x="474" y="-383" type="line"/>
      <point x="1026" y="1122" type="line"/>
      <point x="973" y="1189" type="line"/>
      <point x="136" y="1190" type="line"/>
      <point x="101" y="786" type="line"/>
      <point x="101" y="763"/>
      <point x="127" y="752"/>
      <point x="142" y="752" type="curve" smooth="yes"/>
      <point x="163" y="752"/>
      <point x="186" y="759"/>
      <point x="189" y="785" type="curve" smooth="yes"/>
      <point x="194" y="824"/>
      <point x="251" y="1028"/>
      <point x="373" y="1028" type="curve"/>
      <point x="869" y="1028" type="line"/>
    </contour>
  </outline>
</glyph>
<glyph name="eight" format="1">
  <advance width="1221"/>
  <unicode hex="0038"/>
  <outline>
    <contour>
      <point x="605" y="621" type="curve" smooth="yes"/>
      <point x="735" y="551"/>
      <point x="887" y="488"/>
      <point x="887" y="314" type="curve" smooth="yes"/>
      <point x="887" y="159"/>
      <point x="790" y="65"/>
      <point x="620" y="65" type="curve" smooth="yes"/>
      <point x="393" y="65"/>
      <point x="329" y="251"/>
      <point x="329" y="362" type="curve" smooth="yes"/>
      <point x="329" y="545"/>
      <point x="410" y="658"/>
      <point x="522" y="698" type="curve"/>
      <point x="504" y="766" type="line"/>
      <point x="374" y="750"/>
      <point x="140" y="617"/>
      <point x="140" y="373" type="curve" smooth="yes"/>
      <point x="140" y="154"/>
      <point x="297" y="-30"/>
      <point x="617" y="-30" type="curve" smooth="yes"/>
      <point x="934" y="-30"/>
      <point x="1084" y="146"/>
      <point x="1084" y="358" type="curve" smooth="yes"/>
      <point x="1084" y="608"/>
      <point x="869" y="722"/>
      <point x="665" y="830" type="curve" smooth="yes"/>
      <point x="483" y="927"/>
      <point x="407" y="1001"/>
      <point x="407" y="1107" type="curve" smooth="yes"/>
      <point x="407" y="1260"/>
      <point x="479" y="1354"/>
      <point x="624" y="1354" type="curve" smooth="yes"/>
      <point x="786" y="1354"/>
      <point x="845" y="1233"/>
      <point x="845" y="1102" type="curve" smooth="yes"/>
      <point x="845" y="887"/>
      <point x="762" y="817"/>
      <point x="662" y="776" type="curve"/>
      <point x="680" y="708" type="line"/>
      <point x="799" y="729"/>
      <point x="1031" y="871"/>
      <point x="1031" y="1091" type="curve" smooth="yes"/>
      <point x="1031" y="1285"/>
      <point x="916" y="1449"/>
      <point x="627" y="1449" type="curve" smooth="yes"/>
      <point x="362" y="1449"/>
      <point x="210" y="1265"/>
      <point x="210" y="1102" type="curve" smooth="yes"/>
      <point x="210" y="858"/>
      <point x="411" y="726"/>
    </contour>
  </outline>
</glyph>
<glyph name="less" format="1">
  <advance width="1317"/>
  <unicode hex="003C"/>
  <outline>
    <contour>
      <point x="1112" y="1091" type="line"/>
      <point x="194" y="614" type="line"/>
      <point x="194" y="495" type="line"/>
      <point x="1112" y="20" type="line"/>
      <point x="1112" y="164" type="line"/>
      <point x="342" y="554" type="line"/>
      <point x="1112" y="945" type="line"/>
    </contour>
  </outline>
</glyph>
<glyph name="equal" format="1">
  <advance width="1317"/>
  <unicode hex="003D"/>
  <outline>
    <contour>
      <point x="193" y="740" type="line"/>
      <point x="1123" y="740" type="line"/>
      <point x="1123" y="886" type="line"/>
      <point x="193" y="886" type="line"/>
    </contour>
    <contour>
      <point x="193" y="222" type="line"/>
      <point x="1123" y="222" type="line"/>
      <point x="1123" y="368" type="line"/>
      <point x="193" y="368" type="line"/>
    </contour>
  </outline>
</glyph>
<glyph name="question" format="1">
  <advance width="980"/>
  <unicode hex="003F"/>
  <outline>
    <contour>
      <point x="469" y="1443" type="curve" smooth="yes"/>
      <point x="667" y="1443"/>
      <point x="711" y="1211"/>
      <point x="711" y="1086" type="curve" smooth="yes"/>
      <point x="711" y="837"/>
      <point x="502" y="714"/>
      <point x="387" y="706" type="curve"/>
      <point x="387" y="377" type="line"/>
      <point x="499" y="377" type="line"/>
      <point x="499" y="598" type="line"/>
      <point x="704" y="644"/>
      <point x="920" y="823"/>
      <point x="920" y="1097" type="curve" smooth="yes"/>
      <point x="920" y="1317"/>
      <point x="804" y="1528"/>
      <point x="486" y="1528" type="curve" smooth="yes"/>
      <point x="252" y="1528"/>
      <point x="107" y="1402"/>
      <point x="62" y="1284" type="curve" smooth="yes"/>
      <point x="4" y="1135"/>
      <point x="99" y="1079"/>
      <point x="154" y="1079" type="curve" smooth="yes"/>
      <point x="197" y="1079"/>
      <point x="217" y="1087"/>
      <point x="224" y="1117" type="curve"/>
      <point x="265" y="1347" type="line"/>
      <point x="265" y="1347"/>
      <point x="327" y="1443"/>
    </contour>
    <contour>
      <point x="309" y="122" type="curve" smooth="yes"/>
      <point x="309" y="47"/>
      <point x="370" y="-20"/>
      <point x="449" y="-20" type="curve" smooth="yes"/>
      <point x="528" y="-20"/>
      <point x="590" y="47"/>
      <point x="590" y="122" type="curve" smooth="yes"/>
      <point x="590" y="197"/>
      <point x="528" y="257"/>
      <point x="449" y="257" type="curve" smooth="yes"/>
      <point x="370" y="257"/>
      <point x="309" y="197"/>
    </contour>
  </outline>
</glyph>
<glyph name="at" format="1">
  <advance width="1902"/>
  <unicode hex="0040"/>
  <outline>
    <contour>
      <point x="1037" y="1280" type="curve" smooth="yes"/>
      <point x="1332" y="1280"/>
      <point x="1645" y="1104"/>
      <point x="1645" y="714" type="curve" smooth="yes"/>
      <point x="1645" y="349"/>
      <point x="1396" y="201"/>
      <point x="1291" y="201" type="curve" smooth="yes"/>
      <point x="1180" y="201"/>
      <point x="1202" y="332"/>
      <point x="1212" y="369" type="curve" smooth="yes"/>
      <point x="1372" y="956" type="line"/>
      <point x="1200" y="956" type="line"/>
      <point x="1174" y="838" type="line"/>
      <point x="1163" y="903"/>
      <point x="1125" y="983"/>
      <point x="1002" y="983" type="curve" smooth="yes"/>
      <point x="709" y="983"/>
      <point x="544" y="630"/>
      <point x="562" y="392" type="curve" smooth="yes"/>
      <point x="580" y="154"/>
      <point x="704" y="120"/>
      <point x="824" y="120" type="curve" smooth="yes"/>
      <point x="884" y="120"/>
      <point x="955" y="148"/>
      <point x="1005" y="199" type="curve" smooth="yes"/>
      <point x="1033" y="227"/>
      <point x="1044" y="245"/>
      <point x="1050" y="259" type="curve"/>
      <point x="1062" y="190"/>
      <point x="1130" y="112"/>
      <point x="1273" y="112" type="curve" smooth="yes"/>
      <point x="1428" y="112"/>
      <point x="1747" y="275"/>
      <point x="1747" y="714" type="curve" smooth="yes"/>
      <point x="1747" y="1176"/>
      <point x="1367" y="1378"/>
      <point x="1043" y="1378" type="curve" smooth="yes"/>
      <point x="604" y="1378"/>
      <point x="155" y="1090"/>
      <point x="155" y="482" type="curve" smooth="yes"/>
      <point x="155" y="-127"/>
      <point x="648" y="-322"/>
      <point x="990" y="-322" type="curve" smooth="yes"/>
      <point x="1333" y="-322"/>
      <point x="1568" y="-94"/>
      <point x="1568" y="-94" type="curve"/>
      <point x="1491" y="-40" type="line"/>
      <point x="1491" y="-40"/>
      <point x="1345" y="-227"/>
      <point x="991" y="-227" type="curve" smooth="yes"/>
      <point x="778" y="-227"/>
      <point x="282" y="-136"/>
      <point x="282" y="492" type="curve" smooth="yes"/>
      <point x="282" y="1101"/>
      <point x="745" y="1280"/>
    </contour>
    <contour>
      <point x="1047" y="386" type="line"/>
      <point x="1047" y="386"/>
      <point x="952" y="211"/>
      <point x="850" y="211" type="curve" smooth="yes"/>
      <point x="748" y="211"/>
      <point x="765" y="329"/>
      <point x="761" y="383" type="curve" smooth="yes"/>
      <point x="757" y="437"/>
      <point x="805" y="894"/>
      <point x="1009" y="894" type="curve" smooth="yes"/>
      <point x="1117" y="894"/>
      <point x="1117" y="788"/>
      <point x="1128" y="726" type="curve"/>
    </contour>
  </outline>
</glyph>
<glyph name="A" format="1">
  <advance width="1374"/>
  <unicode hex="0041"/>
  <outline>
    <contour>
      <point x="1001" y="132" type="line"/>
      <point x="1018" y="85"/>
      <point x="958" y="93"/>
      <point x="867" y="88" type="curve"/>
      <point x="841" y="85"/>
      <point x="834" y="72"/>
      <point x="834" y="51" type="curve" smooth="yes"/>
      <point x="834" y="36"/>
      <point x="845" y="0"/>
      <point x="868" y="0" type="curve" smooth="yes"/>
      <point x="1369" y="0" type="line" smooth="yes"/>
      <point x="1391" y="0"/>
      <point x="1403" y="36"/>
      <point x="1403" y="51" type="curve" smooth="yes"/>
      <point x="1403" y="81"/>
      <point x="1395" y="85"/>
      <point x="1367" y="88" type="curve" smooth="yes"/>
      <point x="1318" y="93"/>
      <point x="1249" y="77"/>
      <point x="1216" y="165" type="curve" smooth="yes"/>
      <point x="757" y="1441" type="line"/>
      <point x="612" y="1441" type="line"/>
      <point x="636" y="1187" type="line"/>
    </contour>
    <contour>
      <point x="643" y="1187" type="line"/>
      <point x="612" y="1441" type="line"/>
      <point x="163" y="165" type="line" smooth="yes"/>
      <point x="130" y="77"/>
      <point x="59" y="93"/>
      <point x="10" y="88" type="curve" smooth="yes"/>
      <point x="-18" y="85"/>
      <point x="-26" y="81"/>
      <point x="-26" y="51" type="curve" smooth="yes"/>
      <point x="-26" y="36"/>
      <point x="-14" y="0"/>
      <point x="8" y="0" type="curve" smooth="yes"/>
      <point x="431" y="0" type="line" smooth="yes"/>
      <point x="454" y="0"/>
      <point x="465" y="36"/>
      <point x="465" y="51" type="curve" smooth="yes"/>
      <point x="465" y="72"/>
      <point x="458" y="85"/>
      <point x="432" y="88" type="curve"/>
      <point x="341" y="93"/>
      <point x="272" y="85"/>
      <point x="288" y="132" type="curve"/>
    </contour>
    <contour>
      <point x="336" y="494" type="line"/>
      <point x="1033" y="494" type="line"/>
      <point x="1033" y="580" type="line"/>
      <point x="336" y="580" type="line"/>
    </contour>
    <contour>
      <point x="689" y="2000" type="move" name="top"/>
    </contour>
    <contour>
      <point x="689" y="-200" type="move" name="btm"/>
    </contour>
  </outline>
</glyph>
<glyph name="B" format="1">
  <advance width="1339"/>
  <unicode hex="0042"/>
  <outline>
    <contour>
      <point x="495" y="1347" type="line"/>
      <point x="543" y="1395" type="line"/>
      <point x="463" y="1419" type="line"/>
      <point x="105" y="1419" type="line" smooth="yes"/>
      <point x="82" y="1419"/>
      <point x="71" y="1383"/>
      <point x="71" y="1368" type="curve" smooth="yes"/>
      <point x="71" y="1338"/>
      <point x="79" y="1334"/>
      <point x="107" y="1331" type="curve" smooth="yes"/>
      <point x="180" y="1326"/>
      <point x="289" y="1320"/>
      <point x="289" y="1234" type="curve" smooth="yes"/>
      <point x="288" y="152" type="line" smooth="yes"/>
      <point x="288" y="108"/>
      <point x="192" y="93"/>
      <point x="113" y="88" type="curve" smooth="yes"/>
      <point x="87" y="85"/>
      <point x="80" y="72"/>
      <point x="80" y="51" type="curve" smooth="yes"/>
      <point x="80" y="36"/>
      <point x="91" y="0"/>
      <point x="114" y="0" type="curve" smooth="yes"/>
      <point x="609" y="0" type="line" smooth="yes"/>
      <point x="631" y="0"/>
      <point x="643" y="16"/>
      <point x="643" y="31" type="curve" smooth="yes"/>
      <point x="643" y="61"/>
      <point x="635" y="65"/>
      <point x="607" y="68" type="curve" smooth="yes"/>
      <point x="558" y="73"/>
      <point x="495" y="19"/>
      <point x="495" y="105" type="curve" smooth="yes"/>
    </contour>
    <contour>
      <point x="463" y="1419" type="line"/>
      <point x="455" y="1322" type="line"/>
      <point x="455" y="1322"/>
      <point x="479" y="1322"/>
      <point x="588" y="1322" type="curve" smooth="yes"/>
      <point x="762" y="1322"/>
      <point x="949" y="1277"/>
      <point x="949" y="1073" type="curve" smooth="yes"/>
      <point x="949" y="847"/>
      <point x="769" y="817"/>
      <point x="651" y="817" type="curve" smooth="yes"/>
      <point x="566" y="817"/>
      <point x="450" y="817"/>
      <point x="450" y="817" type="curve"/>
      <point x="450" y="817"/>
      <point x="450" y="721"/>
      <point x="450" y="721" type="curve"/>
      <point x="450" y="721"/>
      <point x="555" y="721"/>
      <point x="654" y="721" type="curve" smooth="yes"/>
      <point x="743" y="721"/>
      <point x="1026" y="713"/>
      <point x="1026" y="418" type="curve" smooth="yes"/>
      <point x="1026" y="141"/>
      <point x="802" y="101"/>
      <point x="658" y="101" type="curve" smooth="yes"/>
      <point x="503" y="101"/>
      <point x="495" y="138"/>
      <point x="495" y="138" type="curve"/>
      <point x="495" y="138"/>
      <point x="455" y="0"/>
      <point x="455" y="0" type="curve"/>
      <point x="455" y="0"/>
      <point x="538" y="0"/>
      <point x="727" y="0" type="curve" smooth="yes"/>
      <point x="966" y="0"/>
      <point x="1242" y="124"/>
      <point x="1242" y="416" type="curve" smooth="yes"/>
      <point x="1242" y="677"/>
      <point x="1033" y="758"/>
      <point x="869" y="776" type="curve"/>
      <point x="1019" y="806"/>
      <point x="1157" y="913"/>
      <point x="1157" y="1100" type="curve" smooth="yes"/>
      <point x="1157" y="1349"/>
      <point x="886" y="1419"/>
      <point x="645" y="1419" type="curve"/>
    </contour>
    <contour>
      <point x="656" y="-200" type="move" name="btm"/>
    </contour>
    <contour>
      <point x="656" y="2000" type="move" name="top"/>
    </contour>
  </outline>
</glyph>
<glyph name="C" format="1">
  <advance width="1315"/>
  <unicode hex="0043"/>
  <outline>
    <contour>
      <point x="752" y="1353" type="curve" smooth="yes"/>
      <point x="988" y="1354"/>
      <point x="1110" y="1207"/>
      <point x="1157" y="1039" type="curve"/>
      <point x="1161" y="1013"/>
      <point x="1181" y="1008"/>
      <point x="1203" y="1011" type="curve" smooth="yes"/>
      <point x="1219" y="1013"/>
      <point x="1242" y="1028"/>
      <point x="1239" y="1051" type="curve"/>
      <point x="1217" y="1361" type="line"/>
      <point x="1146" y="1392"/>
      <point x="1019" y="1449"/>
      <point x="754" y="1449" type="curve" smooth="yes"/>
      <point x="466" y="1449"/>
      <point x="78" y="1235"/>
      <point x="78" y="706" type="curve" smooth="yes"/>
      <point x="78" y="144"/>
      <point x="444" y="-30"/>
      <point x="765" y="-30" type="curve" smooth="yes"/>
      <point x="1018" y="-30"/>
      <point x="1192" y="80"/>
      <point x="1196" y="108" type="curve" smooth="yes"/>
      <point x="1228" y="372" type="line"/>
      <point x="1228" y="395"/>
      <point x="1183" y="406"/>
      <point x="1167" y="406" type="curve" smooth="yes"/>
      <point x="1145" y="406"/>
      <point x="1135" y="399"/>
      <point x="1130" y="373" type="curve" smooth="yes"/>
      <point x="1098" y="200"/>
      <point x="996" y="65"/>
      <point x="764" y="65" type="curve" smooth="yes"/>
      <point x="605" y="65"/>
      <point x="327" y="152"/>
      <point x="327" y="706" type="curve" smooth="yes"/>
      <point x="327" y="1289"/>
      <point x="581" y="1353"/>
    </contour>
    <contour>
      <point x="737" y="2000" type="move" name="top"/>
    </contour>
    <contour>
      <point x="761" y="-200" type="move" name="btm"/>
    </contour>
  </outline>
</glyph>
<glyph name="D" format="1">
  <advance width="1534"/>
  <unicode hex="0044"/>
  <outline>
    <contour>
      <point x="496" y="1342" type="line"/>
      <point x="600" y="1419" type="line"/>
      <point x="135" y="1419" type="line" smooth="yes"/>
      <point x="112" y="1419"/>
      <point x="101" y="1383"/>
      <point x="101" y="1368" type="curve" smooth="yes"/>
      <point x="101" y="1338"/>
      <point x="109" y="1334"/>
      <point x="137" y="1331" type="curve" smooth="yes"/>
      <point x="198" y="1326"/>
      <point x="289" y="1320"/>
      <point x="289" y="1234" type="curve" smooth="yes"/>
      <point x="288" y="152" type="line" smooth="yes"/>
      <point x="288" y="108"/>
      <point x="207" y="93"/>
      <point x="143" y="88" type="curve" smooth="yes"/>
      <point x="117" y="85"/>
      <point x="110" y="72"/>
      <point x="110" y="51" type="curve" smooth="yes"/>
      <point x="110" y="36"/>
      <point x="121" y="0"/>
      <point x="144" y="0" type="curve" smooth="yes"/>
      <point x="609" y="0" type="line" smooth="yes"/>
      <point x="643" y="0"/>
      <point x="663" y="16"/>
      <point x="663" y="31" type="curve" smooth="yes"/>
      <point x="663" y="61"/>
      <point x="651" y="65"/>
      <point x="607" y="68" type="curve" smooth="yes"/>
      <point x="558" y="73"/>
      <point x="495" y="49"/>
      <point x="495" y="135" type="curve" smooth="yes"/>
    </contour>
    <contour>
      <point x="463" y="1419" type="line"/>
      <point x="460" y="1417"/>
      <point x="446" y="1322"/>
      <point x="446" y="1322" type="curve"/>
      <point x="446" y="1322"/>
      <point x="533" y="1322"/>
      <point x="718" y="1322" type="curve" smooth="yes"/>
      <point x="951" y="1322"/>
      <point x="1209" y="1229"/>
      <point x="1209" y="734" type="curve" smooth="yes"/>
      <point x="1209" y="161"/>
      <point x="941" y="101"/>
      <point x="698" y="101" type="curve" smooth="yes"/>
      <point x="524" y="101"/>
      <point x="495" y="140"/>
      <point x="495" y="168" type="curve"/>
      <point x="495" y="168"/>
      <point x="455" y="0"/>
      <point x="455" y="0" type="curve"/>
      <point x="455" y="0"/>
      <point x="536" y="0"/>
      <point x="767" y="0" type="curve" smooth="yes"/>
      <point x="1067" y="0"/>
      <point x="1455" y="217"/>
      <point x="1455" y="738" type="curve" smooth="yes"/>
      <point x="1455" y="1083"/>
      <point x="1269" y="1417"/>
      <point x="725" y="1419" type="curve"/>
    </contour>
    <contour>
      <point x="788" y="-200" type="move" name="btm"/>
    </contour>
    <contour>
      <point x="788" y="2000" type="move" name="top"/>
    </contour>
  </outline>
</glyph>
<glyph name="E" format="1">
  <advance width="1338"/>
  <unicode hex="0045"/>
  <outline>
    <contour>
      <point x="496" y="1335" type="line"/>
      <point x="600" y="1419" type="line"/>
      <point x="135" y="1419" type="line" smooth="yes"/>
      <point x="112" y="1419"/>
      <point x="101" y="1383"/>
      <point x="101" y="1368" type="curve" smooth="yes"/>
      <point x="101" y="1338"/>
      <point x="109" y="1334"/>
      <point x="137" y="1331" type="curve" smooth="yes"/>
      <point x="198" y="1326"/>
      <point x="289" y="1320"/>
      <point x="289" y="1234" type="curve" smooth="yes"/>
      <point x="288" y="152" type="line" smooth="yes"/>
      <point x="288" y="108"/>
      <point x="207" y="93"/>
      <point x="143" y="88" type="curve" smooth="yes"/>
      <point x="117" y="85"/>
      <point x="110" y="72"/>
      <point x="110" y="51" type="curve" smooth="yes"/>
      <point x="110" y="36"/>
      <point x="121" y="0"/>
      <point x="144" y="0" type="curve" smooth="yes"/>
      <point x="609" y="0" type="line" smooth="yes"/>
      <point x="631" y="0"/>
      <point x="643" y="16"/>
      <point x="643" y="31" type="curve" smooth="yes"/>
      <point x="643" y="61"/>
      <point x="659" y="100"/>
      <point x="607" y="100" type="curve" smooth="yes"/>
      <point x="558" y="100"/>
      <point x="495" y="111"/>
      <point x="495" y="197" type="curve" smooth="yes"/>
    </contour>
    <contour>
      <point x="909" y="1320" type="line" smooth="yes"/>
      <point x="1017" y="1320"/>
      <point x="1110" y="1134"/>
      <point x="1115" y="1093" type="curve" smooth="yes"/>
      <point x="1118" y="1067"/>
      <point x="1147" y="1060"/>
      <point x="1168" y="1060" type="curve" smooth="yes"/>
      <point x="1183" y="1060"/>
      <point x="1209" y="1071"/>
      <point x="1209" y="1094" type="curve" smooth="yes"/>
      <point x="1174" y="1418" type="line"/>
      <point x="600" y="1419" type="line"/>
      <point x="377" y="1320" type="line"/>
    </contour>
    <contour>
      <point x="377" y="101" type="line"/>
      <point x="344" y="1" type="line"/>
      <point x="1253" y="1" type="line"/>
      <point x="1296" y="372" type="line"/>
      <point x="1296" y="395"/>
      <point x="1281" y="406"/>
      <point x="1256" y="406" type="curve" smooth="yes"/>
      <point x="1235" y="406"/>
      <point x="1207" y="398"/>
      <point x="1199" y="373" type="curve" smooth="yes"/>
      <point x="1186" y="332"/>
      <point x="1072" y="101"/>
      <point x="979" y="101" type="curve" smooth="yes"/>
    </contour>
    <contour>
      <point x="768" y="687" type="line" smooth="yes"/>
      <point x="824" y="687"/>
      <point x="864" y="546"/>
      <point x="869" y="503" type="curve" smooth="yes"/>
      <point x="872" y="477"/>
      <point x="900" y="470"/>
      <point x="921" y="470" type="curve" smooth="yes"/>
      <point x="936" y="470"/>
      <point x="962" y="481"/>
      <point x="962" y="504" type="curve" smooth="yes"/>
      <point x="962" y="947" type="line" smooth="yes"/>
      <point x="962" y="970"/>
      <point x="936" y="981"/>
      <point x="921" y="981" type="curve" smooth="yes"/>
      <point x="900" y="981"/>
      <point x="872" y="974"/>
      <point x="869" y="948" type="curve" smooth="yes"/>
      <point x="864" y="908"/>
      <point x="826" y="780"/>
      <point x="774" y="773" type="curve"/>
      <point x="399" y="773" type="line"/>
      <point x="399" y="687" type="line"/>
    </contour>
    <contour>
      <point x="696" y="2000" type="move" name="top"/>
    </contour>
    <contour>
      <point x="696" y="-200" type="move" name="btm"/>
    </contour>
  </outline>
</glyph>
<glyph name="F" format="1">
  <advance width="1227"/>
  <unicode hex="0046"/>
  <outline>
    <contour>
      <point x="495" y="1340" type="line"/>
      <point x="600" y="1419" type="line"/>
      <point x="105" y="1419" type="line" smooth="yes"/>
      <point x="82" y="1419"/>
      <point x="71" y="1383"/>
      <point x="71" y="1368" type="curve" smooth="yes"/>
      <point x="71" y="1338"/>
      <point x="79" y="1334"/>
      <point x="107" y="1331" type="curve" smooth="yes"/>
      <point x="180" y="1326"/>
      <point x="289" y="1320"/>
      <point x="289" y="1234" type="curve" smooth="yes"/>
      <point x="288" y="152" type="line" smooth="yes"/>
      <point x="288" y="108"/>
      <point x="192" y="93"/>
      <point x="113" y="88" type="curve" smooth="yes"/>
      <point x="87" y="85"/>
      <point x="80" y="72"/>
      <point x="80" y="51" type="curve" smooth="yes"/>
      <point x="80" y="36"/>
      <point x="91" y="0"/>
      <point x="114" y="0" type="curve" smooth="yes"/>
      <point x="719" y="0" type="line" smooth="yes"/>
      <point x="742" y="0"/>
      <point x="753" y="36"/>
      <point x="753" y="51" type="curve" smooth="yes"/>
      <point x="753" y="81"/>
      <point x="739" y="88"/>
      <point x="717" y="88" type="curve" smooth="yes"/>
      <point x="632" y="88"/>
      <point x="495" y="111"/>
      <point x="495" y="197" type="curve" smooth="yes"/>
    </contour>
    <contour>
      <point x="874" y="1320" type="line" smooth="yes"/>
      <point x="982" y="1320"/>
      <point x="1077" y="1108"/>
      <point x="1082" y="1069" type="curve" smooth="yes"/>
      <point x="1085" y="1043"/>
      <point x="1104" y="1036"/>
      <point x="1125" y="1036" type="curve" smooth="yes"/>
      <point x="1140" y="1036"/>
      <point x="1166" y="1047"/>
      <point x="1166" y="1070" type="curve" smooth="yes"/>
      <point x="1129" y="1418" type="line"/>
      <point x="570" y="1419" type="line"/>
      <point x="347" y="1320" type="line"/>
    </contour>
    <contour>
      <point x="753" y="655" type="line" smooth="yes"/>
      <point x="809" y="655"/>
      <point x="849" y="514"/>
      <point x="854" y="471" type="curve" smooth="yes"/>
      <point x="857" y="445"/>
      <point x="885" y="438"/>
      <point x="906" y="438" type="curve" smooth="yes"/>
      <point x="921" y="438"/>
      <point x="947" y="449"/>
      <point x="947" y="472" type="curve" smooth="yes"/>
      <point x="947" y="915" type="line" smooth="yes"/>
      <point x="947" y="938"/>
      <point x="921" y="949"/>
      <point x="906" y="949" type="curve" smooth="yes"/>
      <point x="885" y="949"/>
      <point x="857" y="942"/>
      <point x="854" y="916" type="curve" smooth="yes"/>
      <point x="849" y="876"/>
      <point x="811" y="748"/>
      <point x="759" y="741" type="curve"/>
      <point x="399" y="741" type="line"/>
      <point x="399" y="655" type="line"/>
    </contour>
    <contour>
      <point x="620" y="2000" type="move" name="top"/>
    </contour>
    <contour>
      <point x="620" y="-200" type="move" name="btm"/>
    </contour>
  </outline>
</glyph>
<glyph name="G" format="1">
  <advance width="1485"/>
  <unicode hex="0047"/>
  <outline>
    <contour>
      <point x="1083" y="116" type="line"/>
      <point x="1083" y="116"/>
      <point x="1293" y="123"/>
      <point x="1293" y="123" type="curve"/>
      <point x="1286" y="489" type="line" smooth="yes"/>
      <point x="1286" y="533"/>
      <point x="1352" y="548"/>
      <point x="1411" y="553" type="curve" smooth="yes"/>
      <point x="1437" y="556"/>
      <point x="1444" y="569"/>
      <point x="1444" y="590" type="curve" smooth="yes"/>
      <point x="1444" y="605"/>
      <point x="1433" y="641"/>
      <point x="1410" y="641" type="curve" smooth="yes"/>
      <point x="895" y="641" type="line" smooth="yes"/>
      <point x="872" y="641"/>
      <point x="861" y="605"/>
      <point x="861" y="590" type="curve" smooth="yes"/>
      <point x="861" y="560"/>
      <point x="869" y="556"/>
      <point x="897" y="553" type="curve" smooth="yes"/>
      <point x="974" y="548"/>
      <point x="1083" y="542"/>
      <point x="1083" y="456" type="curve" smooth="yes"/>
    </contour>
    <contour>
      <point x="785" y="1353" type="curve" smooth="yes"/>
      <point x="1021" y="1354"/>
      <point x="1143" y="1207"/>
      <point x="1190" y="1039" type="curve"/>
      <point x="1194" y="1013"/>
      <point x="1216" y="1008"/>
      <point x="1238" y="1011" type="curve" smooth="yes"/>
      <point x="1254" y="1013"/>
      <point x="1277" y="1028"/>
      <point x="1274" y="1051" type="curve"/>
      <point x="1252" y="1361" type="line"/>
      <point x="1181" y="1392"/>
      <point x="1052" y="1449"/>
      <point x="787" y="1449" type="curve" smooth="yes"/>
      <point x="491" y="1449"/>
      <point x="88" y="1256"/>
      <point x="88" y="706" type="curve" smooth="yes"/>
      <point x="88" y="153"/>
      <point x="486" y="-30"/>
      <point x="758" y="-30" type="curve" smooth="yes"/>
      <point x="1082" y="-30"/>
      <point x="1261" y="79"/>
      <point x="1293" y="123" type="curve"/>
      <point x="1227" y="280" type="line"/>
      <point x="1155" y="279" type="line" smooth="yes"/>
      <point x="1144" y="279"/>
      <point x="1083" y="207"/>
      <point x="1083" y="199" type="curve"/>
      <point x="1083" y="135"/>
      <point x="1012" y="65"/>
      <point x="804" y="65" type="curve" smooth="yes"/>
      <point x="634" y="65"/>
      <point x="337" y="217"/>
      <point x="337" y="706" type="curve" smooth="yes"/>
      <point x="337" y="1260"/>
      <point x="633" y="1354"/>
    </contour>
    <contour>
      <point x="766" y="-200" type="move" name="btm"/>
    </contour>
    <contour>
      <point x="766" y="2000" type="move" name="top"/>
    </contour>
  </outline>
</glyph>
<glyph name="H" format="1">
  <advance width="1669"/>
  <unicode hex="0048"/>
  <outline>
    <contour>
      <point x="486" y="1267" type="line" smooth="yes"/>
      <point x="486" y="1311"/>
      <point x="567" y="1326"/>
      <point x="631" y="1331" type="curve" smooth="yes"/>
      <point x="657" y="1334"/>
      <point x="664" y="1347"/>
      <point x="664" y="1368" type="curve" smooth="yes"/>
      <point x="664" y="1383"/>
      <point x="653" y="1419"/>
      <point x="630" y="1419" type="curve" smooth="yes"/>
      <point x="135" y="1419" type="line" smooth="yes"/>
      <point x="112" y="1419"/>
      <point x="101" y="1383"/>
      <point x="101" y="1368" type="curve" smooth="yes"/>
      <point x="101" y="1338"/>
      <point x="109" y="1334"/>
      <point x="137" y="1331" type="curve" smooth="yes"/>
      <point x="198" y="1326"/>
      <point x="279" y="1320"/>
      <point x="279" y="1234" type="curve"/>
      <point x="278" y="152" type="line" smooth="yes"/>
      <point x="278" y="108"/>
      <point x="207" y="93"/>
      <point x="143" y="88" type="curve" smooth="yes"/>
      <point x="117" y="85"/>
      <point x="110" y="72"/>
      <point x="110" y="51" type="curve" smooth="yes"/>
      <point x="110" y="36"/>
      <point x="121" y="0"/>
      <point x="144" y="0" type="curve" smooth="yes"/>
      <point x="639" y="0" type="line" smooth="yes"/>
      <point x="662" y="0"/>
      <point x="673" y="36"/>
      <point x="673" y="51" type="curve" smooth="yes"/>
      <point x="673" y="81"/>
      <point x="665" y="85"/>
      <point x="637" y="88" type="curve" smooth="yes"/>
      <point x="576" y="93"/>
      <point x="485" y="99"/>
      <point x="485" y="185" type="curve" smooth="yes"/>
    </contour>
    <contour>
      <point x="1391" y="1267" type="line" smooth="yes"/>
      <point x="1391" y="1311"/>
      <point x="1472" y="1326"/>
      <point x="1536" y="1331" type="curve" smooth="yes"/>
      <point x="1562" y="1334"/>
      <point x="1569" y="1347"/>
      <point x="1569" y="1368" type="curve" smooth="yes"/>
      <point x="1569" y="1383"/>
      <point x="1558" y="1419"/>
      <point x="1535" y="1419" type="curve" smooth="yes"/>
      <point x="1030" y="1419" type="line" smooth="yes"/>
      <point x="1007" y="1419"/>
      <point x="996" y="1383"/>
      <point x="996" y="1368" type="curve" smooth="yes"/>
      <point x="996" y="1338"/>
      <point x="1004" y="1334"/>
      <point x="1032" y="1331" type="curve" smooth="yes"/>
      <point x="1093" y="1326"/>
      <point x="1184" y="1320"/>
      <point x="1184" y="1234" type="curve" smooth="yes"/>
      <point x="1183" y="152" type="line" smooth="yes"/>
      <point x="1183" y="108"/>
      <point x="1102" y="93"/>
      <point x="1038" y="88" type="curve" smooth="yes"/>
      <point x="1012" y="85"/>
      <point x="1005" y="72"/>
      <point x="1005" y="51" type="curve" smooth="yes"/>
      <point x="1005" y="36"/>
      <point x="1016" y="0"/>
      <point x="1039" y="0" type="curve" smooth="yes"/>
      <point x="1544" y="0" type="line" smooth="yes"/>
      <point x="1567" y="0"/>
      <point x="1578" y="36"/>
      <point x="1578" y="51" type="curve" smooth="yes"/>
      <point x="1578" y="81"/>
      <point x="1570" y="85"/>
      <point x="1542" y="88" type="curve" smooth="yes"/>
      <point x="1481" y="93"/>
      <point x="1390" y="99"/>
      <point x="1390" y="185" type="curve" smooth="yes"/>
    </contour>
    <contour>
      <point x="424" y="710" type="line"/>
      <point x="1221" y="710" type="line"/>
      <point x="1221" y="796" type="line"/>
      <point x="424" y="796" type="line"/>
    </contour>
    <contour>
      <point x="834" y="-200" type="move" name="btm"/>
    </contour>
    <contour>
      <point x="834" y="2000" type="move" name="top"/>
    </contour>
  </outline>
</glyph>
<glyph name="I" format="1">
  <advance width="798"/>
  <unicode hex="0049"/>
  <outline>
    <contour>
      <point x="503" y="1267" type="line" smooth="yes"/>
      <point x="503" y="1311"/>
      <point x="584" y="1326"/>
      <point x="648" y="1331" type="curve" smooth="yes"/>
      <point x="674" y="1334"/>
      <point x="681" y="1347"/>
      <point x="681" y="1368" type="curve" smooth="yes"/>
      <point x="681" y="1383"/>
      <point x="670" y="1419"/>
      <point x="647" y="1419" type="curve" smooth="yes"/>
      <point x="142" y="1419" type="line" smooth="yes"/>
      <point x="119" y="1419"/>
      <point x="108" y="1383"/>
      <point x="108" y="1368" type="curve" smooth="yes"/>
      <point x="108" y="1338"/>
      <point x="116" y="1334"/>
      <point x="144" y="1331" type="curve" smooth="yes"/>
      <point x="205" y="1326"/>
      <point x="296" y="1320"/>
      <point x="296" y="1234" type="curve" smooth="yes"/>
      <point x="295" y="152" type="line" smooth="yes"/>
      <point x="295" y="108"/>
      <point x="214" y="93"/>
      <point x="150" y="88" type="curve" smooth="yes"/>
      <point x="124" y="85"/>
      <point x="117" y="72"/>
      <point x="117" y="51" type="curve" smooth="yes"/>
      <point x="117" y="36"/>
      <point x="128" y="0"/>
      <point x="151" y="0" type="curve" smooth="yes"/>
      <point x="656" y="0" type="line" smooth="yes"/>
      <point x="679" y="0"/>
      <point x="690" y="36"/>
      <point x="690" y="51" type="curve" smooth="yes"/>
      <point x="690" y="81"/>
      <point x="682" y="85"/>
      <point x="654" y="88" type="curve" smooth="yes"/>
      <point x="593" y="93"/>
      <point x="502" y="99"/>
      <point x="502" y="185" type="curve" smooth="yes"/>
    </contour>
    <contour>
      <point x="399" y="2000" type="move" name="top"/>
    </contour>
    <contour>
      <point x="399" y="-200" type="move" name="btm"/>
    </contour>
  </outline>
</glyph>
<glyph name="J" format="1">
  <advance width="1060"/>
  <unicode hex="004A"/>
  <outline>
    <contour>
      <point x="849" y="1267" type="line" smooth="yes"/>
      <point x="849" y="1311"/>
      <point x="916" y="1326"/>
      <point x="975" y="1331" type="curve" smooth="yes"/>
      <point x="1001" y="1334"/>
      <point x="1008" y="1347"/>
      <point x="1008" y="1368" type="curve" smooth="yes"/>
      <point x="1008" y="1383"/>
      <point x="997" y="1419"/>
      <point x="974" y="1419" type="curve" smooth="yes"/>
      <point x="459" y="1419" type="line" smooth="yes"/>
      <point x="436" y="1419"/>
      <point x="425" y="1383"/>
      <point x="425" y="1368" type="curve" smooth="yes"/>
      <point x="425" y="1338"/>
      <point x="433" y="1334"/>
      <point x="461" y="1331" type="curve" smooth="yes"/>
      <point x="534" y="1326"/>
      <point x="643" y="1320"/>
      <point x="643" y="1234" type="curve" smooth="yes"/>
      <point x="642" y="406" type="line"/>
      <point x="849" y="439" type="line"/>
    </contour>
    <contour>
      <point x="642" y="406" type="line"/>
      <point x="642" y="161"/>
      <point x="558" y="59"/>
      <point x="418" y="59" type="curve" smooth="yes"/>
      <point x="323" y="59"/>
      <point x="252" y="104"/>
      <point x="216" y="152" type="curve"/>
      <point x="182" y="130" type="line"/>
      <point x="209" y="113"/>
      <point x="251" y="88"/>
      <point x="253" y="102" type="curve" smooth="yes"/>
      <point x="266" y="221"/>
      <point x="290" y="398"/>
      <point x="278" y="431" type="curve" smooth="yes"/>
      <point x="266" y="464"/>
      <point x="230" y="471"/>
      <point x="206" y="471" type="curve" smooth="yes"/>
      <point x="153" y="471"/>
      <point x="106" y="427"/>
      <point x="84" y="373" type="curve" smooth="yes"/>
      <point x="55" y="303"/>
      <point x="53" y="171"/>
      <point x="151" y="76" type="curve" smooth="yes"/>
      <point x="239" y="1"/>
      <point x="337" y="-30"/>
      <point x="427" y="-30" type="curve" smooth="yes"/>
      <point x="578" y="-30"/>
      <point x="849" y="48"/>
      <point x="849" y="439" type="curve"/>
      <point x="754" y="467" type="line"/>
    </contour>
    <contour>
      <point x="745" y="2000" type="move" name="top"/>
    </contour>
    <contour>
      <point x="537" y="-200" type="move" name="btm"/>
    </contour>
  </outline>
</glyph>
<glyph name="K" format="1">
  <advance width="1422"/>
  <unicode hex="004B"/>
  <outline>
    <contour>
      <point x="496" y="1267" type="line" smooth="yes"/>
      <point x="496" y="1311"/>
      <point x="567" y="1326"/>
      <point x="631" y="1331" type="curve"/>
      <point x="657" y="1334"/>
      <point x="664" y="1347"/>
      <point x="664" y="1368" type="curve" smooth="yes"/>
      <point x="664" y="1383"/>
      <point x="653" y="1419"/>
      <point x="630" y="1419" type="curve" smooth="yes"/>
      <point x="135" y="1419" type="line" smooth="yes"/>
      <point x="112" y="1419"/>
      <point x="101" y="1383"/>
      <point x="101" y="1368" type="curve" smooth="yes"/>
      <point x="101" y="1338"/>
      <point x="109" y="1334"/>
      <point x="137" y="1331" type="curve" smooth="yes"/>
      <point x="198" y="1326"/>
      <point x="289" y="1320"/>
      <point x="289" y="1234" type="curve" smooth="yes"/>
      <point x="288" y="152" type="line" smooth="yes"/>
      <point x="288" y="108"/>
      <point x="207" y="93"/>
      <point x="143" y="88" type="curve"/>
      <point x="117" y="85"/>
      <point x="110" y="72"/>
      <point x="110" y="51" type="curve" smooth="yes"/>
      <point x="110" y="36"/>
      <point x="121" y="0"/>
      <point x="144" y="0" type="curve" smooth="yes"/>
      <point x="639" y="0" type="line" smooth="yes"/>
      <point x="662" y="0"/>
      <point x="673" y="36"/>
      <point x="673" y="51" type="curve" smooth="yes"/>
      <point x="673" y="81"/>
      <point x="665" y="85"/>
      <point x="637" y="88" type="curve" smooth="yes"/>
      <point x="576" y="93"/>
      <point x="495" y="99"/>
      <point x="495" y="185" type="curve" smooth="yes"/>
    </contour>
    <contour>
      <point x="696" y="708" type="line"/>
      <point x="1159" y="1263" type="line"/>
      <point x="1129" y="1318" type="line"/>
      <point x="1026" y="1276" type="line"/>
      <point x="543" y="692" type="line"/>
    </contour>
    <contour>
      <point x="923" y="1418" type="line" smooth="yes"/>
      <point x="900" y="1418"/>
      <point x="889" y="1382"/>
      <point x="889" y="1367" type="curve" smooth="yes"/>
      <point x="889" y="1346"/>
      <point x="894" y="1333"/>
      <point x="920" y="1330" type="curve" smooth="yes"/>
      <point x="962" y="1326"/>
      <point x="1064" y="1319"/>
      <point x="1026" y="1276" type="curve"/>
      <point x="1159" y="1263" type="line"/>
      <point x="1212" y="1302"/>
      <point x="1288" y="1330"/>
      <point x="1356" y="1330" type="curve" smooth="yes"/>
      <point x="1378" y="1330"/>
      <point x="1389" y="1343"/>
      <point x="1389" y="1367" type="curve" smooth="yes"/>
      <point x="1389" y="1382"/>
      <point x="1378" y="1418"/>
      <point x="1355" y="1418" type="curve" smooth="yes"/>
    </contour>
    <contour>
      <point x="1411" y="0" type="line" smooth="yes"/>
      <point x="1433" y="0"/>
      <point x="1445" y="17"/>
      <point x="1445" y="32" type="curve" smooth="yes"/>
      <point x="1445" y="62"/>
      <point x="1437" y="86"/>
      <point x="1409" y="89" type="curve" smooth="yes"/>
      <point x="1360" y="94"/>
      <point x="1259" y="155"/>
      <point x="1213" y="222" type="curve"/>
      <point x="1090" y="404"/>
      <point x="822" y="765"/>
      <point x="708" y="793" type="curve"/>
      <point x="626" y="758" type="line"/>
      <point x="543" y="692" type="line"/>
      <point x="686" y="674"/>
      <point x="914" y="219"/>
      <point x="1071" y="52" type="curve"/>
      <point x="1102" y="19"/>
      <point x="1121" y="0"/>
      <point x="1196" y="0" type="curve" smooth="yes"/>
    </contour>
    <contour>
      <point x="778" y="-200" type="move" name="btm"/>
    </contour>
    <contour>
      <point x="778" y="2000" type="move" name="top"/>
    </contour>
  </outline>
</glyph>
<glyph name="L" format="1">
  <advance width="1236"/>
  <unicode hex="004C"/>
  <outline>
    <contour>
      <point x="496" y="1237" type="line" smooth="yes"/>
      <point x="496" y="1311"/>
      <point x="585" y="1331"/>
      <point x="651" y="1331" type="curve" smooth="yes"/>
      <point x="677" y="1331"/>
      <point x="684" y="1347"/>
      <point x="684" y="1368" type="curve" smooth="yes"/>
      <point x="684" y="1383"/>
      <point x="673" y="1419"/>
      <point x="650" y="1419" type="curve" smooth="yes"/>
      <point x="135" y="1419" type="line" smooth="yes"/>
      <point x="112" y="1419"/>
      <point x="101" y="1383"/>
      <point x="101" y="1368" type="curve" smooth="yes"/>
      <point x="101" y="1338"/>
      <point x="109" y="1334"/>
      <point x="137" y="1331" type="curve" smooth="yes"/>
      <point x="198" y="1326"/>
      <point x="289" y="1320"/>
      <point x="289" y="1234" type="curve" smooth="yes"/>
      <point x="288" y="152" type="line" smooth="yes"/>
      <point x="288" y="108"/>
      <point x="207" y="93"/>
      <point x="143" y="88" type="curve" smooth="yes"/>
      <point x="117" y="85"/>
      <point x="110" y="72"/>
      <point x="110" y="51" type="curve" smooth="yes"/>
      <point x="110" y="36"/>
      <point x="121" y="0"/>
      <point x="144" y="0" type="curve" smooth="yes"/>
      <point x="609" y="0" type="line" smooth="yes"/>
      <point x="631" y="0"/>
      <point x="643" y="16"/>
      <point x="643" y="31" type="curve" smooth="yes"/>
      <point x="643" y="61"/>
      <point x="639" y="101"/>
      <point x="587" y="101" type="curve" smooth="yes"/>
      <point x="538" y="101"/>
      <point x="495" y="111"/>
      <point x="495" y="177" type="curve" smooth="yes"/>
    </contour>
    <contour>
      <point x="469" y="101" type="line"/>
      <point x="436" y="1" type="line"/>
      <point x="1151" y="1" type="line"/>
      <point x="1210" y="439" type="line" smooth="yes"/>
      <point x="1213" y="462"/>
      <point x="1195" y="473"/>
      <point x="1170" y="473" type="curve" smooth="yes"/>
      <point x="1149" y="473"/>
      <point x="1130" y="464"/>
      <point x="1122" y="440" type="curve" smooth="yes"/>
      <point x="1072" y="296"/>
      <point x="975" y="101"/>
      <point x="882" y="101" type="curve" smooth="yes"/>
    </contour>
    <contour>
      <point x="658" y="-200" type="move" name="btm"/>
    </contour>
    <contour>
      <point x="658" y="2000" type="move" name="top"/>
    </contour>
  </outline>
</glyph>
<glyph name="M" format="1">
  <advance width="1899"/>
  <unicode hex="004D"/>
  <outline>
    <contour>
      <point x="1612" y="1267" type="line" smooth="yes"/>
      <point x="1612" y="1311"/>
      <point x="1693" y="1326"/>
      <point x="1757" y="1331" type="curve"/>
      <point x="1783" y="1334"/>
      <point x="1790" y="1347"/>
      <point x="1790" y="1368" type="curve" smooth="yes"/>
      <point x="1790" y="1383"/>
      <point x="1779" y="1419"/>
      <point x="1756" y="1419" type="curve" smooth="yes"/>
      <point x="1520" y="1419" type="line"/>
      <point x="1360" y="1281" type="line"/>
      <point x="1405" y="1281" type="line"/>
      <point x="1404" y="152" type="line" smooth="yes"/>
      <point x="1404" y="108"/>
      <point x="1313" y="93"/>
      <point x="1249" y="88" type="curve"/>
      <point x="1223" y="85"/>
      <point x="1216" y="72"/>
      <point x="1216" y="51" type="curve" smooth="yes"/>
      <point x="1216" y="36"/>
      <point x="1227" y="0"/>
      <point x="1250" y="0" type="curve" smooth="yes"/>
      <point x="1765" y="0" type="line" smooth="yes"/>
      <point x="1788" y="0"/>
      <point x="1799" y="36"/>
      <point x="1799" y="51" type="curve" smooth="yes"/>
      <point x="1799" y="81"/>
      <point x="1791" y="85"/>
      <point x="1763" y="88" type="curve" smooth="yes"/>
      <point x="1702" y="93"/>
      <point x="1611" y="99"/>
      <point x="1611" y="185" type="curve" smooth="yes"/>
    </contour>
    <contour>
      <point x="95" y="1419" type="line"/>
      <point x="72" y="1418"/>
      <point x="61" y="1383"/>
      <point x="61" y="1368" type="curve" smooth="yes"/>
      <point x="61" y="1338"/>
      <point x="69" y="1334"/>
      <point x="97" y="1331" type="curve"/>
      <point x="170" y="1326"/>
      <point x="278" y="1320"/>
      <point x="278" y="1234" type="curve" smooth="yes"/>
      <point x="278" y="184" type="line" smooth="yes"/>
      <point x="278" y="100"/>
      <point x="182" y="93"/>
      <point x="103" y="88" type="curve"/>
      <point x="77" y="85"/>
      <point x="70" y="72"/>
      <point x="70" y="51" type="curve" smooth="yes"/>
      <point x="70" y="36"/>
      <point x="81" y="0"/>
      <point x="104" y="0" type="curve" smooth="yes"/>
      <point x="569" y="0" type="line" smooth="yes"/>
      <point x="592" y="0"/>
      <point x="603" y="36"/>
      <point x="603" y="51" type="curve" smooth="yes"/>
      <point x="603" y="81"/>
      <point x="595" y="85"/>
      <point x="567" y="88" type="curve"/>
      <point x="494" y="93"/>
      <point x="375" y="99"/>
      <point x="375" y="185" type="curve" smooth="yes"/>
      <point x="375" y="1281" type="line"/>
      <point x="418" y="1281" type="line"/>
      <point x="474" y="1292"/>
      <point x="609" y="1328"/>
      <point x="589" y="1419" type="curve"/>
    </contour>
    <contour>
      <point x="390" y="1339" type="line"/>
      <point x="890" y="0" type="line"/>
      <point x="973" y="164" type="line"/>
      <point x="951" y="366" type="line"/>
      <point x="589" y="1419" type="line"/>
    </contour>
    <contour>
      <point x="891" y="0" type="line"/>
      <point x="941" y="0" type="line"/>
      <point x="1380" y="1291" type="line"/>
      <point x="1518" y="1351" type="line"/>
      <point x="1520" y="1419" type="line"/>
      <point x="1318" y="1419" type="line"/>
      <point x="1308" y="1373"/>
      <point x="1291" y="1326"/>
      <point x="1265" y="1246" type="curve" smooth="yes"/>
      <point x="963" y="366" type="line"/>
      <point x="951" y="366" type="line"/>
    </contour>
    <contour>
      <point x="930" y="-200" type="move" name="btm"/>
    </contour>
    <contour>
      <point x="930" y="2000" type="move" name="top"/>
    </contour>
  </outline>
</glyph>
<glyph name="N" format="1">
  <advance width="1571"/>
  <unicode hex="004E"/>
  <outline>
    <contour>
      <point x="443" y="1419" type="line"/>
      <point x="105" y="1419" type="line" smooth="yes"/>
      <point x="82" y="1419"/>
      <point x="71" y="1383"/>
      <point x="71" y="1368" type="curve" smooth="yes"/>
      <point x="71" y="1338"/>
      <point x="79" y="1334"/>
      <point x="107" y="1331" type="curve" smooth="yes"/>
      <point x="168" y="1326"/>
      <point x="268" y="1320"/>
      <point x="268" y="1234" type="curve" smooth="yes"/>
      <point x="268" y="172" type="line" smooth="yes"/>
      <point x="268" y="108"/>
      <point x="177" y="93"/>
      <point x="113" y="88" type="curve"/>
      <point x="87" y="85"/>
      <point x="80" y="72"/>
      <point x="80" y="51" type="curve" smooth="yes"/>
      <point x="80" y="36"/>
      <point x="91" y="0"/>
      <point x="114" y="0" type="curve" smooth="yes"/>
      <point x="539" y="0" type="line" smooth="yes"/>
      <point x="562" y="0"/>
      <point x="573" y="36"/>
      <point x="573" y="51" type="curve" smooth="yes"/>
      <point x="573" y="81"/>
      <point x="565" y="85"/>
      <point x="537" y="88" type="curve" smooth="yes"/>
      <point x="476" y="93"/>
      <point x="365" y="99"/>
      <point x="365" y="185" type="curve" smooth="yes"/>
      <point x="365" y="1138" type="line"/>
      <point x="433" y="1212" type="line"/>
    </contour>
    <contour>
      <point x="358" y="1130" type="line"/>
      <point x="382" y="1130" type="line"/>
      <point x="1223" y="-8" type="line"/>
      <point x="1328" y="2" type="line"/>
      <point x="1263" y="343" type="line"/>
      <point x="1222" y="343" type="line"/>
      <point x="443" y="1419" type="line"/>
    </contour>
    <contour>
      <point x="1331" y="1234" type="curve" smooth="yes"/>
      <point x="1331" y="1320"/>
      <point x="1445" y="1325"/>
      <point x="1506" y="1331" type="curve" smooth="yes"/>
      <point x="1532" y="1334"/>
      <point x="1539" y="1347"/>
      <point x="1539" y="1368" type="curve" smooth="yes"/>
      <point x="1539" y="1383"/>
      <point x="1528" y="1419"/>
      <point x="1505" y="1419" type="curve" smooth="yes"/>
      <point x="1050" y="1419" type="line" smooth="yes"/>
      <point x="1027" y="1419"/>
      <point x="1016" y="1383"/>
      <point x="1016" y="1368" type="curve" smooth="yes"/>
      <point x="1016" y="1338"/>
      <point x="1024" y="1334"/>
      <point x="1052" y="1331" type="curve" smooth="yes"/>
      <point x="1113" y="1326"/>
      <point x="1234" y="1320"/>
      <point x="1234" y="1234" type="curve" smooth="yes"/>
      <point x="1234" y="297" type="line"/>
      <point x="1213" y="219"/>
      <point x="1152" y="99"/>
      <point x="1223" y="-8" type="curve"/>
      <point x="1233" y="-20"/>
      <point x="1256" y="-30"/>
      <point x="1277" y="-30" type="curve" smooth="yes"/>
      <point x="1305" y="-30"/>
      <point x="1342" y="-16"/>
      <point x="1337" y="40" type="curve" smooth="yes"/>
      <point x="1334" y="78"/>
      <point x="1331" y="88"/>
      <point x="1331" y="113" type="curve" smooth="yes"/>
      <point x="1331" y="186"/>
      <point x="1331" y="163"/>
    </contour>
    <contour>
      <point x="805" y="2000" type="move" name="top"/>
    </contour>
    <contour>
      <point x="805" y="-200" type="move" name="btm"/>
    </contour>
  </outline>
</glyph>
<glyph name="O" format="1">
  <advance width="1524"/>
  <unicode hex="004F"/>
  <outline>
    <contour>
      <point x="94" y="716" type="curve" smooth="yes"/>
      <point x="94" y="306"/>
      <point x="338" y="-29"/>
      <point x="759" y="-29" type="curve" smooth="yes"/>
      <point x="1181" y="-29"/>
      <point x="1430" y="306"/>
      <point x="1430" y="716" type="curve" smooth="yes"/>
      <point x="1430" y="1126"/>
      <point x="1191" y="1449"/>
      <point x="769" y="1449" type="curve" smooth="yes"/>
      <point x="347" y="1449"/>
      <point x="94" y="1126"/>
    </contour>
    <contour>
      <point x="339" y="714" type="curve" smooth="yes"/>
      <point x="339" y="1116"/>
      <point x="425" y="1356"/>
      <point x="758" y="1356" type="curve" smooth="yes"/>
      <point x="1088" y="1356"/>
      <point x="1182" y="1116"/>
      <point x="1182" y="714" type="curve" smooth="yes"/>
      <point x="1182" y="312"/>
      <point x="1094" y="65"/>
      <point x="763" y="65" type="curve" smooth="yes"/>
      <point x="432" y="65"/>
      <point x="339" y="312"/>
    </contour>
    <contour>
      <point x="762" y="2000" type="move" name="top"/>
    </contour>
    <contour>
      <point x="762" y="-200" type="move" name="btm"/>
    </contour>
  </outline>
</glyph>
<glyph name="P" format="1">
  <advance width="1249"/>
  <unicode hex="0050"/>
  <outline>
    <contour>
      <point x="496" y="1357" type="line"/>
      <point x="550" y="1419" type="line"/>
      <point x="135" y="1419" type="line" smooth="yes"/>
      <point x="112" y="1419"/>
      <point x="101" y="1383"/>
      <point x="101" y="1368" type="curve" smooth="yes"/>
      <point x="101" y="1338"/>
      <point x="109" y="1334"/>
      <point x="137" y="1331" type="curve" smooth="yes"/>
      <point x="198" y="1326"/>
      <point x="289" y="1320"/>
      <point x="289" y="1234" type="curve" smooth="yes"/>
      <point x="288" y="152" type="line" smooth="yes"/>
      <point x="288" y="108"/>
      <point x="207" y="93"/>
      <point x="143" y="88" type="curve" smooth="yes"/>
      <point x="117" y="85"/>
      <point x="110" y="72"/>
      <point x="110" y="51" type="curve" smooth="yes"/>
      <point x="110" y="36"/>
      <point x="121" y="0"/>
      <point x="144" y="0" type="curve" smooth="yes"/>
      <point x="699" y="0" type="line" smooth="yes"/>
      <point x="722" y="0"/>
      <point x="733" y="36"/>
      <point x="733" y="51" type="curve" smooth="yes"/>
      <point x="733" y="81"/>
      <point x="725" y="85"/>
      <point x="697" y="88" type="curve" smooth="yes"/>
      <point x="620" y="93"/>
      <point x="495" y="99"/>
      <point x="495" y="185" type="curve" smooth="yes"/>
    </contour>
    <contour>
      <point x="463" y="1419" type="line"/>
      <point x="460" y="1417"/>
      <point x="442" y="1342"/>
      <point x="442" y="1342" type="curve"/>
      <point x="442" y="1342"/>
      <point x="530" y="1342"/>
      <point x="638" y="1342" type="curve" smooth="yes"/>
      <point x="797" y="1342"/>
      <point x="979" y="1265"/>
      <point x="979" y="989" type="curve" smooth="yes"/>
      <point x="979" y="721"/>
      <point x="746" y="641"/>
      <point x="671" y="641" type="curve" smooth="yes"/>
      <point x="594" y="641"/>
      <point x="450" y="641"/>
      <point x="450" y="641" type="curve"/>
      <point x="450" y="641"/>
      <point x="450" y="555"/>
      <point x="450" y="555" type="curve"/>
      <point x="450" y="555"/>
      <point x="585" y="555"/>
      <point x="674" y="555" type="curve" smooth="yes"/>
      <point x="974" y="555"/>
      <point x="1197" y="742"/>
      <point x="1197" y="1010" type="curve" smooth="yes"/>
      <point x="1197" y="1321"/>
      <point x="950" y="1421"/>
      <point x="715" y="1421" type="curve"/>
    </contour>
    <contour>
      <point x="654" y="2000" type="move" name="top"/>
    </contour>
    <contour>
      <point x="654" y="-200" type="move" name="btm"/>
    </contour>
  </outline>
</glyph>
<glyph name="Q" format="1">
  <advance width="1524"/>
  <unicode hex="0051"/>
  <outline>
    <contour>
      <point x="673" y="0" type="curve"/>
      <point x="733" y="-369"/>
      <point x="980" y="-419"/>
      <point x="1202" y="-419" type="curve" smooth="yes"/>
      <point x="1311" y="-419"/>
      <point x="1365" y="-393"/>
      <point x="1365" y="-393" type="curve"/>
      <point x="1365" y="-393"/>
      <point x="1365" y="-323"/>
      <point x="1365" y="-323" type="curve"/>
      <point x="993" y="-330"/>
      <point x="928" y="-76"/>
      <point x="925" y="29" type="curve" smooth="yes"/>
      <point x="925" y="29"/>
      <point x="673" y="0"/>
    </contour>
    <contour>
      <point x="762" y="2000" type="move" name="top"/>
    </contour>
    <contour>
      <point x="762" y="-200" type="move" name="btm"/>
    </contour>
    <component base="O"/>
  </outline>
</glyph>
<glyph name="R" format="1">
  <advance width="1437"/>
  <unicode hex="0052"/>
  <outline>
    <contour>
      <point x="496" y="1363" type="line"/>
      <point x="545" y="1380" type="line"/>
      <point x="463" y="1419" type="line"/>
      <point x="135" y="1419" type="line" smooth="yes"/>
      <point x="112" y="1419"/>
      <point x="101" y="1383"/>
      <point x="101" y="1368" type="curve" smooth="yes"/>
      <point x="101" y="1338"/>
      <point x="109" y="1334"/>
      <point x="137" y="1331" type="curve" smooth="yes"/>
      <point x="198" y="1326"/>
      <point x="289" y="1320"/>
      <point x="289" y="1234" type="curve" smooth="yes"/>
      <point x="288" y="152" type="line" smooth="yes"/>
      <point x="288" y="108"/>
      <point x="207" y="93"/>
      <point x="143" y="88" type="curve" smooth="yes"/>
      <point x="117" y="85"/>
      <point x="110" y="72"/>
      <point x="110" y="51" type="curve" smooth="yes"/>
      <point x="110" y="36"/>
      <point x="121" y="0"/>
      <point x="144" y="0" type="curve" smooth="yes"/>
      <point x="669" y="0" type="line" smooth="yes"/>
      <point x="692" y="0"/>
      <point x="703" y="36"/>
      <point x="703" y="51" type="curve" smooth="yes"/>
      <point x="703" y="81"/>
      <point x="695" y="85"/>
      <point x="667" y="88" type="curve" smooth="yes"/>
      <point x="594" y="93"/>
      <point x="495" y="99"/>
      <point x="495" y="185" type="curve" smooth="yes"/>
    </contour>
    <contour>
      <point x="463" y="1419" type="line"/>
      <point x="476" y="1332" type="line"/>
      <point x="476" y="1332"/>
      <point x="512" y="1332"/>
      <point x="658" y="1332" type="curve" smooth="yes"/>
      <point x="850" y="1332"/>
      <point x="1002" y="1263"/>
      <point x="1002" y="1019" type="curve" smooth="yes"/>
      <point x="1002" y="775"/>
      <point x="816" y="711"/>
      <point x="651" y="711" type="curve" smooth="yes"/>
      <point x="581" y="711"/>
      <point x="450" y="711"/>
      <point x="450" y="711" type="curve"/>
      <point x="450" y="711"/>
      <point x="450" y="625"/>
      <point x="450" y="625" type="curve"/>
      <point x="450" y="625"/>
      <point x="637" y="625"/>
      <point x="724" y="625" type="curve" smooth="yes"/>
      <point x="791" y="625"/>
      <point x="783" y="633"/>
      <point x="841" y="649" type="curve" smooth="yes"/>
      <point x="1066" y="705"/>
      <point x="1211" y="834"/>
      <point x="1211" y="1050" type="curve" smooth="yes"/>
      <point x="1211" y="1329"/>
      <point x="987" y="1417"/>
      <point x="705" y="1419" type="curve"/>
    </contour>
    <contour>
      <point x="1407" y="0" type="line"/>
      <point x="1429" y="0"/>
      <point x="1441" y="31"/>
      <point x="1441" y="46" type="curve" smooth="yes"/>
      <point x="1441" y="76"/>
      <point x="1433" y="86"/>
      <point x="1405" y="89" type="curve" smooth="yes"/>
      <point x="1356" y="94"/>
      <point x="1289" y="119"/>
      <point x="1244" y="206" type="curve" smooth="yes"/>
      <point x="1122" y="400"/>
      <point x="1124" y="656"/>
      <point x="809" y="656" type="curve"/>
      <point x="767" y="656" type="line"/>
      <point x="700" y="625" type="line"/>
      <point x="995" y="625"/>
      <point x="873" y="0"/>
      <point x="1204" y="0" type="curve"/>
    </contour>
    <contour>
      <point x="776" y="-200" type="move" name="btm"/>
    </contour>
    <contour>
      <point x="776" y="2000" type="move" name="top"/>
    </contour>
  </outline>
</glyph>
<glyph name="S" format="1">
  <advance width="1149"/>
  <unicode hex="0053"/>
  <outline>
    <contour>
      <point x="371" y="1129" type="curve" smooth="yes"/>
      <point x="371" y="1308"/>
      <point x="469" y="1370"/>
      <point x="607" y="1370" type="curve" smooth="yes"/>
      <point x="752" y="1370"/>
      <point x="880" y="1265"/>
      <point x="920" y="1051" type="curve" smooth="yes"/>
      <point x="925" y="1023"/>
      <point x="1028" y="1003"/>
      <point x="1015" y="1100" type="curve" smooth="yes"/>
      <point x="1001" y="1210"/>
      <point x="990" y="1369"/>
      <point x="990" y="1394" type="curve" smooth="yes"/>
      <point x="990" y="1421"/>
      <point x="939" y="1444"/>
      <point x="909" y="1425" type="curve" smooth="yes"/>
      <point x="886" y="1411"/>
      <point x="882" y="1391"/>
      <point x="827" y="1401" type="curve" smooth="yes"/>
      <point x="792" y="1407"/>
      <point x="708" y="1449"/>
      <point x="590" y="1449" type="curve" smooth="yes"/>
      <point x="407" y="1449"/>
      <point x="180" y="1344"/>
      <point x="180" y="1069" type="curve" smooth="yes"/>
      <point x="180" y="831"/>
      <point x="372" y="720"/>
      <point x="556" y="626" type="curve" smooth="yes"/>
      <point x="713" y="544"/>
      <point x="850" y="452"/>
      <point x="850" y="321" type="curve" smooth="yes"/>
      <point x="850" y="125"/>
      <point x="740" y="59"/>
      <point x="620" y="59" type="curve" smooth="yes"/>
      <point x="516" y="59"/>
      <point x="354" y="121"/>
      <point x="282" y="274" type="curve" smooth="yes"/>
      <point x="228" y="389"/>
      <point x="215" y="444"/>
      <point x="208" y="478" type="curve" smooth="yes"/>
      <point x="196" y="538"/>
      <point x="98" y="536"/>
      <point x="108" y="458" type="curve"/>
      <point x="117" y="378"/>
      <point x="135" y="214"/>
      <point x="126" y="72" type="curve" smooth="yes"/>
      <point x="123" y="22"/>
      <point x="180" y="-1"/>
      <point x="238" y="65" type="curve" smooth="yes"/>
      <point x="275" y="107"/>
      <point x="296" y="62"/>
      <point x="352" y="41" type="curve" smooth="yes"/>
      <point x="396" y="25"/>
      <point x="475" y="-30"/>
      <point x="637" y="-30" type="curve" smooth="yes"/>
      <point x="878" y="-30"/>
      <point x="1054" y="121"/>
      <point x="1054" y="382" type="curve" smooth="yes"/>
      <point x="1054" y="581"/>
      <point x="862" y="713"/>
      <point x="677" y="815" type="curve" smooth="yes"/>
      <point x="519" y="899"/>
      <point x="371" y="1000"/>
    </contour>
    <contour>
      <point x="586" y="-200" type="move" name="btm"/>
    </contour>
    <contour>
      <point x="586" y="2000" type="move" name="top"/>
    </contour>
  </outline>
</glyph>
<glyph name="T" format="1">
  <advance width="1267"/>
  <unicode hex="0054"/>
  <outline>
    <contour>
      <point x="737" y="1337" type="line" smooth="yes"/>
      <point x="737" y="1381"/>
      <point x="752" y="1320"/>
      <point x="836" y="1320" type="curve" smooth="yes"/>
      <point x="862" y="1320"/>
      <point x="875" y="1367"/>
      <point x="875" y="1388" type="curve" smooth="yes"/>
      <point x="875" y="1403"/>
      <point x="864" y="1419"/>
      <point x="841" y="1419" type="curve" smooth="yes"/>
      <point x="416" y="1419" type="line" smooth="yes"/>
      <point x="394" y="1419"/>
      <point x="382" y="1403"/>
      <point x="382" y="1388" type="curve" smooth="yes"/>
      <point x="382" y="1358"/>
      <point x="388" y="1320"/>
      <point x="422" y="1320" type="curve" smooth="yes"/>
      <point x="506" y="1320"/>
      <point x="530" y="1381"/>
      <point x="530" y="1336" type="curve" smooth="yes"/>
      <point x="529" y="182" type="line" smooth="yes"/>
      <point x="529" y="108"/>
      <point x="418" y="93"/>
      <point x="324" y="88" type="curve" smooth="yes"/>
      <point x="298" y="85"/>
      <point x="291" y="72"/>
      <point x="291" y="51" type="curve" smooth="yes"/>
      <point x="291" y="36"/>
      <point x="302" y="0"/>
      <point x="325" y="0" type="curve" smooth="yes"/>
      <point x="940" y="0" type="line" smooth="yes"/>
      <point x="963" y="0"/>
      <point x="974" y="36"/>
      <point x="974" y="51" type="curve" smooth="yes"/>
      <point x="974" y="81"/>
      <point x="966" y="85"/>
      <point x="938" y="88" type="curve" smooth="yes"/>
      <point x="857" y="93"/>
      <point x="736" y="99"/>
      <point x="736" y="185" type="curve" smooth="yes"/>
    </contour>
    <contour>
      <point x="625" y="1320" type="line"/>
      <point x="601" y="1419" type="line"/>
      <point x="65" y="1419" type="line"/>
      <point x="50" y="1419"/>
      <point x="29" y="1151"/>
      <point x="25" y="1020" type="curve"/>
      <point x="25" y="997"/>
      <point x="61" y="986"/>
      <point x="76" y="986" type="curve" smooth="yes"/>
      <point x="97" y="986"/>
      <point x="110" y="993"/>
      <point x="113" y="1019" type="curve" smooth="yes"/>
      <point x="118" y="1084"/>
      <point x="153" y="1320"/>
      <point x="267" y="1320" type="curve" smooth="yes"/>
    </contour>
    <contour>
      <point x="1000" y="1320" type="line"/>
      <point x="1114" y="1320"/>
      <point x="1149" y="1084"/>
      <point x="1154" y="1019" type="curve"/>
      <point x="1157" y="993"/>
      <point x="1170" y="986"/>
      <point x="1191" y="986" type="curve" smooth="yes"/>
      <point x="1206" y="986"/>
      <point x="1242" y="997"/>
      <point x="1242" y="1020" type="curve"/>
      <point x="1238" y="1151"/>
      <point x="1217" y="1419"/>
      <point x="1202" y="1419" type="curve" smooth="yes"/>
      <point x="666" y="1419" type="line"/>
      <point x="642" y="1320" type="line"/>
    </contour>
    <contour>
      <point x="633" y="2000" type="move" name="top"/>
    </contour>
    <contour>
      <point x="633" y="-200" type="move" name="btm"/>
    </contour>
  </outline>
</glyph>
<glyph name="U" format="1">
  <advance width="1549"/>
  <unicode hex="0055"/>
  <outline>
    <contour>
      <point x="1304" y="1230" type="line" smooth="yes"/>
      <point x="1304" y="1294"/>
      <point x="1376" y="1326"/>
      <point x="1479" y="1331" type="curve" smooth="yes"/>
      <point x="1505" y="1332"/>
      <point x="1512" y="1347"/>
      <point x="1512" y="1368" type="curve" smooth="yes"/>
      <point x="1512" y="1383"/>
      <point x="1501" y="1419"/>
      <point x="1478" y="1419" type="curve" smooth="yes"/>
      <point x="1022" y="1419" type="line" smooth="yes"/>
      <point x="999" y="1419"/>
      <point x="988" y="1383"/>
      <point x="988" y="1368" type="curve" smooth="yes"/>
      <point x="988" y="1338"/>
      <point x="996" y="1334"/>
      <point x="1024" y="1331" type="curve" smooth="yes"/>
      <point x="1079" y="1326"/>
      <point x="1200" y="1311"/>
      <point x="1200" y="1244" type="curve" smooth="yes"/>
      <point x="1200" y="514" type="line" smooth="yes"/>
      <point x="1200" y="250"/>
      <point x="1108" y="65"/>
      <point x="793" y="65" type="curve" smooth="yes"/>
      <point x="585" y="65"/>
      <point x="476" y="212"/>
      <point x="476" y="524" type="curve" smooth="yes"/>
      <point x="477" y="1267" type="line" smooth="yes"/>
      <point x="477" y="1311"/>
      <point x="563" y="1326"/>
      <point x="632" y="1331" type="curve" smooth="yes"/>
      <point x="658" y="1334"/>
      <point x="665" y="1347"/>
      <point x="665" y="1368" type="curve" smooth="yes"/>
      <point x="665" y="1383"/>
      <point x="654" y="1419"/>
      <point x="631" y="1419" type="curve" smooth="yes"/>
      <point x="116" y="1419" type="line" smooth="yes"/>
      <point x="93" y="1419"/>
      <point x="82" y="1383"/>
      <point x="82" y="1368" type="curve" smooth="yes"/>
      <point x="82" y="1338"/>
      <point x="90" y="1334"/>
      <point x="118" y="1331" type="curve" smooth="yes"/>
      <point x="179" y="1326"/>
      <point x="260" y="1320"/>
      <point x="260" y="1234" type="curve" smooth="yes"/>
      <point x="259" y="516" type="line" smooth="yes"/>
      <point x="259" y="194"/>
      <point x="461" y="-29"/>
      <point x="789" y="-29" type="curve" smooth="yes"/>
      <point x="1109" y="-29"/>
      <point x="1301" y="154"/>
      <point x="1302" y="516" type="curve" smooth="yes"/>
    </contour>
    <contour>
      <point x="787" y="-200" type="move" name="btm"/>
    </contour>
    <contour>
      <point x="831" y="2000" type="move" name="top"/>
    </contour>
  </outline>
</glyph>
<glyph name="V" format="1">
  <advance width="1365"/>
  <unicode hex="0056"/>
  <outline>
    <contour>
      <point x="378" y="1287" type="line" smooth="yes"/>
      <point x="361" y="1334"/>
      <point x="425" y="1326"/>
      <point x="516" y="1331" type="curve" smooth="yes"/>
      <point x="542" y="1334"/>
      <point x="549" y="1347"/>
      <point x="549" y="1368" type="curve" smooth="yes"/>
      <point x="549" y="1383"/>
      <point x="538" y="1419"/>
      <point x="515" y="1419" type="curve" smooth="yes"/>
      <point x="-10" y="1419" type="line" smooth="yes"/>
      <point x="-32" y="1419"/>
      <point x="-44" y="1383"/>
      <point x="-44" y="1368" type="curve" smooth="yes"/>
      <point x="-44" y="1338"/>
      <point x="-36" y="1334"/>
      <point x="-8" y="1331" type="curve" smooth="yes"/>
      <point x="41" y="1326"/>
      <point x="120" y="1342"/>
      <point x="153" y="1254" type="curve" smooth="yes"/>
      <point x="638" y="-18" type="line"/>
      <point x="761" y="-18" type="line"/>
      <point x="748" y="222" type="line"/>
    </contour>
    <contour>
      <point x="741" y="222" type="line"/>
      <point x="761" y="-18" type="line"/>
      <point x="1226" y="1254" type="line" smooth="yes"/>
      <point x="1259" y="1342"/>
      <point x="1338" y="1326"/>
      <point x="1387" y="1331" type="curve" smooth="yes"/>
      <point x="1415" y="1334"/>
      <point x="1423" y="1338"/>
      <point x="1423" y="1368" type="curve" smooth="yes"/>
      <point x="1423" y="1383"/>
      <point x="1411" y="1419"/>
      <point x="1389" y="1419" type="curve" smooth="yes"/>
      <point x="934" y="1419" type="line" smooth="yes"/>
      <point x="911" y="1419"/>
      <point x="900" y="1383"/>
      <point x="900" y="1368" type="curve" smooth="yes"/>
      <point x="900" y="1347"/>
      <point x="907" y="1334"/>
      <point x="933" y="1331" type="curve"/>
      <point x="1024" y="1326"/>
      <point x="1107" y="1304"/>
      <point x="1091" y="1257" type="curve" smooth="yes"/>
    </contour>
    <contour>
      <point x="689" y="-200" type="move" name="btm"/>
    </contour>
    <contour>
      <point x="689" y="2000" type="move" name="top"/>
    </contour>
  </outline>
</glyph>
<glyph name="W" format="1">
  <advance width="1998"/>
  <unicode hex="0057"/>
  <outline>
    <contour>
      <point x="378" y="1287" type="line" smooth="yes"/>
      <point x="361" y="1334"/>
      <point x="445" y="1326"/>
      <point x="536" y="1331" type="curve"/>
      <point x="562" y="1334"/>
      <point x="569" y="1347"/>
      <point x="569" y="1368" type="curve" smooth="yes"/>
      <point x="569" y="1383"/>
      <point x="558" y="1419"/>
      <point x="535" y="1419" type="curve" smooth="yes"/>
      <point x="20" y="1419" type="line" smooth="yes"/>
      <point x="-2" y="1419"/>
      <point x="-14" y="1383"/>
      <point x="-14" y="1368" type="curve" smooth="yes"/>
      <point x="-14" y="1338"/>
      <point x="-6" y="1334"/>
      <point x="22" y="1331" type="curve" smooth="yes"/>
      <point x="71" y="1326"/>
      <point x="140" y="1342"/>
      <point x="173" y="1254" type="curve" smooth="yes"/>
      <point x="542" y="-18" type="line"/>
      <point x="665" y="-18" type="line"/>
      <point x="672" y="222" type="line"/>
    </contour>
    <contour>
      <point x="635" y="222" type="line"/>
      <point x="665" y="-18" type="line"/>
      <point x="1099" y="1399" type="line"/>
      <point x="991" y="1399" type="line"/>
    </contour>
    <contour>
      <point x="1099" y="1399" type="line"/>
      <point x="956" y="1150" type="line"/>
      <point x="1345" y="-18" type="line"/>
      <point x="1468" y="-18" type="line"/>
      <point x="1473" y="222" type="line"/>
    </contour>
    <contour>
      <point x="1438" y="222" type="line"/>
      <point x="1468" y="-18" type="line"/>
      <point x="1841" y="1254" type="line" smooth="yes"/>
      <point x="1868" y="1344"/>
      <point x="1943" y="1326"/>
      <point x="1992" y="1331" type="curve" smooth="yes"/>
      <point x="2020" y="1334"/>
      <point x="2028" y="1338"/>
      <point x="2028" y="1368" type="curve" smooth="yes"/>
      <point x="2028" y="1383"/>
      <point x="2016" y="1419"/>
      <point x="1994" y="1419" type="curve" smooth="yes"/>
      <point x="1549" y="1419" type="line" smooth="yes"/>
      <point x="1526" y="1419"/>
      <point x="1515" y="1383"/>
      <point x="1515" y="1368" type="curve" smooth="yes"/>
      <point x="1515" y="1347"/>
      <point x="1522" y="1334"/>
      <point x="1548" y="1331" type="curve"/>
      <point x="1639" y="1326"/>
      <point x="1736" y="1335"/>
      <point x="1723" y="1287" type="curve" smooth="yes"/>
    </contour>
    <contour>
      <point x="1040" y="2000" type="move" name="top"/>
    </contour>
    <contour>
      <point x="1007" y="-200" type="move" name="btm"/>
    </contour>
  </outline>
</glyph>
<glyph name="X" format="1">
  <advance width="1455"/>
  <unicode hex="0058"/>
  <outline>
    <contour>
      <point x="486" y="1287" type="line" smooth="yes"/>
      <point x="459" y="1329"/>
      <point x="543" y="1326"/>
      <point x="634" y="1331" type="curve"/>
      <point x="660" y="1334"/>
      <point x="667" y="1347"/>
      <point x="667" y="1368" type="curve" smooth="yes"/>
      <point x="667" y="1383"/>
      <point x="656" y="1419"/>
      <point x="633" y="1419" type="curve" smooth="yes"/>
      <point x="108" y="1419" type="line" smooth="yes"/>
      <point x="86" y="1419"/>
      <point x="74" y="1383"/>
      <point x="74" y="1368" type="curve" smooth="yes"/>
      <point x="74" y="1338"/>
      <point x="82" y="1334"/>
      <point x="110" y="1331" type="curve" smooth="yes"/>
      <point x="159" y="1326"/>
      <point x="230" y="1333"/>
      <point x="281" y="1254" type="curve" smooth="yes"/>
      <point x="665" y="647" type="line"/>
      <point x="788" y="647" type="line"/>
      <point x="785" y="807" type="line"/>
    </contour>
    <contour>
      <point x="989" y="132" type="line" smooth="yes"/>
      <point x="1016" y="90"/>
      <point x="922" y="93"/>
      <point x="831" y="88" type="curve"/>
      <point x="805" y="85"/>
      <point x="798" y="72"/>
      <point x="798" y="51" type="curve" smooth="yes"/>
      <point x="798" y="36"/>
      <point x="809" y="0"/>
      <point x="832" y="0" type="curve" smooth="yes"/>
      <point x="1377" y="0" type="line" smooth="yes"/>
      <point x="1399" y="0"/>
      <point x="1411" y="36"/>
      <point x="1411" y="51" type="curve" smooth="yes"/>
      <point x="1411" y="81"/>
      <point x="1403" y="85"/>
      <point x="1375" y="88" type="curve" smooth="yes"/>
      <point x="1326" y="93"/>
      <point x="1245" y="86"/>
      <point x="1194" y="165" type="curve" smooth="yes"/>
      <point x="785" y="807" type="line"/>
      <point x="687" y="772" type="line"/>
      <point x="665" y="647" type="line"/>
    </contour>
    <contour>
      <point x="717" y="787" type="line"/>
      <point x="727" y="647" type="line"/>
      <point x="1154" y="1254" type="line" smooth="yes"/>
      <point x="1210" y="1330"/>
      <point x="1306" y="1326"/>
      <point x="1355" y="1331" type="curve" smooth="yes"/>
      <point x="1383" y="1334"/>
      <point x="1391" y="1338"/>
      <point x="1391" y="1368" type="curve" smooth="yes"/>
      <point x="1391" y="1383"/>
      <point x="1379" y="1419"/>
      <point x="1357" y="1419" type="curve" smooth="yes"/>
      <point x="902" y="1419" type="line" smooth="yes"/>
      <point x="879" y="1419"/>
      <point x="868" y="1383"/>
      <point x="868" y="1368" type="curve" smooth="yes"/>
      <point x="868" y="1347"/>
      <point x="875" y="1334"/>
      <point x="901" y="1331" type="curve"/>
      <point x="992" y="1326"/>
      <point x="1047" y="1298"/>
      <point x="1019" y="1257" type="curve" smooth="yes"/>
    </contour>
    <contour>
      <point x="708" y="632" type="line"/>
      <point x="698" y="772" type="line"/>
      <point x="291" y="165" type="line" smooth="yes"/>
      <point x="237" y="88"/>
      <point x="139" y="93"/>
      <point x="90" y="88" type="curve" smooth="yes"/>
      <point x="62" y="85"/>
      <point x="54" y="81"/>
      <point x="54" y="51" type="curve" smooth="yes"/>
      <point x="54" y="36"/>
      <point x="66" y="0"/>
      <point x="88" y="0" type="curve" smooth="yes"/>
      <point x="523" y="0" type="line" smooth="yes"/>
      <point x="546" y="0"/>
      <point x="557" y="36"/>
      <point x="557" y="51" type="curve" smooth="yes"/>
      <point x="557" y="72"/>
      <point x="550" y="85"/>
      <point x="524" y="88" type="curve"/>
      <point x="433" y="93"/>
      <point x="399" y="121"/>
      <point x="426" y="162" type="curve" smooth="yes"/>
    </contour>
    <contour>
      <point x="719" y="2000" type="move" name="top"/>
    </contour>
    <contour>
      <point x="719" y="-200" type="move" name="btm"/>
    </contour>
  </outline>
</glyph>
<glyph name="Y" format="1">
  <advance width="1260"/>
  <unicode hex="0059"/>
  <outline>
    <contour>
      <point x="368" y="1287" type="line" smooth="yes"/>
      <point x="346" y="1332"/>
      <point x="425" y="1336"/>
      <point x="516" y="1341" type="curve"/>
      <point x="542" y="1344"/>
      <point x="549" y="1357"/>
      <point x="549" y="1378" type="curve" smooth="yes"/>
      <point x="549" y="1393"/>
      <point x="538" y="1419"/>
      <point x="515" y="1419" type="curve" smooth="yes"/>
      <point x="0" y="1419" type="line" smooth="yes"/>
      <point x="-22" y="1419"/>
      <point x="-34" y="1393"/>
      <point x="-34" y="1378" type="curve" smooth="yes"/>
      <point x="-34" y="1348"/>
      <point x="-26" y="1344"/>
      <point x="2" y="1341" type="curve" smooth="yes"/>
      <point x="51" y="1336"/>
      <point x="108" y="1337"/>
      <point x="153" y="1254" type="curve" smooth="yes"/>
      <point x="622" y="382" type="line"/>
      <point x="645" y="382" type="line"/>
      <point x="692" y="632" type="line"/>
    </contour>
    <contour>
      <point x="685" y="632" type="line"/>
      <point x="645" y="382" type="line"/>
      <point x="1126" y="1254" type="line" smooth="yes"/>
      <point x="1171" y="1336"/>
      <point x="1228" y="1336"/>
      <point x="1277" y="1341" type="curve" smooth="yes"/>
      <point x="1305" y="1344"/>
      <point x="1313" y="1348"/>
      <point x="1313" y="1378" type="curve" smooth="yes"/>
      <point x="1313" y="1393"/>
      <point x="1301" y="1419"/>
      <point x="1279" y="1419" type="curve" smooth="yes"/>
      <point x="864" y="1419" type="line" smooth="yes"/>
      <point x="841" y="1419"/>
      <point x="830" y="1393"/>
      <point x="830" y="1378" type="curve" smooth="yes"/>
      <point x="830" y="1357"/>
      <point x="837" y="1344"/>
      <point x="863" y="1341" type="curve"/>
      <point x="954" y="1336"/>
      <point x="1033" y="1331"/>
      <point x="1011" y="1287" type="curve" smooth="yes"/>
    </contour>
    <contour>
      <point x="540" y="611" type="line"/>
      <point x="540" y="152" type="line" smooth="yes"/>
      <point x="540" y="81"/>
      <point x="442" y="93"/>
      <point x="375" y="88" type="curve" smooth="yes"/>
      <point x="350" y="85"/>
      <point x="332" y="72"/>
      <point x="332" y="51" type="curve" smooth="yes"/>
      <point x="332" y="36"/>
      <point x="343" y="0"/>
      <point x="366" y="0" type="curve" smooth="yes"/>
      <point x="931" y="0" type="line" smooth="yes"/>
      <point x="953" y="0"/>
      <point x="965" y="36"/>
      <point x="965" y="51" type="curve" smooth="yes"/>
      <point x="965" y="81"/>
      <point x="947" y="85"/>
      <point x="919" y="88" type="curve" smooth="yes"/>
      <point x="852" y="93"/>
      <point x="747" y="79"/>
      <point x="747" y="165" type="curve" smooth="yes"/>
      <point x="747" y="611" type="line"/>
    </contour>
    <contour>
      <point x="639" y="-200" type="move" name="btm"/>
    </contour>
    <contour>
      <point x="639" y="2000" type="move" name="top"/>
    </contour>
  </outline>
</glyph>
<glyph name="Z" format="1">
  <advance width="1232"/>
  <unicode hex="005A"/>
  <outline>
    <contour>
      <point x="895" y="1367" type="line"/>
      <point x="951" y="1336" type="line"/>
      <point x="389" y="1336" type="line" smooth="yes"/>
      <point x="301" y="1336"/>
      <point x="187" y="1068"/>
      <point x="182" y="1019" type="curve" smooth="yes"/>
      <point x="179" y="993"/>
      <point x="166" y="986"/>
      <point x="145" y="986" type="curve" smooth="yes"/>
      <point x="130" y="986"/>
      <point x="114" y="997"/>
      <point x="114" y="1020" type="curve" smooth="yes"/>
      <point x="143" y="1378" type="line"/>
      <point x="155" y="1405"/>
      <point x="170" y="1418"/>
      <point x="190" y="1419" type="curve"/>
      <point x="1122" y="1419" type="line" smooth="yes"/>
      <point x="1138" y="1419"/>
      <point x="1146" y="1414"/>
      <point x="1146" y="1395" type="curve" smooth="yes"/>
      <point x="1146" y="1368" type="line" smooth="yes"/>
      <point x="1146" y="1357"/>
      <point x="1142" y="1350"/>
      <point x="1136" y="1340" type="curve" smooth="yes"/>
      <point x="294" y="26" type="line"/>
      <point x="235" y="83" type="line"/>
      <point x="840" y="83" type="line" smooth="yes"/>
      <point x="928" y="83"/>
      <point x="1093" y="381"/>
      <point x="1098" y="430" type="curve" smooth="yes"/>
      <point x="1101" y="456"/>
      <point x="1114" y="463"/>
      <point x="1135" y="463" type="curve" smooth="yes"/>
      <point x="1150" y="463"/>
      <point x="1176" y="452"/>
      <point x="1176" y="429" type="curve" smooth="yes"/>
      <point x="1126" y="41" type="line"/>
      <point x="1114" y="14"/>
      <point x="1099" y="1"/>
      <point x="1079" y="0" type="curve"/>
      <point x="84" y="0" type="line" smooth="yes"/>
      <point x="68" y="0"/>
      <point x="60" y="5"/>
      <point x="60" y="24" type="curve" smooth="yes"/>
      <point x="60" y="40" type="line" smooth="yes"/>
      <point x="60" y="53"/>
      <point x="66" y="69"/>
      <point x="102" y="123" type="curve" smooth="yes"/>
    </contour>
    <contour>
      <point x="618" y="-200" type="move" name="btm"/>
    </contour>
    <contour>
      <point x="618" y="2000" type="move" name="top"/>
    </contour>
  </outline>
</glyph>
<glyph name="asciicircum" format="1">
  <advance width="1317"/>
  <unicode hex="005E"/>
  <outline>
    <contour>
      <point x="1194" y="300" type="line"/>
      <point x="717" y="1428" type="line"/>
      <point x="598" y="1428" type="line"/>
      <point x="123" y="300" type="line"/>
      <point x="277" y="300" type="line"/>
      <point x="657" y="1270" type="line"/>
      <point x="1048" y="300" type="line"/>
    </contour>
  </outline>
</glyph>
<glyph name="underscore" format="1">
  <advance width="1317"/>
  <unicode hex="005F"/>
  <outline>
    <contour>
      <point x="-25" y="-296" type="line"/>
      <point x="1342" y="-296" type="line"/>
      <point x="1342" y="-190" type="line"/>
      <point x="-25" y="-190" type="line"/>
    </contour>
  </outline>
</glyph>
<glyph name="grave" format="1">
  <advance width="1024"/>
  <unicode hex="0060"/>
  <outline>
    <contour>
      <point x="691" y="1159" type="line"/>
      <point x="527" y="1348"/>
      <point x="432" y="1501"/>
      <point x="401" y="1531" type="curve" smooth="yes"/>
      <point x="364" y="1566"/>
      <point x="295" y="1588"/>
      <point x="244" y="1534" type="curve" smooth="yes"/>
      <point x="194" y="1481"/>
      <point x="217" y="1420"/>
      <point x="254" y="1386" type="curve" smooth="yes"/>
      <point x="285" y="1356"/>
      <point x="431" y="1284"/>
      <point x="635" y="1101" type="curve"/>
    </contour>
    <contour>
      <point x="512" y="2000" type="move" name="_top"/>
    </contour>
  </outline>
</glyph>
<glyph name="a" format="1">
  <advance width="1032"/>
  <unicode hex="0061"/>
  <outline>
    <contour>
      <point x="98" y="235" type="curve" smooth="yes"/>
      <point x="102" y="48"/>
      <point x="259" y="-24"/>
      <point x="371" y="-24" type="curve" smooth="yes"/>
      <point x="539" y="-24"/>
      <point x="656" y="40"/>
      <point x="741" y="170" type="curve" smooth="yes"/>
      <point x="758" y="198"/>
      <point x="755" y="230"/>
      <point x="755" y="243" type="curve" smooth="yes"/>
      <point x="755" y="250"/>
      <point x="751" y="253"/>
      <point x="745" y="253" type="curve" smooth="yes"/>
      <point x="733" y="253"/>
      <point x="707" y="219"/>
      <point x="707" y="219" type="curve"/>
      <point x="707" y="219"/>
      <point x="648" y="90"/>
      <point x="443" y="90" type="curve" smooth="yes"/>
      <point x="355" y="90"/>
      <point x="308" y="175"/>
      <point x="308" y="252" type="curve" smooth="yes"/>
      <point x="308" y="464"/>
      <point x="504" y="510"/>
      <point x="684" y="529" type="curve"/>
      <point x="706" y="581" type="line"/>
      <point x="683" y="599" type="line"/>
      <point x="419" y="571"/>
      <point x="92" y="509"/>
    </contour>
    <contour>
      <point x="864" y="736" type="line" smooth="yes"/>
      <point x="864" y="895"/>
      <point x="762" y="1014"/>
      <point x="520" y="1014" type="curve" smooth="yes"/>
      <point x="434" y="1014"/>
      <point x="292" y="997"/>
      <point x="196" y="909" type="curve" smooth="yes"/>
      <point x="77" y="799"/>
      <point x="148" y="665"/>
      <point x="203" y="665" type="curve" smooth="yes"/>
      <point x="243" y="665"/>
      <point x="270" y="678"/>
      <point x="284" y="702" type="curve" smooth="yes"/>
      <point x="309" y="744"/>
      <point x="359" y="877"/>
      <point x="378" y="907" type="curve"/>
      <point x="378" y="907"/>
      <point x="430" y="928"/>
      <point x="487" y="924" type="curve" smooth="yes"/>
      <point x="617" y="914"/>
      <point x="677" y="860"/>
      <point x="677" y="753" type="curve" smooth="yes"/>
      <point x="677" y="687"/>
      <point x="676" y="377"/>
      <point x="676" y="162" type="curve"/>
      <point x="678" y="149"/>
      <point x="695" y="125"/>
      <point x="695" y="109" type="curve" smooth="yes"/>
      <point x="694" y="87"/>
      <point x="684" y="-25"/>
      <point x="797" y="-25" type="curve" smooth="yes"/>
      <point x="905" y="-25"/>
      <point x="981" y="22"/>
      <point x="994" y="37" type="curve" smooth="yes"/>
      <point x="1010" y="50"/>
      <point x="991" y="105"/>
      <point x="960" y="96" type="curve" smooth="yes"/>
      <point x="936" y="89"/>
      <point x="921" y="88"/>
      <point x="902" y="88" type="curve" smooth="yes"/>
      <point x="880" y="88"/>
      <point x="864" y="140"/>
      <point x="864" y="210" type="curve" smooth="yes"/>
    </contour>
    <contour>
      <point x="550" y="-200" type="move" name="btm"/>
    </contour>
    <contour>
      <point x="510" y="2000" type="move" name="top"/>
    </contour>
  </outline>
</glyph>
<glyph name="b" format="1">
  <advance width="1147"/>
  <unicode hex="0062"/>
  <outline>
    <contour>
      <point x="174" y="12" type="line" smooth="yes"/>
      <point x="174" y="-17"/>
      <point x="181" y="-32"/>
      <point x="209" y="-32" type="curve" smooth="yes"/>
      <point x="258" y="-32"/>
      <point x="360" y="89"/>
      <point x="360" y="156" type="curve" smooth="yes"/>
      <point x="360" y="853" type="line"/>
      <point x="350" y="873" type="line"/>
      <point x="360" y="1104" type="line"/>
      <point x="360" y="1518" type="line"/>
      <point x="174" y="1339" type="line"/>
    </contour>
    <contour>
      <point x="330" y="1558" type="curve" smooth="yes"/>
      <point x="273" y="1557"/>
      <point x="148" y="1556"/>
      <point x="15" y="1548" type="curve" smooth="yes"/>
      <point x="-1" y="1547"/>
      <point x="-9" y="1520"/>
      <point x="-9" y="1504" type="curve" smooth="yes"/>
      <point x="-9" y="1479"/>
      <point x="1" y="1470"/>
      <point x="15" y="1464" type="curve"/>
      <point x="69" y="1450"/>
      <point x="174" y="1463"/>
      <point x="174" y="1339" type="curve" smooth="yes"/>
      <point x="174" y="1338"/>
      <point x="174" y="1337"/>
      <point x="175" y="1337" type="curve" smooth="yes"/>
      <point x="196" y="1337"/>
      <point x="360" y="1490"/>
      <point x="360" y="1518" type="curve"/>
      <point x="357" y="1550"/>
      <point x="341" y="1558"/>
    </contour>
    <contour>
      <point x="320" y="89" type="line"/>
      <point x="372" y="-2"/>
      <point x="492" y="-30"/>
      <point x="622" y="-30" type="curve" smooth="yes"/>
      <point x="931" y="-30"/>
      <point x="1072" y="223"/>
      <point x="1072" y="492" type="curve" smooth="yes"/>
      <point x="1072" y="762"/>
      <point x="952" y="1013"/>
      <point x="644" y="1013" type="curve" smooth="yes"/>
      <point x="534" y="1013"/>
      <point x="394" y="947"/>
      <point x="332" y="850" type="curve"/>
      <point x="350" y="793" type="line"/>
      <point x="386" y="858"/>
      <point x="497" y="918"/>
      <point x="581" y="918" type="curve" smooth="yes"/>
      <point x="796" y="918"/>
      <point x="865" y="732"/>
      <point x="865" y="492" type="curve" smooth="yes"/>
      <point x="865" y="252"/>
      <point x="800" y="65"/>
      <point x="585" y="65" type="curve" smooth="yes"/>
      <point x="458" y="65"/>
      <point x="376" y="110"/>
      <point x="346" y="203" type="curve"/>
    </contour>
    <contour>
      <point x="680" y="2000" type="move" name="top"/>
    </contour>
    <contour>
      <point x="536" y="-200" type="move" name="btm"/>
    </contour>
  </outline>
</glyph>
<glyph name="c" format="1">
  <advance width="930"/>
  <unicode hex="0063"/>
  <outline>
    <contour>
      <point x="554" y="918" type="curve" smooth="yes"/>
      <point x="611" y="918"/>
      <point x="638" y="897"/>
      <point x="638" y="897" type="curve"/>
      <point x="722" y="710" type="line" smooth="yes"/>
      <point x="742" y="666"/>
      <point x="765" y="662"/>
      <point x="804" y="662" type="curve" smooth="yes"/>
      <point x="859" y="662"/>
      <point x="916" y="748"/>
      <point x="832" y="887" type="curve" smooth="yes"/>
      <point x="770" y="989"/>
      <point x="653" y="1014"/>
      <point x="539" y="1014" type="curve" smooth="yes"/>
      <point x="273" y="1014"/>
      <point x="67" y="834"/>
      <point x="67" y="500" type="curve" smooth="yes"/>
      <point x="67" y="176"/>
      <point x="218" y="-29"/>
      <point x="510" y="-29" type="curve" smooth="yes"/>
      <point x="680" y="-29"/>
      <point x="787" y="54"/>
      <point x="844" y="173" type="curve" smooth="yes"/>
      <point x="848" y="181"/>
      <point x="857" y="194"/>
      <point x="839" y="201" type="curve" smooth="yes"/>
      <point x="789" y="224" type="line" smooth="yes"/>
      <point x="776" y="227"/>
      <point x="774" y="216"/>
      <point x="770" y="208" type="curve" smooth="yes"/>
      <point x="724" y="123"/>
      <point x="637" y="75"/>
      <point x="536" y="75" type="curve" smooth="yes"/>
      <point x="431" y="75"/>
      <point x="282" y="178"/>
      <point x="282" y="490" type="curve" smooth="yes"/>
      <point x="282" y="815"/>
      <point x="392" y="918"/>
    </contour>
    <contour>
      <point x="481" y="2000" type="move" name="top"/>
    </contour>
    <contour>
      <point x="523" y="-200" type="move" name="btm"/>
    </contour>
  </outline>
</glyph>
<glyph name="d" format="1">
  <advance width="1176"/>
  <unicode hex="0064"/>
  <outline>
    <contour>
      <point x="792" y="132" type="line"/>
      <point x="880" y="102" type="line"/>
      <point x="978" y="175" type="line"/>
      <point x="978" y="1518" type="line"/>
      <point x="792" y="1339" type="line"/>
      <point x="792" y="1104" type="line"/>
      <point x="802" y="931" type="line"/>
      <point x="792" y="893" type="line"/>
    </contour>
    <contour>
      <point x="948" y="1558" type="curve" smooth="yes"/>
      <point x="891" y="1557"/>
      <point x="736" y="1556"/>
      <point x="603" y="1548" type="curve" smooth="yes"/>
      <point x="587" y="1547"/>
      <point x="579" y="1520"/>
      <point x="579" y="1504" type="curve" smooth="yes"/>
      <point x="579" y="1479"/>
      <point x="589" y="1470"/>
      <point x="603" y="1464" type="curve"/>
      <point x="657" y="1450"/>
      <point x="792" y="1463"/>
      <point x="792" y="1339" type="curve" smooth="yes"/>
      <point x="792" y="1338"/>
      <point x="792" y="1337"/>
      <point x="793" y="1337" type="curve" smooth="yes"/>
      <point x="814" y="1337"/>
      <point x="978" y="1490"/>
      <point x="978" y="1518" type="curve"/>
      <point x="975" y="1550"/>
      <point x="959" y="1558"/>
    </contour>
    <contour>
      <point x="1092" y="0" type="line" smooth="yes"/>
      <point x="1114" y="0"/>
      <point x="1126" y="26"/>
      <point x="1126" y="41" type="curve" smooth="yes"/>
      <point x="1126" y="71"/>
      <point x="1118" y="75"/>
      <point x="1090" y="78" type="curve" smooth="yes"/>
      <point x="1041" y="83"/>
      <point x="978" y="89"/>
      <point x="978" y="175" type="curve"/>
      <point x="792" y="132" type="line"/>
      <point x="792" y="46"/>
      <point x="780" y="0"/>
      <point x="868" y="0" type="curve" smooth="yes"/>
    </contour>
    <contour>
      <point x="832" y="895" type="line"/>
      <point x="780" y="986"/>
      <point x="660" y="1014"/>
      <point x="530" y="1014" type="curve" smooth="yes"/>
      <point x="214" y="1014"/>
      <point x="80" y="761"/>
      <point x="80" y="492" type="curve" smooth="yes"/>
      <point x="80" y="222"/>
      <point x="193" y="-29"/>
      <point x="508" y="-29" type="curve" smooth="yes"/>
      <point x="618" y="-29"/>
      <point x="758" y="37"/>
      <point x="820" y="134" type="curve"/>
      <point x="802" y="191" type="line"/>
      <point x="766" y="126"/>
      <point x="655" y="66"/>
      <point x="571" y="66" type="curve" smooth="yes"/>
      <point x="348" y="66"/>
      <point x="287" y="253"/>
      <point x="287" y="492" type="curve" smooth="yes"/>
      <point x="287" y="736"/>
      <point x="344" y="919"/>
      <point x="567" y="919" type="curve" smooth="yes"/>
      <point x="694" y="919"/>
      <point x="776" y="874"/>
      <point x="806" y="781" type="curve"/>
    </contour>
    <contour>
      <point x="393" y="2000" type="move" name="top"/>
    </contour>
    <contour>
      <point x="603" y="-200" type="move" name="btm"/>
    </contour>
  </outline>
</glyph>
<glyph name="e" format="1">
  <advance width="990"/>
  <unicode hex="0065"/>
  <outline>
    <contour>
      <point x="530" y="-29" type="curve" smooth="yes"/>
      <point x="224" y="-29"/>
      <point x="67" y="166"/>
      <point x="67" y="500" type="curve" smooth="yes"/>
      <point x="67" y="834"/>
      <point x="279" y="1014"/>
      <point x="518" y="1014" type="curve" smooth="yes"/>
      <point x="833" y="1014"/>
      <point x="920" y="798"/>
      <point x="920" y="503" type="curve"/>
      <point x="212" y="503" type="line"/>
      <point x="212" y="588" type="line"/>
      <point x="212" y="588"/>
      <point x="698" y="595"/>
      <point x="698" y="595" type="curve"/>
      <point x="698" y="827"/>
      <point x="619" y="918"/>
      <point x="517" y="918" type="curve" smooth="yes"/>
      <point x="362" y="918"/>
      <point x="282" y="865"/>
      <point x="282" y="510" type="curve" smooth="yes"/>
      <point x="282" y="188"/>
      <point x="423" y="75"/>
      <point x="556" y="75" type="curve" smooth="yes"/>
      <point x="657" y="75"/>
      <point x="744" y="123"/>
      <point x="790" y="208" type="curve" smooth="yes"/>
      <point x="794" y="216"/>
      <point x="796" y="227"/>
      <point x="809" y="224" type="curve"/>
      <point x="859" y="201" type="line"/>
      <point x="877" y="194"/>
      <point x="868" y="181"/>
      <point x="864" y="173" type="curve" smooth="yes"/>
      <point x="807" y="54"/>
      <point x="700" y="-29"/>
    </contour>
    <contour>
      <point x="497" y="-200" type="move" name="btm"/>
    </contour>
    <contour>
      <point x="526" y="2000" type="move" name="top"/>
    </contour>
  </outline>
</glyph>
<glyph name="f" format="1">
  <advance width="666"/>
  <unicode hex="0066"/>
  <outline>
    <contour>
      <point x="219" y="142" type="line"/>
      <point x="307" y="112" type="line"/>
      <point x="405" y="175" type="line"/>
      <point x="405" y="1107" type="line"/>
      <point x="219" y="1075" type="line"/>
    </contour>
    <contour>
      <point x="569" y="0" type="line" smooth="yes"/>
      <point x="592" y="0"/>
      <point x="603" y="26"/>
      <point x="603" y="41" type="curve" smooth="yes"/>
      <point x="603" y="71"/>
      <point x="595" y="75"/>
      <point x="567" y="78" type="curve"/>
      <point x="502" y="83"/>
      <point x="405" y="89"/>
      <point x="405" y="175" type="curve"/>
      <point x="219" y="142" type="line"/>
      <point x="219" y="98"/>
      <point x="152" y="83"/>
      <point x="103" y="78" type="curve" smooth="yes"/>
      <point x="77" y="75"/>
      <point x="70" y="62"/>
      <point x="70" y="41" type="curve" smooth="yes"/>
      <point x="70" y="26"/>
      <point x="81" y="0"/>
      <point x="104" y="0" type="curve" smooth="yes"/>
    </contour>
    <contour>
      <point x="405" y="1107" type="line"/>
      <point x="405" y="1467"/>
      <point x="503" y="1469"/>
      <point x="587" y="1480" type="curve" smooth="yes"/>
      <point x="613" y="1483"/>
      <point x="665" y="1498"/>
      <point x="665" y="1501" type="curve" smooth="yes"/>
      <point x="664" y="1507"/>
      <point x="638" y="1508"/>
      <point x="612" y="1505" type="curve" smooth="yes"/>
      <point x="583" y="1502"/>
      <point x="544" y="1491"/>
      <point x="552" y="1479" type="curve"/>
      <point x="663" y="1312" type="line"/>
      <point x="665" y="1310"/>
      <point x="669" y="1309"/>
      <point x="674" y="1309" type="curve" smooth="yes"/>
      <point x="709" y="1308"/>
      <point x="801" y="1362"/>
      <point x="792" y="1441" type="curve" smooth="yes"/>
      <point x="784" y="1509"/>
      <point x="718" y="1573"/>
      <point x="590" y="1573" type="curve" smooth="yes"/>
      <point x="348" y="1573"/>
      <point x="219" y="1330"/>
      <point x="219" y="1075" type="curve"/>
      <point x="307" y="1044" type="line"/>
    </contour>
    <contour>
      <point x="615" y="907" type="line"/>
      <point x="629" y="913"/>
      <point x="639" y="935"/>
      <point x="639" y="960" type="curve" smooth="yes"/>
      <point x="639" y="976"/>
      <point x="631" y="993"/>
      <point x="615" y="994" type="curve"/>
      <point x="218" y="994" type="line"/>
      <point x="96" y="984" type="line"/>
      <point x="82" y="978"/>
      <point x="72" y="966"/>
      <point x="72" y="941" type="curve" smooth="yes"/>
      <point x="72" y="925"/>
      <point x="80" y="908"/>
      <point x="96" y="907" type="curve"/>
    </contour>
    <contour>
      <point x="429" y="-200" type="move" name="btm"/>
    </contour>
    <contour>
      <point x="263" y="2271" type="move" name="top"/>
    </contour>
  </outline>
</glyph>
<glyph name="g" format="1">
  <advance width="1043"/>
  <unicode hex="0067"/>
  <outline>
    <contour>
      <point x="271" y="468" type="line"/>
      <point x="218" y="456"/>
      <point x="80" y="382"/>
      <point x="80" y="243" type="curve" smooth="yes"/>
      <point x="80" y="109"/>
      <point x="172" y="7"/>
      <point x="344" y="1" type="curve" smooth="yes"/>
      <point x="417" y="1"/>
      <point x="505" y="1"/>
      <point x="611" y="1" type="curve" smooth="yes"/>
      <point x="723" y="1"/>
      <point x="818" y="-33"/>
      <point x="818" y="-139" type="curve" smooth="yes"/>
      <point x="818" y="-313"/>
      <point x="593" y="-355"/>
      <point x="487" y="-355" type="curve" smooth="yes"/>
      <point x="343" y="-355"/>
      <point x="223" y="-288"/>
      <point x="223" y="-126" type="curve" smooth="yes"/>
      <point x="223" y="11"/>
      <point x="267" y="44"/>
      <point x="245" y="54" type="curve" smooth="yes"/>
      <point x="234" y="60"/>
      <point x="225" y="75"/>
      <point x="202" y="63" type="curve" smooth="yes"/>
      <point x="142" y="34"/>
      <point x="41" y="-8"/>
      <point x="41" y="-145" type="curve" smooth="yes"/>
      <point x="41" y="-316"/>
      <point x="201" y="-451"/>
      <point x="467" y="-451" type="curve" smooth="yes"/>
      <point x="765" y="-451"/>
      <point x="948" y="-275"/>
      <point x="949" y="-108" type="curve" smooth="yes"/>
      <point x="951" y="123"/>
      <point x="832" y="194"/>
      <point x="620" y="194" type="curve" smooth="yes"/>
      <point x="359" y="194" type="line" smooth="yes"/>
      <point x="279" y="194"/>
      <point x="221" y="230"/>
      <point x="221" y="300" type="curve" smooth="yes"/>
      <point x="221" y="360"/>
      <point x="289" y="433"/>
      <point x="359" y="433" type="curve"/>
    </contour>
    <contour>
      <point x="112" y="694" type="curve" smooth="yes"/>
      <point x="112" y="517"/>
      <point x="243" y="369"/>
      <point x="469" y="369" type="curve" smooth="yes"/>
      <point x="695" y="369"/>
      <point x="831" y="517"/>
      <point x="831" y="694" type="curve" smooth="yes"/>
      <point x="831" y="872"/>
      <point x="701" y="1014"/>
      <point x="475" y="1014" type="curve" smooth="yes"/>
      <point x="249" y="1014"/>
      <point x="112" y="872"/>
    </contour>
    <contour>
      <point x="295" y="694" type="curve" smooth="yes"/>
      <point x="295" y="820"/>
      <point x="332" y="918"/>
      <point x="469" y="918" type="curve" smooth="yes"/>
      <point x="605" y="918"/>
      <point x="646" y="820"/>
      <point x="646" y="694" type="curve" smooth="yes"/>
      <point x="646" y="569"/>
      <point x="609" y="464"/>
      <point x="473" y="464" type="curve" smooth="yes"/>
      <point x="334" y="464"/>
      <point x="295" y="569"/>
    </contour>
    <contour>
      <point x="694" y="780" type="curve"/>
      <point x="694" y="780"/>
      <point x="739" y="817"/>
      <point x="739" y="817" type="curve"/>
      <point x="751" y="847"/>
      <point x="753" y="856"/>
      <point x="798" y="902" type="curve" smooth="yes"/>
      <point x="827" y="932"/>
      <point x="852" y="935"/>
      <point x="852" y="935" type="curve"/>
      <point x="863" y="911"/>
      <point x="892" y="860"/>
      <point x="909" y="826" type="curve" smooth="yes"/>
      <point x="924" y="792"/>
      <point x="923" y="776"/>
      <point x="957" y="776" type="curve" smooth="yes"/>
      <point x="1006" y="776"/>
      <point x="1059" y="840"/>
      <point x="1019" y="942" type="curve" smooth="yes"/>
      <point x="1003" y="984"/>
      <point x="971" y="1022"/>
      <point x="897" y="1022" type="curve" smooth="yes"/>
      <point x="776" y="1022"/>
      <point x="694" y="904"/>
    </contour>
    <contour>
      <point x="570" y="-200" type="move" name="btm"/>
    </contour>
    <contour>
      <point x="509" y="2000" type="move" name="top"/>
    </contour>
  </outline>
</glyph>
<glyph name="h" format="1">
  <advance width="1192"/>
  <unicode hex="0068"/>
  <outline>
    <contour>
      <point x="199" y="142" type="line"/>
      <point x="287" y="112" type="line"/>
      <point x="385" y="175" type="line"/>
      <point x="385" y="821" type="line"/>
      <point x="375" y="845" type="line"/>
      <point x="385" y="1104" type="line"/>
      <point x="385" y="1518" type="line"/>
      <point x="199" y="1339" type="line"/>
    </contour>
    <contour>
      <point x="355" y="1558" type="curve" smooth="yes"/>
      <point x="298" y="1557"/>
      <point x="183" y="1556"/>
      <point x="50" y="1548" type="curve" smooth="yes"/>
      <point x="34" y="1547"/>
      <point x="26" y="1520"/>
      <point x="26" y="1504" type="curve" smooth="yes"/>
      <point x="26" y="1479"/>
      <point x="36" y="1470"/>
      <point x="50" y="1464" type="curve"/>
      <point x="104" y="1450"/>
      <point x="199" y="1463"/>
      <point x="199" y="1339" type="curve" smooth="yes"/>
      <point x="199" y="1338"/>
      <point x="199" y="1337"/>
      <point x="200" y="1337" type="curve" smooth="yes"/>
      <point x="221" y="1337"/>
      <point x="385" y="1490"/>
      <point x="385" y="1518" type="curve"/>
      <point x="382" y="1550"/>
      <point x="366" y="1558"/>
    </contour>
    <contour>
      <point x="499" y="0" type="line" smooth="yes"/>
      <point x="521" y="0"/>
      <point x="533" y="26"/>
      <point x="533" y="41" type="curve" smooth="yes"/>
      <point x="533" y="71"/>
      <point x="525" y="75"/>
      <point x="497" y="78" type="curve" smooth="yes"/>
      <point x="448" y="83"/>
      <point x="385" y="89"/>
      <point x="385" y="175" type="curve"/>
      <point x="199" y="142" type="line"/>
      <point x="199" y="98"/>
      <point x="132" y="83"/>
      <point x="83" y="78" type="curve" smooth="yes"/>
      <point x="57" y="75"/>
      <point x="50" y="62"/>
      <point x="50" y="41" type="curve" smooth="yes"/>
      <point x="50" y="26"/>
      <point x="61" y="0"/>
      <point x="84" y="0" type="curve" smooth="yes"/>
    </contour>
    <contour>
      <point x="385" y="771" type="line"/>
      <point x="440" y="822"/>
      <point x="558" y="896"/>
      <point x="683" y="896" type="curve" smooth="yes"/>
      <point x="801" y="896"/>
      <point x="812" y="829"/>
      <point x="812" y="795" type="curve" smooth="yes"/>
      <point x="812" y="710"/>
      <point x="812" y="142"/>
      <point x="812" y="142" type="curve"/>
      <point x="900" y="120" type="line"/>
      <point x="1000" y="175" type="line"/>
      <point x="1000" y="175"/>
      <point x="1000" y="685"/>
      <point x="1000" y="766" type="curve" smooth="yes"/>
      <point x="1000" y="974"/>
      <point x="869" y="1014"/>
      <point x="724" y="1014" type="curve" smooth="yes"/>
      <point x="561" y="1014"/>
      <point x="410" y="880"/>
      <point x="375" y="845" type="curve"/>
      <point x="370" y="804" type="line"/>
    </contour>
    <contour>
      <point x="1136" y="0" type="line" smooth="yes"/>
      <point x="1159" y="0"/>
      <point x="1170" y="26"/>
      <point x="1170" y="41" type="curve" smooth="yes"/>
      <point x="1170" y="70"/>
      <point x="1159" y="75"/>
      <point x="1137" y="78" type="curve" smooth="yes"/>
      <point x="1087" y="85"/>
      <point x="1000" y="79"/>
      <point x="1000" y="175" type="curve"/>
      <point x="812" y="142" type="line"/>
      <point x="812" y="104"/>
      <point x="748" y="82"/>
      <point x="706" y="78" type="curve" smooth="yes"/>
      <point x="680" y="75"/>
      <point x="675" y="62"/>
      <point x="675" y="41" type="curve" smooth="yes"/>
      <point x="675" y="26"/>
      <point x="686" y="0"/>
      <point x="709" y="0" type="curve" smooth="yes"/>
    </contour>
    <contour>
      <point x="720" y="2000" type="move" name="top"/>
    </contour>
    <contour>
      <point x="593" y="-200" type="move" name="btm"/>
    </contour>
  </outline>
</glyph>
<glyph name="i" format="1">
  <advance width="600"/>
  <unicode hex="0069"/>
  <outline>
    <contour>
      <point x="216" y="142" type="line"/>
      <point x="305" y="112" type="line"/>
      <point x="403" y="175" type="line"/>
      <point x="403" y="957" type="line"/>
      <point x="217" y="778" type="line"/>
    </contour>
    <contour>
      <point x="373" y="997" type="curve" smooth="yes"/>
      <point x="316" y="996"/>
      <point x="201" y="995"/>
      <point x="68" y="987" type="curve" smooth="yes"/>
      <point x="52" y="986"/>
      <point x="44" y="959"/>
      <point x="44" y="943" type="curve" smooth="yes"/>
      <point x="44" y="918"/>
      <point x="54" y="909"/>
      <point x="68" y="903" type="curve"/>
      <point x="122" y="889"/>
      <point x="217" y="902"/>
      <point x="217" y="778" type="curve" smooth="yes"/>
      <point x="217" y="777"/>
      <point x="217" y="776"/>
      <point x="218" y="776" type="curve" smooth="yes"/>
      <point x="239" y="776"/>
      <point x="403" y="929"/>
      <point x="403" y="957" type="curve"/>
      <point x="400" y="989"/>
      <point x="384" y="997"/>
    </contour>
    <contour>
      <point x="527" y="0" type="line" smooth="yes"/>
      <point x="549" y="0"/>
      <point x="561" y="26"/>
      <point x="561" y="41" type="curve" smooth="yes"/>
      <point x="561" y="71"/>
      <point x="553" y="75"/>
      <point x="525" y="78" type="curve" smooth="yes"/>
      <point x="476" y="83"/>
      <point x="403" y="89"/>
      <point x="403" y="175" type="curve"/>
      <point x="216" y="142" type="line"/>
      <point x="216" y="98"/>
      <point x="150" y="83"/>
      <point x="101" y="78" type="curve" smooth="yes"/>
      <point x="75" y="75"/>
      <point x="68" y="62"/>
      <point x="68" y="41" type="curve" smooth="yes"/>
      <point x="68" y="26"/>
      <point x="79" y="0"/>
      <point x="102" y="0" type="curve" smooth="yes"/>
    </contour>
    <contour>
      <point x="201" y="1379" type="curve" smooth="yes"/>
      <point x="201" y="1301"/>
      <point x="248" y="1240"/>
      <point x="322" y="1240" type="curve" smooth="yes"/>
      <point x="395" y="1240"/>
      <point x="443" y="1301"/>
      <point x="443" y="1379" type="curve" smooth="yes"/>
      <point x="443" y="1457"/>
      <point x="395" y="1518"/>
      <point x="322" y="1518" type="curve" smooth="yes"/>
      <point x="248" y="1518"/>
      <point x="201" y="1457"/>
    </contour>
    <contour>
      <point x="297" y="2000" type="move" name="top"/>
    </contour>
    <contour>
      <point x="297" y="-200" type="move" name="btm"/>
    </contour>
  </outline>
</glyph>
<glyph name="j" format="1">
  <advance width="598"/>
  <unicode hex="006A"/>
  <outline>
    <contour>
      <point x="211" y="1379" type="curve" smooth="yes"/>
      <point x="211" y="1301"/>
      <point x="258" y="1240"/>
      <point x="332" y="1240" type="curve" smooth="yes"/>
      <point x="405" y="1240"/>
      <point x="453" y="1301"/>
      <point x="453" y="1379" type="curve" smooth="yes"/>
      <point x="453" y="1457"/>
      <point x="405" y="1518"/>
      <point x="332" y="1518" type="curve" smooth="yes"/>
      <point x="258" y="1518"/>
      <point x="211" y="1457"/>
    </contour>
    <contour>
      <point x="245" y="56" type="line"/>
      <point x="341" y="67" type="line"/>
      <point x="431" y="88" type="line"/>
      <point x="432" y="957" type="line"/>
      <point x="246" y="778" type="line"/>
    </contour>
    <contour>
      <point x="402" y="997" type="curve" smooth="yes"/>
      <point x="345" y="996"/>
      <point x="220" y="995"/>
      <point x="87" y="987" type="curve" smooth="yes"/>
      <point x="71" y="986"/>
      <point x="63" y="959"/>
      <point x="63" y="943" type="curve" smooth="yes"/>
      <point x="63" y="918"/>
      <point x="73" y="909"/>
      <point x="87" y="903" type="curve"/>
      <point x="141" y="889"/>
      <point x="246" y="902"/>
      <point x="246" y="778" type="curve" smooth="yes"/>
      <point x="246" y="777"/>
      <point x="246" y="776"/>
      <point x="247" y="776" type="curve" smooth="yes"/>
      <point x="268" y="776"/>
      <point x="432" y="929"/>
      <point x="432" y="957" type="curve"/>
      <point x="429" y="989"/>
      <point x="413" y="997"/>
    </contour>
    <contour>
      <point x="-116" y="-285" type="curve" smooth="yes"/>
      <point x="-116" y="-354"/>
      <point x="-48" y="-449"/>
      <point x="80" y="-449" type="curve" smooth="yes"/>
      <point x="308" y="-449"/>
      <point x="431" y="-187"/>
      <point x="431" y="88" type="curve"/>
      <point x="343" y="119" type="line"/>
      <point x="245" y="56" type="line"/>
      <point x="245" y="-344"/>
      <point x="168" y="-347"/>
      <point x="94" y="-347" type="curve" smooth="yes"/>
      <point x="68" y="-347"/>
      <point x="14" y="-369"/>
      <point x="14" y="-369" type="curve" smooth="yes"/>
      <point x="14" y="-369"/>
      <point x="40" y="-369"/>
      <point x="66" y="-379" type="curve"/>
      <point x="117" y="-364" type="line"/>
      <point x="36" y="-202" type="line"/>
      <point x="27" y="-185"/>
      <point x="9" y="-178"/>
      <point x="-19" y="-178" type="curve" smooth="yes"/>
      <point x="-54" y="-178"/>
      <point x="-116" y="-223"/>
    </contour>
    <contour>
      <point x="173" y="2000" type="move" name="top"/>
    </contour>
    <contour>
      <point x="173" y="-200" type="move" name="btm"/>
    </contour>
  </outline>
</glyph>
<glyph name="k" format="1">
  <advance width="1097"/>
  <unicode hex="006B"/>
  <outline>
    <contour>
      <point x="199" y="142" type="line"/>
      <point x="287" y="112" type="line"/>
      <point x="385" y="175" type="line"/>
      <point x="385" y="1518" type="line"/>
      <point x="199" y="1339" type="line"/>
    </contour>
    <contour>
      <point x="355" y="1558" type="curve" smooth="yes"/>
      <point x="298" y="1557"/>
      <point x="183" y="1556"/>
      <point x="50" y="1548" type="curve" smooth="yes"/>
      <point x="34" y="1547"/>
      <point x="26" y="1520"/>
      <point x="26" y="1504" type="curve" smooth="yes"/>
      <point x="26" y="1479"/>
      <point x="36" y="1470"/>
      <point x="50" y="1464" type="curve"/>
      <point x="104" y="1450"/>
      <point x="199" y="1463"/>
      <point x="199" y="1339" type="curve" smooth="yes"/>
      <point x="199" y="1338"/>
      <point x="199" y="1337"/>
      <point x="200" y="1337" type="curve" smooth="yes"/>
      <point x="221" y="1337"/>
      <point x="385" y="1490"/>
      <point x="385" y="1518" type="curve"/>
      <point x="382" y="1550"/>
      <point x="366" y="1558"/>
    </contour>
    <contour>
      <point x="499" y="0" type="line" smooth="yes"/>
      <point x="521" y="0"/>
      <point x="533" y="26"/>
      <point x="533" y="41" type="curve" smooth="yes"/>
      <point x="533" y="71"/>
      <point x="525" y="75"/>
      <point x="497" y="78" type="curve" smooth="yes"/>
      <point x="448" y="83"/>
      <point x="385" y="89"/>
      <point x="385" y="175" type="curve"/>
      <point x="199" y="142" type="line"/>
      <point x="199" y="98"/>
      <point x="132" y="83"/>
      <point x="83" y="78" type="curve" smooth="yes"/>
      <point x="57" y="75"/>
      <point x="50" y="62"/>
      <point x="50" y="41" type="curve" smooth="yes"/>
      <point x="50" y="26"/>
      <point x="61" y="0"/>
      <point x="84" y="0" type="curve" smooth="yes"/>
    </contour>
    <contour>
      <point x="314" y="352" type="line"/>
      <point x="833" y="819" type="line"/>
      <point x="803" y="874" type="line"/>
      <point x="735" y="842" type="line"/>
      <point x="350" y="491" type="line"/>
    </contour>
    <contour>
      <point x="612" y="994" type="line" smooth="yes"/>
      <point x="589" y="994"/>
      <point x="578" y="964"/>
      <point x="578" y="949" type="curve" smooth="yes"/>
      <point x="578" y="928"/>
      <point x="583" y="909"/>
      <point x="609" y="906" type="curve"/>
      <point x="671" y="902"/>
      <point x="793" y="885"/>
      <point x="735" y="842" type="curve"/>
      <point x="833" y="819" type="line"/>
      <point x="883" y="858"/>
      <point x="955" y="906"/>
      <point x="1020" y="906" type="curve" smooth="yes"/>
      <point x="1042" y="906"/>
      <point x="1053" y="925"/>
      <point x="1053" y="949" type="curve" smooth="yes"/>
      <point x="1053" y="964"/>
      <point x="1042" y="994"/>
      <point x="1019" y="994" type="curve" smooth="yes"/>
    </contour>
    <contour>
      <point x="1093" y="0" type="line" smooth="yes"/>
      <point x="1116" y="0"/>
      <point x="1127" y="26"/>
      <point x="1127" y="41" type="curve" smooth="yes"/>
      <point x="1127" y="70"/>
      <point x="1116" y="75"/>
      <point x="1094" y="78" type="curve" smooth="yes"/>
      <point x="1044" y="85"/>
      <point x="992" y="116"/>
      <point x="941" y="175" type="curve" smooth="yes"/>
      <point x="817" y="320"/>
      <point x="669" y="545"/>
      <point x="573" y="614" type="curve"/>
      <point x="457" y="513" type="line"/>
      <point x="563" y="417"/>
      <point x="725" y="145"/>
      <point x="809" y="0" type="curve"/>
    </contour>
    <contour>
      <point x="576" y="2000" type="move" name="top"/>
    </contour>
    <contour>
      <point x="576" y="-200" type="move" name="btm"/>
    </contour>
  </outline>
</glyph>
<glyph name="l" format="1">
  <advance width="586"/>
  <unicode hex="006C"/>
  <outline>
    <contour>
      <point x="199" y="142" type="line"/>
      <point x="288" y="112" type="line"/>
      <point x="386" y="175" type="line"/>
      <point x="386" y="1518" type="line"/>
      <point x="200" y="1339" type="line"/>
    </contour>
    <contour>
      <point x="356" y="1558" type="curve" smooth="yes"/>
      <point x="299" y="1557"/>
      <point x="174" y="1556"/>
      <point x="41" y="1548" type="curve" smooth="yes"/>
      <point x="25" y="1547"/>
      <point x="17" y="1520"/>
      <point x="17" y="1504" type="curve" smooth="yes"/>
      <point x="17" y="1479"/>
      <point x="27" y="1470"/>
      <point x="41" y="1464" type="curve"/>
      <point x="95" y="1450"/>
      <point x="200" y="1463"/>
      <point x="200" y="1339" type="curve" smooth="yes"/>
      <point x="200" y="1338"/>
      <point x="200" y="1337"/>
      <point x="201" y="1337" type="curve" smooth="yes"/>
      <point x="222" y="1337"/>
      <point x="386" y="1490"/>
      <point x="386" y="1518" type="curve"/>
      <point x="383" y="1550"/>
      <point x="367" y="1558"/>
    </contour>
    <contour>
      <point x="510" y="0" type="line" smooth="yes"/>
      <point x="532" y="0"/>
      <point x="544" y="26"/>
      <point x="544" y="41" type="curve" smooth="yes"/>
      <point x="544" y="71"/>
      <point x="536" y="75"/>
      <point x="508" y="78" type="curve" smooth="yes"/>
      <point x="459" y="83"/>
      <point x="386" y="89"/>
      <point x="386" y="175" type="curve"/>
      <point x="199" y="142" type="line"/>
      <point x="199" y="98"/>
      <point x="133" y="83"/>
      <point x="84" y="78" type="curve" smooth="yes"/>
      <point x="58" y="75"/>
      <point x="51" y="62"/>
      <point x="51" y="41" type="curve" smooth="yes"/>
      <point x="51" y="26"/>
      <point x="62" y="0"/>
      <point x="85" y="0" type="curve" smooth="yes"/>
    </contour>
    <contour>
      <point x="280" y="2000" type="move" name="top"/>
    </contour>
    <contour>
      <point x="280" y="-200" type="move" name="btm"/>
    </contour>
  </outline>
</glyph>
<glyph name="n" format="1">
  <advance width="1210"/>
  <unicode hex="006E"/>
  <outline>
    <contour>
      <point x="403" y="771" type="line"/>
      <point x="458" y="822"/>
      <point x="576" y="896"/>
      <point x="701" y="896" type="curve" smooth="yes"/>
      <point x="819" y="896"/>
      <point x="830" y="829"/>
      <point x="830" y="795" type="curve" smooth="yes"/>
      <point x="830" y="710"/>
      <point x="830" y="142"/>
      <point x="830" y="142" type="curve"/>
      <point x="918" y="120" type="line"/>
      <point x="1018" y="175" type="line"/>
      <point x="1018" y="175"/>
      <point x="1018" y="685"/>
      <point x="1018" y="766" type="curve" smooth="yes"/>
      <point x="1018" y="974"/>
      <point x="887" y="1014"/>
      <point x="742" y="1014" type="curve" smooth="yes"/>
      <point x="579" y="1014"/>
      <point x="428" y="880"/>
      <point x="393" y="845" type="curve"/>
      <point x="388" y="804" type="line"/>
    </contour>
    <contour>
      <point x="217" y="142" type="line"/>
      <point x="305" y="112" type="line"/>
      <point x="403" y="175" type="line"/>
      <point x="403" y="805" type="line"/>
      <point x="393" y="827" type="line"/>
      <point x="393" y="957" type="line"/>
      <point x="217" y="778" type="line"/>
    </contour>
    <contour>
      <point x="363" y="997" type="curve" smooth="yes"/>
      <point x="308" y="996"/>
      <point x="197" y="995"/>
      <point x="68" y="987" type="curve" smooth="yes"/>
      <point x="52" y="986"/>
      <point x="44" y="959"/>
      <point x="44" y="943" type="curve" smooth="yes"/>
      <point x="44" y="918"/>
      <point x="54" y="909"/>
      <point x="68" y="903" type="curve"/>
      <point x="118" y="889"/>
      <point x="217" y="902"/>
      <point x="217" y="778" type="curve" smooth="yes"/>
      <point x="217" y="777"/>
      <point x="217" y="776"/>
      <point x="218" y="776" type="curve" smooth="yes"/>
      <point x="239" y="776"/>
      <point x="393" y="929"/>
      <point x="393" y="957" type="curve"/>
      <point x="390" y="989"/>
      <point x="374" y="997"/>
    </contour>
    <contour>
      <point x="517" y="0" type="line" smooth="yes"/>
      <point x="539" y="0"/>
      <point x="551" y="26"/>
      <point x="551" y="41" type="curve" smooth="yes"/>
      <point x="551" y="71"/>
      <point x="543" y="75"/>
      <point x="515" y="78" type="curve" smooth="yes"/>
      <point x="466" y="83"/>
      <point x="403" y="89"/>
      <point x="403" y="175" type="curve"/>
      <point x="217" y="142" type="line"/>
      <point x="217" y="98"/>
      <point x="150" y="83"/>
      <point x="101" y="78" type="curve" smooth="yes"/>
      <point x="75" y="75"/>
      <point x="68" y="62"/>
      <point x="68" y="41" type="curve" smooth="yes"/>
      <point x="68" y="26"/>
      <point x="79" y="0"/>
      <point x="102" y="0" type="curve" smooth="yes"/>
    </contour>
    <contour>
      <point x="1154" y="0" type="line" smooth="yes"/>
      <point x="1177" y="0"/>
      <point x="1188" y="26"/>
      <point x="1188" y="41" type="curve" smooth="yes"/>
      <point x="1188" y="70"/>
      <point x="1177" y="75"/>
      <point x="1155" y="78" type="curve" smooth="yes"/>
      <point x="1105" y="85"/>
      <point x="1018" y="79"/>
      <point x="1018" y="175" type="curve"/>
      <point x="830" y="142" type="line"/>
      <point x="830" y="104"/>
      <point x="766" y="82"/>
      <point x="724" y="78" type="curve" smooth="yes"/>
      <point x="698" y="75"/>
      <point x="693" y="62"/>
      <point x="693" y="41" type="curve" smooth="yes"/>
      <point x="693" y="26"/>
      <point x="704" y="0"/>
      <point x="727" y="0" type="curve" smooth="yes"/>
    </contour>
    <contour>
      <point x="616" y="-200" type="move" name="btm"/>
    </contour>
    <contour>
      <point x="587" y="2000" type="move" name="top"/>
    </contour>
  </outline>
</glyph>
<glyph name="o" format="1">
  <advance width="1104"/>
  <unicode hex="006F"/>
  <outline>
    <contour>
      <point x="77" y="492" type="curve" smooth="yes"/>
      <point x="77" y="204"/>
      <point x="250" y="-29"/>
      <point x="550" y="-29" type="curve" smooth="yes"/>
      <point x="850" y="-29"/>
      <point x="1027" y="204"/>
      <point x="1027" y="492" type="curve" smooth="yes"/>
      <point x="1027" y="780"/>
      <point x="857" y="1014"/>
      <point x="557" y="1014" type="curve" smooth="yes"/>
      <point x="257" y="1014"/>
      <point x="77" y="780"/>
    </contour>
    <contour>
      <point x="292" y="492" type="curve" smooth="yes"/>
      <point x="292" y="759"/>
      <point x="347" y="918"/>
      <point x="549" y="918" type="curve" smooth="yes"/>
      <point x="750" y="918"/>
      <point x="810" y="760"/>
      <point x="810" y="492" type="curve" smooth="yes"/>
      <point x="810" y="224"/>
      <point x="754" y="66"/>
      <point x="553" y="66" type="curve" smooth="yes"/>
      <point x="351" y="66"/>
      <point x="292" y="224"/>
    </contour>
    <contour>
      <point x="552" y="-200" type="move" name="btm"/>
    </contour>
    <contour>
      <point x="552" y="2000" type="move" name="top"/>
    </contour>
  </outline>
</glyph>
<glyph name="p" format="1">
  <advance width="1170"/>
  <unicode hex="0070"/>
  <outline>
    <contour>
      <point x="199" y="-302" type="line"/>
      <point x="287" y="-332" type="line"/>
      <point x="385" y="-302" type="line"/>
      <point x="385" y="-29" type="line"/>
      <point x="375" y="45" type="line"/>
      <point x="385" y="121" type="line"/>
      <point x="385" y="957" type="line"/>
      <point x="199" y="778" type="line"/>
    </contour>
    <contour>
      <point x="355" y="997" type="curve" smooth="yes"/>
      <point x="300" y="996"/>
      <point x="179" y="995"/>
      <point x="50" y="987" type="curve" smooth="yes"/>
      <point x="34" y="986"/>
      <point x="26" y="959"/>
      <point x="26" y="943" type="curve" smooth="yes"/>
      <point x="26" y="918"/>
      <point x="36" y="909"/>
      <point x="50" y="903" type="curve"/>
      <point x="100" y="889"/>
      <point x="199" y="902"/>
      <point x="199" y="778" type="curve" smooth="yes"/>
      <point x="199" y="777"/>
      <point x="199" y="776"/>
      <point x="200" y="776" type="curve" smooth="yes"/>
      <point x="221" y="776"/>
      <point x="385" y="929"/>
      <point x="385" y="957" type="curve"/>
      <point x="382" y="989"/>
      <point x="366" y="997"/>
    </contour>
    <contour>
      <point x="560" y="-444" type="line" smooth="yes"/>
      <point x="583" y="-444"/>
      <point x="594" y="-418"/>
      <point x="594" y="-403" type="curve" smooth="yes"/>
      <point x="594" y="-382"/>
      <point x="587" y="-369"/>
      <point x="561" y="-366" type="curve"/>
      <point x="482" y="-361"/>
      <point x="385" y="-346"/>
      <point x="385" y="-302" type="curve"/>
      <point x="199" y="-269" type="line"/>
      <point x="199" y="-355"/>
      <point x="126" y="-361"/>
      <point x="77" y="-366" type="curve" smooth="yes"/>
      <point x="49" y="-369"/>
      <point x="41" y="-373"/>
      <point x="41" y="-403" type="curve" smooth="yes"/>
      <point x="41" y="-418"/>
      <point x="53" y="-444"/>
      <point x="75" y="-444" type="curve" smooth="yes"/>
    </contour>
    <contour>
      <point x="338" y="89" type="line"/>
      <point x="390" y="-2"/>
      <point x="510" y="-30"/>
      <point x="640" y="-30" type="curve" smooth="yes"/>
      <point x="956" y="-30"/>
      <point x="1090" y="223"/>
      <point x="1090" y="492" type="curve" smooth="yes"/>
      <point x="1090" y="762"/>
      <point x="977" y="1014"/>
      <point x="662" y="1014" type="curve" smooth="yes"/>
      <point x="552" y="1014"/>
      <point x="412" y="947"/>
      <point x="350" y="850" type="curve"/>
      <point x="368" y="793" type="line"/>
      <point x="404" y="858"/>
      <point x="515" y="918"/>
      <point x="599" y="918" type="curve" smooth="yes"/>
      <point x="822" y="918"/>
      <point x="883" y="732"/>
      <point x="883" y="492" type="curve" smooth="yes"/>
      <point x="883" y="252"/>
      <point x="826" y="65"/>
      <point x="603" y="65" type="curve" smooth="yes"/>
      <point x="476" y="65"/>
      <point x="394" y="110"/>
      <point x="364" y="203" type="curve"/>
    </contour>
    <contour>
      <point x="563" y="2000" type="move" name="top"/>
    </contour>
    <contour>
      <point x="563" y="-200" type="move" name="btm"/>
    </contour>
  </outline>
</glyph>
<glyph name="q" format="1">
  <advance width="1146"/>
  <unicode hex="0071"/>
  <outline>
    <contour>
      <point x="976" y="778" type="line"/>
      <point x="790" y="928" type="line"/>
      <point x="790" y="141" type="line"/>
      <point x="800" y="108" type="line"/>
      <point x="790" y="-29" type="line"/>
      <point x="790" y="-302" type="line"/>
      <point x="888" y="-332" type="line"/>
      <point x="976" y="-302" type="line"/>
    </contour>
    <contour>
      <point x="790" y="914" type="curve" smooth="yes"/>
      <point x="790" y="886"/>
      <point x="954" y="776"/>
      <point x="975" y="776" type="curve" smooth="yes"/>
      <point x="976" y="776"/>
      <point x="976" y="777"/>
      <point x="976" y="778" type="curve"/>
      <point x="976" y="963" type="line" smooth="yes"/>
      <point x="976" y="985"/>
      <point x="967" y="996"/>
      <point x="942" y="996" type="curve" smooth="yes"/>
      <point x="834" y="996" type="line" smooth="yes"/>
      <point x="797" y="996"/>
      <point x="790" y="988"/>
    </contour>
    <contour>
      <point x="1100" y="-444" type="line" smooth="yes"/>
      <point x="1123" y="-444"/>
      <point x="1134" y="-418"/>
      <point x="1134" y="-403" type="curve" smooth="yes"/>
      <point x="1134" y="-373"/>
      <point x="1126" y="-369"/>
      <point x="1098" y="-366" type="curve" smooth="yes"/>
      <point x="1045" y="-361"/>
      <point x="976" y="-355"/>
      <point x="976" y="-269" type="curve"/>
      <point x="790" y="-302" type="line"/>
      <point x="790" y="-346"/>
      <point x="708" y="-361"/>
      <point x="634" y="-366" type="curve"/>
      <point x="608" y="-369"/>
      <point x="601" y="-382"/>
      <point x="601" y="-403" type="curve" smooth="yes"/>
      <point x="601" y="-418"/>
      <point x="612" y="-444"/>
      <point x="635" y="-444" type="curve" smooth="yes"/>
    </contour>
    <contour>
      <point x="832" y="894" type="line"/>
      <point x="780" y="985"/>
      <point x="660" y="1014"/>
      <point x="530" y="1014" type="curve" smooth="yes"/>
      <point x="214" y="1014"/>
      <point x="80" y="760"/>
      <point x="80" y="491" type="curve" smooth="yes"/>
      <point x="80" y="221"/>
      <point x="193" y="-30"/>
      <point x="508" y="-30" type="curve" smooth="yes"/>
      <point x="618" y="-30"/>
      <point x="758" y="36"/>
      <point x="820" y="133" type="curve"/>
      <point x="802" y="190" type="line"/>
      <point x="766" y="125"/>
      <point x="655" y="65"/>
      <point x="571" y="65" type="curve" smooth="yes"/>
      <point x="348" y="65"/>
      <point x="287" y="251"/>
      <point x="287" y="491" type="curve" smooth="yes"/>
      <point x="287" y="731"/>
      <point x="344" y="918"/>
      <point x="567" y="918" type="curve" smooth="yes"/>
      <point x="694" y="918"/>
      <point x="776" y="873"/>
      <point x="806" y="780" type="curve"/>
    </contour>
    <contour>
      <point x="614" y="2000" type="move" name="top"/>
    </contour>
    <contour>
      <point x="614" y="-200" type="move" name="btm"/>
    </contour>
  </outline>
</glyph>
<glyph name="r" format="1">
  <advance width="839"/>
  <unicode hex="0072"/>
  <outline>
    <contour>
      <point x="227" y="142" type="line"/>
      <point x="315" y="112" type="line"/>
      <point x="413" y="175" type="line"/>
      <point x="413" y="797" type="line"/>
      <point x="403" y="814" type="line"/>
      <point x="403" y="957" type="line"/>
      <point x="227" y="778" type="line"/>
    </contour>
    <contour>
      <point x="373" y="997" type="curve" smooth="yes"/>
      <point x="316" y="996"/>
      <point x="211" y="995"/>
      <point x="78" y="987" type="curve" smooth="yes"/>
      <point x="63" y="986"/>
      <point x="54" y="959"/>
      <point x="54" y="943" type="curve" smooth="yes"/>
      <point x="54" y="918"/>
      <point x="64" y="909"/>
      <point x="78" y="903" type="curve"/>
      <point x="132" y="889"/>
      <point x="227" y="902"/>
      <point x="227" y="778" type="curve" smooth="yes"/>
      <point x="227" y="777"/>
      <point x="227" y="776"/>
      <point x="228" y="776" type="curve" smooth="yes"/>
      <point x="249" y="776"/>
      <point x="403" y="929"/>
      <point x="403" y="957" type="curve"/>
      <point x="400" y="989"/>
      <point x="384" y="997"/>
    </contour>
    <contour>
      <point x="587" y="0" type="line" smooth="yes"/>
      <point x="610" y="0"/>
      <point x="621" y="26"/>
      <point x="621" y="41" type="curve" smooth="yes"/>
      <point x="621" y="71"/>
      <point x="613" y="75"/>
      <point x="585" y="78" type="curve"/>
      <point x="516" y="83"/>
      <point x="413" y="89"/>
      <point x="413" y="175" type="curve"/>
      <point x="227" y="142" type="line"/>
      <point x="227" y="98"/>
      <point x="165" y="83"/>
      <point x="111" y="78" type="curve" smooth="yes"/>
      <point x="85" y="75"/>
      <point x="78" y="62"/>
      <point x="78" y="41" type="curve" smooth="yes"/>
      <point x="78" y="26"/>
      <point x="89" y="0"/>
      <point x="112" y="0" type="curve" smooth="yes"/>
    </contour>
    <contour>
      <point x="423" y="732" type="line"/>
      <point x="461" y="830"/>
      <point x="547" y="910"/>
      <point x="629" y="910" type="curve" smooth="yes"/>
      <point x="655" y="910"/>
      <point x="709" y="929"/>
      <point x="709" y="932" type="curve" smooth="yes"/>
      <point x="709" y="938"/>
      <point x="683" y="942"/>
      <point x="657" y="942" type="curve" smooth="yes"/>
      <point x="629" y="942"/>
      <point x="598" y="928"/>
      <point x="605" y="915" type="curve" smooth="yes"/>
      <point x="649" y="835"/>
      <point x="662" y="789"/>
      <point x="687" y="775" type="curve"/>
      <point x="709" y="760"/>
      <point x="819" y="783"/>
      <point x="819" y="873" type="curve" smooth="yes"/>
      <point x="819" y="942"/>
      <point x="791" y="1014"/>
      <point x="663" y="1014" type="curve" smooth="yes"/>
      <point x="498" y="1014"/>
      <point x="406" y="845"/>
      <point x="393" y="815" type="curve"/>
      <point x="394" y="747" type="line"/>
    </contour>
    <contour>
      <point x="451" y="2000" type="move" name="top"/>
    </contour>
    <contour>
      <point x="451" y="-200" type="move" name="btm"/>
    </contour>
  </outline>
</glyph>
<glyph name="s" format="1">
  <advance width="885"/>
  <unicode hex="0073"/>
  <outline>
    <contour>
      <point x="291" y="805" type="curve" smooth="yes"/>
      <point x="291" y="903"/>
      <point x="361" y="928"/>
      <point x="456" y="928" type="curve" smooth="yes"/>
      <point x="620" y="928"/>
      <point x="667" y="802"/>
      <point x="701" y="722" type="curve" smooth="yes"/>
      <point x="709" y="703"/>
      <point x="766" y="688"/>
      <point x="757" y="757" type="curve" smooth="yes"/>
      <point x="747" y="836"/>
      <point x="755" y="975"/>
      <point x="755" y="994" type="curve" smooth="yes"/>
      <point x="755" y="1033"/>
      <point x="709" y="1041"/>
      <point x="691" y="1008" type="curve" smooth="yes"/>
      <point x="681" y="991"/>
      <point x="686" y="969"/>
      <point x="639" y="977" type="curve" smooth="yes"/>
      <point x="612" y="982"/>
      <point x="563" y="1014"/>
      <point x="452" y="1014" type="curve" smooth="yes"/>
      <point x="312" y="1014"/>
      <point x="129" y="953"/>
      <point x="129" y="759" type="curve" smooth="yes"/>
      <point x="129" y="403"/>
      <point x="641" y="415"/>
      <point x="641" y="206" type="curve" smooth="yes"/>
      <point x="641" y="92"/>
      <point x="541" y="55"/>
      <point x="462" y="55" type="curve" smooth="yes"/>
      <point x="389" y="55"/>
      <point x="261" y="93"/>
      <point x="211" y="188" type="curve" smooth="yes"/>
      <point x="156" y="282"/>
      <point x="156" y="328"/>
      <point x="148" y="357" type="curve" smooth="yes"/>
      <point x="140" y="387"/>
      <point x="82" y="393"/>
      <point x="82" y="336" type="curve" smooth="yes"/>
      <point x="82" y="279"/>
      <point x="96" y="86"/>
      <point x="96" y="54" type="curve" smooth="yes"/>
      <point x="96" y="22"/>
      <point x="132" y="10"/>
      <point x="169" y="28" type="curve" smooth="yes"/>
      <point x="190" y="38"/>
      <point x="211" y="33"/>
      <point x="252" y="20" type="curve" smooth="yes"/>
      <point x="287" y="7"/>
      <point x="348" y="-30"/>
      <point x="475" y="-30" type="curve" smooth="yes"/>
      <point x="663" y="-30"/>
      <point x="819" y="56"/>
      <point x="819" y="262" type="curve" smooth="yes"/>
      <point x="819" y="560"/>
      <point x="291" y="612"/>
    </contour>
    <contour>
      <point x="463" y="-200" type="move" name="btm"/>
    </contour>
    <contour>
      <point x="450" y="2000" type="move" name="top"/>
    </contour>
  </outline>
</glyph>
<glyph name="t" format="1">
  <advance width="707"/>
  <unicode hex="0074"/>
  <outline>
    <contour>
      <point x="655" y="138" type="line"/>
      <point x="602" y="113"/>
      <point x="558" y="89"/>
      <point x="466" y="89" type="curve" smooth="yes"/>
      <point x="415" y="89"/>
      <point x="355" y="126"/>
      <point x="355" y="296" type="curve" smooth="yes"/>
      <point x="355" y="1267" type="line" smooth="yes"/>
      <point x="355" y="1275"/>
      <point x="356" y="1291"/>
      <point x="339" y="1291" type="curve"/>
      <point x="316" y="1291"/>
      <point x="289" y="1295"/>
      <point x="283" y="1268" type="curve" smooth="yes"/>
      <point x="235" y="1056"/>
      <point x="177" y="994"/>
      <point x="54" y="984" type="curve"/>
      <point x="169" y="945" type="line"/>
      <point x="169" y="223" type="line" smooth="yes"/>
      <point x="169" y="20"/>
      <point x="273" y="-30"/>
      <point x="424" y="-30" type="curve" smooth="yes"/>
      <point x="522" y="-30"/>
      <point x="654" y="41"/>
      <point x="689" y="78" type="curve"/>
    </contour>
    <contour>
      <point x="650" y="907" type="line"/>
      <point x="664" y="913"/>
      <point x="674" y="935"/>
      <point x="674" y="960" type="curve" smooth="yes"/>
      <point x="674" y="976"/>
      <point x="666" y="993"/>
      <point x="650" y="994" type="curve"/>
      <point x="156" y="994" type="line"/>
      <point x="54" y="984" type="line"/>
      <point x="40" y="978"/>
      <point x="30" y="966"/>
      <point x="30" y="941" type="curve" smooth="yes"/>
      <point x="30" y="925"/>
      <point x="38" y="908"/>
      <point x="54" y="907" type="curve"/>
    </contour>
    <contour>
      <point x="289" y="2132" type="move" name="top"/>
    </contour>
    <contour>
      <point x="393" y="-200" type="move" name="btm"/>
    </contour>
  </outline>
</glyph>
<glyph name="u" format="1">
  <advance width="1178"/>
  <unicode hex="0075"/>
  <outline>
    <contour>
      <point x="791" y="220" type="line"/>
      <point x="726" y="150"/>
      <point x="651" y="113"/>
      <point x="516" y="113" type="curve" smooth="yes"/>
      <point x="398" y="113"/>
      <point x="387" y="212"/>
      <point x="387" y="261" type="curve" smooth="yes"/>
      <point x="387" y="341"/>
      <point x="387" y="862"/>
      <point x="387" y="862" type="curve"/>
      <point x="299" y="874" type="line"/>
      <point x="199" y="819" type="line"/>
      <point x="199" y="819"/>
      <point x="199" y="346"/>
      <point x="199" y="270" type="curve" smooth="yes"/>
      <point x="199" y="22"/>
      <point x="340" y="-27"/>
      <point x="485" y="-27" type="curve" smooth="yes"/>
      <point x="618" y="-27"/>
      <point x="756" y="66"/>
      <point x="791" y="131" type="curve"/>
      <point x="806" y="182" type="line"/>
    </contour>
    <contour>
      <point x="637" y="994" type="line" smooth="yes"/>
      <point x="615" y="994"/>
      <point x="603" y="968"/>
      <point x="603" y="953" type="curve" smooth="yes"/>
      <point x="603" y="923"/>
      <point x="611" y="919"/>
      <point x="639" y="916" type="curve" smooth="yes"/>
      <point x="706" y="911"/>
      <point x="791" y="905"/>
      <point x="791" y="819" type="curve"/>
      <point x="977" y="862" type="line"/>
      <point x="977" y="958" type="line" smooth="yes"/>
      <point x="977" y="979"/>
      <point x="968" y="994"/>
      <point x="940" y="994" type="curve" smooth="yes"/>
    </contour>
    <contour>
      <point x="87" y="994" type="line" smooth="yes"/>
      <point x="65" y="994"/>
      <point x="53" y="968"/>
      <point x="53" y="953" type="curve" smooth="yes"/>
      <point x="53" y="923"/>
      <point x="61" y="919"/>
      <point x="89" y="916" type="curve" smooth="yes"/>
      <point x="138" y="911"/>
      <point x="199" y="905"/>
      <point x="199" y="819" type="curve"/>
      <point x="387" y="862" type="line"/>
      <point x="387" y="958" type="line" smooth="yes"/>
      <point x="387" y="979"/>
      <point x="378" y="994"/>
      <point x="350" y="994" type="curve" smooth="yes"/>
    </contour>
    <contour>
      <point x="791" y="202" type="line"/>
      <point x="793" y="189"/>
      <point x="787" y="189"/>
      <point x="787" y="173" type="curve" smooth="yes"/>
      <point x="786" y="151"/>
      <point x="807" y="-25"/>
      <point x="920" y="-25" type="curve" smooth="yes"/>
      <point x="1028" y="-25"/>
      <point x="1094" y="22"/>
      <point x="1107" y="37" type="curve"/>
      <point x="1123" y="50"/>
      <point x="1104" y="105"/>
      <point x="1073" y="96" type="curve" smooth="yes"/>
      <point x="1049" y="89"/>
      <point x="1034" y="88"/>
      <point x="1015" y="88" type="curve" smooth="yes"/>
      <point x="993" y="88"/>
      <point x="977" y="140"/>
      <point x="977" y="210" type="curve"/>
      <point x="977" y="862" type="line"/>
      <point x="889" y="892" type="line"/>
      <point x="791" y="819" type="line"/>
    </contour>
    <contour>
      <point x="561" y="2000" type="move" name="top"/>
    </contour>
    <contour>
      <point x="597" y="-200" type="move" name="btm"/>
    </contour>
  </outline>
</glyph>
<glyph name="v" format="1">
  <advance width="1017"/>
  <unicode hex="0076"/>
  <outline>
    <contour>
      <point x="315" y="862" type="line"/>
      <point x="227" y="892" type="line"/>
      <point x="139" y="829" type="line"/>
      <point x="476" y="-9" type="line"/>
      <point x="592" y="191" type="line"/>
    </contour>
    <contour>
      <point x="15" y="994" type="line"/>
      <point x="-7" y="994"/>
      <point x="-19" y="968"/>
      <point x="-19" y="953" type="curve" smooth="yes"/>
      <point x="-19" y="923"/>
      <point x="-11" y="919"/>
      <point x="17" y="916" type="curve" smooth="yes"/>
      <point x="66" y="911"/>
      <point x="99" y="895"/>
      <point x="139" y="829" type="curve"/>
      <point x="315" y="862" type="line"/>
      <point x="315" y="906"/>
      <point x="372" y="911"/>
      <point x="421" y="916" type="curve" smooth="yes"/>
      <point x="447" y="919"/>
      <point x="454" y="932"/>
      <point x="454" y="953" type="curve" smooth="yes"/>
      <point x="454" y="968"/>
      <point x="443" y="994"/>
      <point x="420" y="994" type="curve"/>
    </contour>
    <contour>
      <point x="540" y="181" type="line"/>
      <point x="476" y="-9" type="line"/>
      <point x="550" y="-9" type="line"/>
      <point x="897" y="829" type="line"/>
      <point x="829" y="892" type="line"/>
      <point x="811" y="862" type="line"/>
    </contour>
    <contour>
      <point x="686" y="994" type="line"/>
      <point x="663" y="994"/>
      <point x="652" y="968"/>
      <point x="652" y="953" type="curve" smooth="yes"/>
      <point x="652" y="932"/>
      <point x="659" y="919"/>
      <point x="685" y="916" type="curve" smooth="yes"/>
      <point x="734" y="911"/>
      <point x="811" y="906"/>
      <point x="811" y="862" type="curve"/>
      <point x="897" y="829" type="line"/>
      <point x="937" y="895"/>
      <point x="970" y="911"/>
      <point x="1019" y="916" type="curve" smooth="yes"/>
      <point x="1047" y="919"/>
      <point x="1055" y="923"/>
      <point x="1055" y="953" type="curve" smooth="yes"/>
      <point x="1055" y="968"/>
      <point x="1043" y="994"/>
      <point x="1021" y="994" type="curve" smooth="yes"/>
    </contour>
    <contour>
      <point x="518" y="-200" type="move" name="btm"/>
    </contour>
    <contour>
      <point x="518" y="2000" type="move" name="top"/>
    </contour>
  </outline>
</glyph>
<glyph name="w" format="1">
  <advance width="1510"/>
  <unicode hex="0077"/>
  <outline>
    <contour>
      <point x="315" y="862" type="line"/>
      <point x="227" y="892" type="line"/>
      <point x="139" y="829" type="line"/>
      <point x="445" y="-9" type="line"/>
      <point x="561" y="191" type="line"/>
    </contour>
    <contour>
      <point x="15" y="994" type="line" smooth="yes"/>
      <point x="-7" y="994"/>
      <point x="-19" y="968"/>
      <point x="-19" y="953" type="curve" smooth="yes"/>
      <point x="-19" y="923"/>
      <point x="-11" y="919"/>
      <point x="17" y="916" type="curve" smooth="yes"/>
      <point x="66" y="911"/>
      <point x="99" y="895"/>
      <point x="139" y="829" type="curve"/>
      <point x="315" y="862" type="line"/>
      <point x="315" y="906"/>
      <point x="372" y="911"/>
      <point x="421" y="916" type="curve" smooth="yes"/>
      <point x="447" y="919"/>
      <point x="454" y="932"/>
      <point x="454" y="953" type="curve" smooth="yes"/>
      <point x="454" y="968"/>
      <point x="443" y="994"/>
      <point x="420" y="994" type="curve" smooth="yes"/>
    </contour>
    <contour>
      <point x="502" y="186" type="line"/>
      <point x="445" y="-9" type="line"/>
      <point x="519" y="-9" type="line"/>
      <point x="802" y="829" type="line"/>
      <point x="760" y="976" type="line"/>
      <point x="713" y="848" type="line"/>
    </contour>
    <contour>
      <point x="856" y="976" type="line"/>
      <point x="760" y="976" type="line"/>
      <point x="719" y="829" type="line"/>
      <point x="1027" y="-9" type="line"/>
      <point x="1143" y="191" type="line"/>
    </contour>
    <contour>
      <point x="1076" y="174" type="line"/>
      <point x="1027" y="-9" type="line"/>
      <point x="1101" y="-9" type="line"/>
      <point x="1393" y="829" type="line"/>
      <point x="1325" y="892" type="line"/>
      <point x="1307" y="862" type="line"/>
    </contour>
    <contour>
      <point x="1182" y="994" type="line" smooth="yes"/>
      <point x="1159" y="994"/>
      <point x="1148" y="968"/>
      <point x="1148" y="953" type="curve" smooth="yes"/>
      <point x="1148" y="932"/>
      <point x="1155" y="919"/>
      <point x="1181" y="916" type="curve" smooth="yes"/>
      <point x="1230" y="911"/>
      <point x="1307" y="906"/>
      <point x="1307" y="862" type="curve"/>
      <point x="1393" y="829" type="line"/>
      <point x="1433" y="895"/>
      <point x="1456" y="911"/>
      <point x="1505" y="916" type="curve" smooth="yes"/>
      <point x="1533" y="919"/>
      <point x="1541" y="923"/>
      <point x="1541" y="953" type="curve" smooth="yes"/>
      <point x="1541" y="968"/>
      <point x="1529" y="994"/>
      <point x="1507" y="994" type="curve" smooth="yes"/>
    </contour>
    <contour>
      <point x="761" y="-200" type="move" name="btm"/>
    </contour>
    <contour>
      <point x="761" y="2000" type="move" name="top"/>
    </contour>
  </outline>
</glyph>
<glyph name="x" format="1">
  <advance width="1034"/>
  <unicode hex="0078"/>
  <outline>
    <contour>
      <point x="197" y="829" type="line"/>
      <point x="660" y="132" type="line"/>
      <point x="788" y="110" type="line"/>
      <point x="858" y="165" type="line"/>
      <point x="395" y="862" type="line"/>
      <point x="267" y="889" type="line"/>
    </contour>
    <contour>
      <point x="994" y="0" type="line" smooth="yes"/>
      <point x="1017" y="0"/>
      <point x="1028" y="26"/>
      <point x="1028" y="41" type="curve" smooth="yes"/>
      <point x="1028" y="70"/>
      <point x="1017" y="75"/>
      <point x="995" y="78" type="curve" smooth="yes"/>
      <point x="945" y="85"/>
      <point x="908" y="105"/>
      <point x="858" y="165" type="curve"/>
      <point x="660" y="132" type="line"/>
      <point x="698" y="89"/>
      <point x="645" y="82"/>
      <point x="604" y="78" type="curve" smooth="yes"/>
      <point x="577" y="75"/>
      <point x="573" y="62"/>
      <point x="573" y="41" type="curve" smooth="yes"/>
      <point x="573" y="26"/>
      <point x="584" y="0"/>
      <point x="607" y="0" type="curve" smooth="yes"/>
    </contour>
    <contour>
      <point x="61" y="994" type="line" smooth="yes"/>
      <point x="38" y="994"/>
      <point x="27" y="968"/>
      <point x="27" y="953" type="curve" smooth="yes"/>
      <point x="27" y="924"/>
      <point x="38" y="919"/>
      <point x="60" y="916" type="curve" smooth="yes"/>
      <point x="110" y="909"/>
      <point x="147" y="889"/>
      <point x="197" y="829" type="curve"/>
      <point x="395" y="862" type="line"/>
      <point x="357" y="915"/>
      <point x="408" y="912"/>
      <point x="451" y="916" type="curve" smooth="yes"/>
      <point x="478" y="919"/>
      <point x="482" y="932"/>
      <point x="482" y="953" type="curve" smooth="yes"/>
      <point x="482" y="968"/>
      <point x="471" y="994"/>
      <point x="448" y="994" type="curve" smooth="yes"/>
    </contour>
    <contour>
      <point x="296" y="146" type="line"/>
      <point x="813" y="829" type="line"/>
      <point x="783" y="884" type="line"/>
      <point x="709" y="848" type="line"/>
      <point x="192" y="165" type="line"/>
      <point x="180" y="89" type="line"/>
    </contour>
    <contour>
      <point x="636" y="994" type="line" smooth="yes"/>
      <point x="613" y="994"/>
      <point x="602" y="968"/>
      <point x="602" y="953" type="curve" smooth="yes"/>
      <point x="602" y="932"/>
      <point x="607" y="919"/>
      <point x="633" y="916" type="curve" smooth="yes"/>
      <point x="675" y="912"/>
      <point x="746" y="896"/>
      <point x="709" y="848" type="curve"/>
      <point x="813" y="829" type="line"/>
      <point x="851" y="871"/>
      <point x="892" y="916"/>
      <point x="960" y="916" type="curve" smooth="yes"/>
      <point x="982" y="916"/>
      <point x="993" y="929"/>
      <point x="993" y="953" type="curve" smooth="yes"/>
      <point x="993" y="968"/>
      <point x="982" y="994"/>
      <point x="959" y="994" type="curve" smooth="yes"/>
    </contour>
    <contour>
      <point x="369" y="0" type="line" smooth="yes"/>
      <point x="392" y="0"/>
      <point x="403" y="26"/>
      <point x="403" y="41" type="curve" smooth="yes"/>
      <point x="403" y="62"/>
      <point x="398" y="75"/>
      <point x="372" y="78" type="curve" smooth="yes"/>
      <point x="330" y="82"/>
      <point x="266" y="94"/>
      <point x="296" y="146" type="curve"/>
      <point x="192" y="165" type="line"/>
      <point x="157" y="128"/>
      <point x="113" y="78"/>
      <point x="45" y="78" type="curve" smooth="yes"/>
      <point x="23" y="78"/>
      <point x="12" y="65"/>
      <point x="12" y="41" type="curve" smooth="yes"/>
      <point x="12" y="26"/>
      <point x="23" y="0"/>
      <point x="46" y="0" type="curve" smooth="yes"/>
    </contour>
    <contour>
      <point x="520" y="2000" type="move" name="top"/>
    </contour>
    <contour>
      <point x="520" y="-200" type="move" name="btm"/>
    </contour>
  </outline>
</glyph>
<glyph name="y" format="1">
  <advance width="1008"/>
  <unicode hex="0079"/>
  <outline>
    <contour>
      <point x="331" y="862" type="line"/>
      <point x="236" y="892" type="line"/>
      <point x="148" y="829" type="line"/>
      <point x="465" y="-39" type="line"/>
      <point x="561" y="166" type="line"/>
    </contour>
    <contour>
      <point x="23" y="994" type="line" smooth="yes"/>
      <point x="1" y="994"/>
      <point x="-10" y="968"/>
      <point x="-10" y="953" type="curve" smooth="yes"/>
      <point x="-10" y="923"/>
      <point x="-2" y="919"/>
      <point x="26" y="916" type="curve" smooth="yes"/>
      <point x="75" y="911"/>
      <point x="108" y="895"/>
      <point x="148" y="829" type="curve"/>
      <point x="331" y="862" type="line"/>
      <point x="331" y="906"/>
      <point x="388" y="911"/>
      <point x="437" y="916" type="curve" smooth="yes"/>
      <point x="463" y="919"/>
      <point x="470" y="932"/>
      <point x="470" y="953" type="curve" smooth="yes"/>
      <point x="470" y="968"/>
      <point x="459" y="994"/>
      <point x="436" y="994" type="curve" smooth="yes"/>
    </contour>
    <contour>
      <point x="665" y="994" type="line" smooth="yes"/>
      <point x="642" y="994"/>
      <point x="631" y="968"/>
      <point x="631" y="953" type="curve" smooth="yes"/>
      <point x="631" y="932"/>
      <point x="638" y="919"/>
      <point x="664" y="916" type="curve" smooth="yes"/>
      <point x="713" y="911"/>
      <point x="780" y="906"/>
      <point x="780" y="862" type="curve"/>
      <point x="886" y="829" type="line"/>
      <point x="926" y="895"/>
      <point x="949" y="911"/>
      <point x="998" y="916" type="curve" smooth="yes"/>
      <point x="1026" y="919"/>
      <point x="1034" y="923"/>
      <point x="1034" y="953" type="curve" smooth="yes"/>
      <point x="1034" y="968"/>
      <point x="1022" y="994"/>
      <point x="1000" y="994" type="curve" smooth="yes"/>
    </contour>
    <contour>
      <point x="482" y="34" type="line"/>
      <point x="373" y="-297"/>
      <point x="300" y="-307"/>
      <point x="240" y="-337" type="curve" smooth="yes"/>
      <point x="217" y="-349"/>
      <point x="160" y="-346"/>
      <point x="160" y="-349" type="curve" smooth="yes"/>
      <point x="160" y="-355"/>
      <point x="190" y="-379"/>
      <point x="216" y="-379" type="curve" smooth="yes"/>
      <point x="244" y="-379"/>
      <point x="285" y="-365"/>
      <point x="278" y="-352" type="curve" smooth="yes"/>
      <point x="234" y="-272"/>
      <point x="191" y="-192"/>
      <point x="165" y="-182" type="curve" smooth="yes"/>
      <point x="129" y="-168"/>
      <point x="54" y="-205"/>
      <point x="54" y="-310" type="curve" smooth="yes"/>
      <point x="54" y="-379"/>
      <point x="102" y="-449"/>
      <point x="230" y="-449" type="curve" smooth="yes"/>
      <point x="400" y="-449"/>
      <point x="514" y="-165"/>
      <point x="573" y="-9" type="curve" smooth="yes"/>
      <point x="886" y="829" type="line"/>
      <point x="798" y="892" type="line"/>
      <point x="780" y="862" type="line"/>
      <point x="543" y="178" type="line"/>
    </contour>
    <contour>
      <point x="518" y="-200" type="move" name="btm"/>
    </contour>
    <contour>
      <point x="518" y="2000" type="move" name="top"/>
    </contour>
  </outline>
</glyph>
<glyph name="z" format="1">
  <advance width="909"/>
  <unicode hex="007A"/>
  <outline>
    <contour>
      <point x="650" y="942" type="line"/>
      <point x="666" y="911" type="line"/>
      <point x="328" y="911" type="line"/>
      <point x="240" y="911"/>
      <point x="195" y="703"/>
      <point x="190" y="654" type="curve" smooth="yes"/>
      <point x="187" y="628"/>
      <point x="174" y="621"/>
      <point x="153" y="621" type="curve" smooth="yes"/>
      <point x="138" y="621"/>
      <point x="122" y="632"/>
      <point x="122" y="655" type="curve" smooth="yes"/>
      <point x="122" y="953" type="line"/>
      <point x="122" y="977"/>
      <point x="149" y="993"/>
      <point x="169" y="994" type="curve"/>
      <point x="827" y="994" type="line" smooth="yes"/>
      <point x="843" y="994"/>
      <point x="861" y="986"/>
      <point x="861" y="967" type="curve" smooth="yes"/>
      <point x="861" y="943" type="line" smooth="yes"/>
      <point x="861" y="932"/>
      <point x="857" y="925"/>
      <point x="851" y="915" type="curve" smooth="yes"/>
      <point x="269" y="16" type="line"/>
      <point x="250" y="83" type="line"/>
      <point x="627" y="83" type="line"/>
      <point x="715" y="83"/>
      <point x="760" y="291"/>
      <point x="765" y="340" type="curve" smooth="yes"/>
      <point x="768" y="366"/>
      <point x="781" y="373"/>
      <point x="802" y="373" type="curve" smooth="yes"/>
      <point x="817" y="373"/>
      <point x="833" y="362"/>
      <point x="833" y="339" type="curve" smooth="yes"/>
      <point x="833" y="41" type="line"/>
      <point x="833" y="15"/>
      <point x="806" y="1"/>
      <point x="786" y="0" type="curve"/>
      <point x="109" y="0" type="line" smooth="yes"/>
      <point x="93" y="0"/>
      <point x="85" y="5"/>
      <point x="85" y="24" type="curve"/>
      <point x="85" y="40" type="line" smooth="yes"/>
      <point x="85" y="53"/>
      <point x="91" y="69"/>
      <point x="127" y="123" type="curve" smooth="yes"/>
    </contour>
    <contour>
      <point x="473" y="-200" type="move" name="btm"/>
    </contour>
    <contour>
      <point x="473" y="2000" type="move" name="top"/>
    </contour>
  </outline>
</glyph>
<glyph name="braceleft" format="1">
  <advance width="881"/>
  <unicode hex="007B"/>
  <outline>
    <contour>
      <point x="66" y="549" type="line"/>
      <point x="66" y="659" type="line"/>
      <point x="66" y="658" type="line"/>
      <point x="66" y="659" type="line"/>
      <point x="136" y="659" type="line" smooth="yes"/>
      <point x="241" y="659"/>
      <point x="355" y="741"/>
      <point x="355" y="850" type="curve" smooth="yes"/>
      <point x="355" y="1237" type="line" smooth="yes"/>
      <point x="355" y="1459"/>
      <point x="542" y="1536"/>
      <point x="682" y="1536" type="curve" smooth="yes"/>
      <point x="815" y="1536" type="line"/>
      <point x="815" y="1449" type="line"/>
      <point x="702" y="1449" type="line" smooth="yes"/>
      <point x="594" y="1449"/>
      <point x="556" y="1356"/>
      <point x="556" y="1280" type="curve" smooth="yes"/>
      <point x="556" y="883" type="line" smooth="yes"/>
      <point x="556" y="720"/>
      <point x="396" y="611"/>
      <point x="224" y="604" type="curve"/>
      <point x="396" y="596"/>
      <point x="556" y="488"/>
      <point x="556" y="325" type="curve" smooth="yes"/>
      <point x="556" y="-72" type="line" smooth="yes"/>
      <point x="556" y="-148"/>
      <point x="594" y="-241"/>
      <point x="702" y="-241" type="curve" smooth="yes"/>
      <point x="815" y="-241" type="line"/>
      <point x="815" y="-328" type="line"/>
      <point x="682" y="-328" type="line" smooth="yes"/>
      <point x="542" y="-328"/>
      <point x="355" y="-251"/>
      <point x="355" y="-29" type="curve" smooth="yes"/>
      <point x="355" y="358" type="line" smooth="yes"/>
      <point x="355" y="467"/>
      <point x="241" y="549"/>
      <point x="136" y="549" type="curve" smooth="yes"/>
    </contour>
  </outline>
</glyph>
<glyph name="bar" format="1">
  <advance width="768"/>
  <unicode hex="007C"/>
  <outline>
    <contour>
      <point x="456" y="1535" type="line"/>
      <point x="456" y="-367" type="line"/>
      <point x="311" y="-367" type="line"/>
      <point x="311" y="1535" type="line"/>
    </contour>
  </outline>
</glyph>
<glyph name="asciitilde" format="1">
  <advance width="1317"/>
  <unicode hex="007E"/>
  <outline>
    <contour>
      <point x="1026" y="510" type="curve" smooth="yes"/>
      <point x="1066" y="550"/>
      <point x="1086" y="593"/>
      <point x="1115" y="642" type="curve" smooth="yes"/>
      <point x="1123" y="655"/>
      <point x="1123" y="671"/>
      <point x="1114" y="684" type="curve" smooth="yes"/>
      <point x="1099" y="704"/>
      <point x="1086" y="705"/>
      <point x="1071" y="702" type="curve"/>
      <point x="1019" y="681"/>
      <point x="963" y="498"/>
      <point x="739" y="609" type="curve" smooth="yes"/>
      <point x="648" y="648"/>
      <point x="580" y="705"/>
      <point x="471" y="705" type="curve" smooth="yes"/>
      <point x="405" y="705"/>
      <point x="341" y="679"/>
      <point x="300" y="630" type="curve" smooth="yes"/>
      <point x="260" y="590"/>
      <point x="230" y="537"/>
      <point x="201" y="488" type="curve" smooth="yes"/>
      <point x="193" y="475"/>
      <point x="193" y="459"/>
      <point x="202" y="446" type="curve" smooth="yes"/>
      <point x="217" y="426"/>
      <point x="230" y="425"/>
      <point x="245" y="428" type="curve"/>
      <point x="297" y="449"/>
      <point x="353" y="632"/>
      <point x="577" y="521" type="curve" smooth="yes"/>
      <point x="671" y="482"/>
      <point x="741" y="425"/>
      <point x="855" y="425" type="curve" smooth="yes"/>
      <point x="917" y="425"/>
      <point x="987" y="461"/>
    </contour>
  </outline>
</glyph>
<glyph name="cent" format="1">
  <advance width="1137"/>
  <unicode hex="00A2"/>
  <outline>
    <contour>
      <point x="667" y="977" type="line"/>
      <point x="667" y="1225" type="line"/>
      <point x="561" y="1225" type="line"/>
      <point x="561" y="977" type="line"/>
    </contour>
    <contour>
      <point x="667" y="-228" type="line"/>
      <point x="667" y="3" type="line"/>
      <point x="561" y="3" type="line"/>
      <point x="561" y="-228" type="line"/>
    </contour>
    <component base="c" xOffset="117"/>
  </outline>
</glyph>
<glyph name="sterling" format="1">
  <advance width="1274"/>
  <unicode hex="00A3"/>
  <outline>
    <contour>
      <point x="1011" y="282" type="curve"/>
      <point x="1005" y="177"/>
      <point x="918" y="80"/>
      <point x="734" y="88" type="curve" smooth="yes"/>
      <point x="575" y="95"/>
      <point x="537" y="154"/>
      <point x="405" y="193" type="curve"/>
      <point x="466" y="253"/>
      <point x="527" y="406"/>
      <point x="527" y="603" type="curve" smooth="yes"/>
      <point x="527" y="693"/>
      <point x="526" y="783"/>
      <point x="526" y="873" type="curve" smooth="yes"/>
      <point x="526" y="1233"/>
      <point x="614" y="1356"/>
      <point x="776" y="1356" type="curve" smooth="yes"/>
      <point x="870" y="1356"/>
      <point x="875" y="1320"/>
      <point x="875" y="1323" type="curve"/>
      <point x="855" y="1348"/>
      <point x="812" y="1373"/>
      <point x="819" y="1360" type="curve"/>
      <point x="968" y="1106" type="line"/>
      <point x="1055" y="1052"/>
      <point x="1128" y="1151"/>
      <point x="1140" y="1218" type="curve" smooth="yes"/>
      <point x="1152" y="1286"/>
      <point x="1040" y="1448"/>
      <point x="810" y="1448" type="curve" smooth="yes"/>
      <point x="444" y="1448"/>
      <point x="320" y="1208"/>
      <point x="320" y="871" type="curve" smooth="yes"/>
      <point x="320" y="473" type="line" smooth="yes"/>
      <point x="320" y="395"/>
      <point x="313" y="295"/>
      <point x="286" y="236" type="curve"/>
      <point x="256" y="219"/>
      <point x="54" y="200"/>
      <point x="54" y="92" type="curve" smooth="yes"/>
      <point x="54" y="12"/>
      <point x="115" y="0"/>
      <point x="152" y="0" type="curve" smooth="yes"/>
      <point x="239" y="0"/>
      <point x="292" y="86"/>
      <point x="307" y="118" type="curve"/>
      <point x="394" y="134"/>
      <point x="508" y="-16"/>
      <point x="823" y="-16" type="curve" smooth="yes"/>
      <point x="1010" y="-16"/>
      <point x="1150" y="78"/>
      <point x="1190" y="177" type="curve" smooth="yes"/>
      <point x="1232" y="281"/>
      <point x="1196" y="404"/>
      <point x="1142" y="447" type="curve" smooth="yes"/>
      <point x="1049" y="521"/>
      <point x="953" y="445"/>
      <point x="952" y="418" type="curve"/>
      <point x="1045" y="177" type="line"/>
      <point x="1051" y="163"/>
      <point x="1048" y="247"/>
      <point x="1066" y="270" type="curve" smooth="yes"/>
      <point x="1082" y="291"/>
      <point x="1094" y="314"/>
      <point x="1090" y="318" type="curve" smooth="yes"/>
      <point x="1087" y="319"/>
      <point x="1027" y="302"/>
    </contour>
    <contour>
      <point x="810" y="679" type="line"/>
      <point x="824" y="685"/>
      <point x="834" y="707"/>
      <point x="834" y="732" type="curve" smooth="yes"/>
      <point x="834" y="748"/>
      <point x="826" y="765"/>
      <point x="810" y="766" type="curve"/>
      <point x="121" y="766" type="line"/>
      <point x="107" y="760"/>
      <point x="97" y="738"/>
      <point x="97" y="713" type="curve" smooth="yes"/>
      <point x="97" y="697"/>
      <point x="105" y="680"/>
      <point x="121" y="679" type="curve"/>
    </contour>
  </outline>
</glyph>
<glyph name="currency" format="1">
  <advance width="1170"/>
  <unicode hex="00A4"/>
  <outline>
    <contour>
      <point x="255" y="555" type="curve" smooth="yes"/>
      <point x="255" y="365"/>
      <point x="382" y="211"/>
      <point x="584" y="211" type="curve" smooth="yes"/>
      <point x="786" y="211"/>
      <point x="915" y="365"/>
      <point x="915" y="555" type="curve" smooth="yes"/>
      <point x="915" y="745"/>
      <point x="790" y="899"/>
      <point x="588" y="899" type="curve" smooth="yes"/>
      <point x="386" y="899"/>
      <point x="255" y="745"/>
    </contour>
    <contour>
      <point x="772" y="555" type="curve" smooth="yes"/>
      <point x="772" y="400"/>
      <point x="704" y="324"/>
      <point x="586" y="324" type="curve" smooth="yes"/>
      <point x="467" y="324"/>
      <point x="397" y="400"/>
      <point x="397" y="555" type="curve" smooth="yes"/>
      <point x="397" y="710"/>
      <point x="464" y="786"/>
      <point x="583" y="786" type="curve" smooth="yes"/>
      <point x="701" y="786"/>
      <point x="772" y="710"/>
    </contour>
    <contour>
      <point x="735" y="313" type="line"/>
      <point x="946" y="99" type="line"/>
      <point x="1038" y="184" type="line"/>
      <point x="813" y="412" type="line"/>
    </contour>
    <contour>
      <point x="436" y="796" type="line"/>
      <point x="224" y="1011" type="line"/>
      <point x="132" y="925" type="line"/>
      <point x="355" y="699" type="line"/>
    </contour>
    <contour>
      <point x="347" y="403" type="line"/>
      <point x="132" y="184" type="line"/>
      <point x="224" y="99" type="line"/>
      <point x="438" y="316" type="line"/>
    </contour>
    <contour>
      <point x="814" y="698" type="line"/>
      <point x="1038" y="925" type="line"/>
      <point x="946" y="1011" type="line"/>
      <point x="734" y="796" type="line"/>
    </contour>
  </outline>
</glyph>
<glyph name="yen" format="1">
  <advance width="1259"/>
  <unicode hex="00A5"/>
  <outline>
    <contour>
      <point x="368" y="1287" type="line" smooth="yes"/>
      <point x="346" y="1332"/>
      <point x="405" y="1346"/>
      <point x="496" y="1351" type="curve"/>
      <point x="522" y="1354"/>
      <point x="529" y="1367"/>
      <point x="529" y="1388" type="curve" smooth="yes"/>
      <point x="529" y="1403"/>
      <point x="518" y="1419"/>
      <point x="495" y="1419" type="curve" smooth="yes"/>
      <point x="0" y="1419" type="line" smooth="yes"/>
      <point x="-22" y="1419"/>
      <point x="-34" y="1403"/>
      <point x="-34" y="1388" type="curve" smooth="yes"/>
      <point x="-34" y="1358"/>
      <point x="-26" y="1354"/>
      <point x="2" y="1351" type="curve" smooth="yes"/>
      <point x="51" y="1346"/>
      <point x="108" y="1337"/>
      <point x="153" y="1254" type="curve" smooth="yes"/>
      <point x="622" y="492" type="line"/>
      <point x="645" y="492" type="line"/>
      <point x="692" y="742" type="line"/>
    </contour>
    <contour>
      <point x="685" y="742" type="line"/>
      <point x="645" y="492" type="line"/>
      <point x="1126" y="1254" type="line" smooth="yes"/>
      <point x="1171" y="1336"/>
      <point x="1228" y="1346"/>
      <point x="1277" y="1351" type="curve" smooth="yes"/>
      <point x="1305" y="1354"/>
      <point x="1313" y="1358"/>
      <point x="1313" y="1388" type="curve" smooth="yes"/>
      <point x="1313" y="1403"/>
      <point x="1301" y="1419"/>
      <point x="1279" y="1419" type="curve" smooth="yes"/>
      <point x="884" y="1419" type="line" smooth="yes"/>
      <point x="861" y="1419"/>
      <point x="850" y="1403"/>
      <point x="850" y="1388" type="curve" smooth="yes"/>
      <point x="850" y="1367"/>
      <point x="857" y="1354"/>
      <point x="883" y="1351" type="curve"/>
      <point x="974" y="1346"/>
      <point x="1033" y="1331"/>
      <point x="1011" y="1287" type="curve" smooth="yes"/>
    </contour>
    <contour>
      <point x="540" y="721" type="line"/>
      <point x="540" y="152" type="line" smooth="yes"/>
      <point x="540" y="81"/>
      <point x="462" y="73"/>
      <point x="395" y="68" type="curve"/>
      <point x="370" y="65"/>
      <point x="362" y="52"/>
      <point x="362" y="31" type="curve" smooth="yes"/>
      <point x="362" y="16"/>
      <point x="373" y="0"/>
      <point x="396" y="0" type="curve" smooth="yes"/>
      <point x="901" y="0" type="line" smooth="yes"/>
      <point x="923" y="0"/>
      <point x="935" y="16"/>
      <point x="935" y="31" type="curve" smooth="yes"/>
      <point x="935" y="61"/>
      <point x="927" y="65"/>
      <point x="899" y="68" type="curve"/>
      <point x="832" y="73"/>
      <point x="747" y="79"/>
      <point x="747" y="165" type="curve" smooth="yes"/>
      <point x="747" y="721" type="line"/>
    </contour>
    <contour>
      <point x="206" y="598" type="line"/>
      <point x="1040" y="598" type="line"/>
      <point x="1040" y="694" type="line"/>
      <point x="206" y="694" type="line"/>
    </contour>
    <contour>
      <point x="206" y="348" type="line"/>
      <point x="1040" y="348" type="line"/>
      <point x="1040" y="444" type="line"/>
      <point x="206" y="444" type="line"/>
    </contour>
  </outline>
</glyph>
<glyph name="brokenbar" format="1">
  <advance width="768"/>
  <unicode hex="00A6"/>
  <outline>
    <contour>
      <point x="456" y="1535" type="line"/>
      <point x="456" y="765" type="line"/>
      <point x="311" y="765" type="line"/>
      <point x="311" y="1535" type="line"/>
    </contour>
    <contour>
      <point x="456" y="401" type="line"/>
      <point x="456" y="-369" type="line"/>
      <point x="311" y="-369" type="line"/>
      <point x="311" y="401" type="line"/>
    </contour>
  </outline>
</glyph>
